<svg version="1.1" viewBox="0.0 0.0 1122.5196850393702 793.7007874015748" fill="none" stroke="none" stroke-linecap="square" stroke-miterlimit="10" xmlns:xlink="http://www.w3.org/1999/xlink" xmlns="http://www.w3.org/2000/svg">
    <clipPath id="p_1.0">
        <path d="m0 0l1122.5197 0l0 793.7008l-1122.5197 0l0 -793.7008z" clip-rule="nonzero"/>
    </clipPath>
    <g clip-path="url(#p_1.0)">
        <path fill="#000000" fill-opacity="0.0" d="m0 0l1122.5197 0l0 793.7008l-1122.5197 0z" fill-rule="evenodd"/>
        <path fill="#000000" fill-opacity="0.0" d="m388.45984 276.61713l345.59924 0l0 240.46667l-345.59924 0z" fill-rule="evenodd"/>
        <path fill="#757070"
              d="m700.10236 517.0838c-21.461182 -11.002045 -28.125488 -27.365417 -52.927185 -53.915558c-9.734253 -8.295898 -8.679199 -12.605164 -33.29651 -13.943726c-23.226135 -2.3818665 -76.73462 0.51626587 -106.0603 -0.34768677c-22.718384 1.2226868 -23.175903 5.4151917 -30.307892 10.813049c-18.32254 19.363342 -25.461578 38.03131 -54.21695 56.351257c-10.915741 -2.9180908 -34.003662 -10.009888 -34.83368 -43.187805c3.4754944 -68.03836 25.945526 -108.572235 46.462402 -163.04572c15.684418 -20.287354 36.35443 -21.659637 53.082245 -24.822632c49.167084 -2.5506592 101.82858 -2.5599976 146.12692 -0.24176025c24.225647 1.0662537 49.280945 17.770386 52.651733 25.037384c23.35968 49.720215 49.192627 135.95999 47.164368 162.72491c-2.9354248 17.641602 -4.8273926 34.587585 -33.845154 44.578278z"
              fill-rule="evenodd"/>
        <path stroke="#000000" stroke-width="1.3333333333333333" stroke-miterlimit="800.0" stroke-linecap="butt"
              d="m700.10236 517.0838c-21.461182 -11.002045 -28.125488 -27.365417 -52.927185 -53.915558c-9.734253 -8.295898 -8.679199 -12.605164 -33.29651 -13.943726c-23.226135 -2.3818665 -76.73462 0.51626587 -106.0603 -0.34768677c-22.718384 1.2226868 -23.175903 5.4151917 -30.307892 10.813049c-18.32254 19.363342 -25.461578 38.03131 -54.21695 56.351257c-10.915741 -2.9180908 -34.003662 -10.009888 -34.83368 -43.187805c3.4754944 -68.03836 25.945526 -108.572235 46.462402 -163.04572c15.684418 -20.287354 36.35443 -21.659637 53.082245 -24.822632c49.167084 -2.5506592 101.82858 -2.5599976 146.12692 -0.24176025c24.225647 1.0662537 49.280945 17.770386 52.651733 25.037384c23.35968 49.720215 49.192627 135.95999 47.164368 162.72491c-2.9354248 17.641602 -4.8273926 34.587585 -33.845154 44.578278z"
              fill-rule="evenodd"/>
        <path id="leftStick" fill="#ffffff" d="m451.9937 343.3601l0 0c0 -11.283264 9.1466675 -20.430176 20.429657 -20.430176l0 0c5.4183044 0 10.614655 2.1524658 14.445953 5.983856c3.8312988 3.8313904 5.9837036 9.027893 5.9837036 14.44632l0 0c0 11.283264 -9.1466675 20.430176 -20.429657 20.430176l0 0c-11.2829895 0 -20.429657 -9.146912 -20.429657 -20.430176z" fill-rule="evenodd"/>
        <path stroke="#000000" stroke-width="1.3333333333333333" stroke-miterlimit="800.0" stroke-linecap="butt" d="m451.9937 343.3601l0 0c0 -11.283264 9.1466675 -20.430176 20.429657 -20.430176l0 0c5.4183044 0 10.614655 2.1524658 14.445953 5.983856c3.8312988 3.8313904 5.9837036 9.027893 5.9837036 14.44632l0 0c0 11.283264 -9.1466675 20.430176 -20.429657 20.430176l0 0c-11.2829895 0 -20.429657 -9.146912 -20.429657 -20.430176z" fill-rule="evenodd"/>
        <path fill="#000000" fill-opacity="0.0" d="m458.68744 343.34604l0 0c0 -7.6534424 6.2041626 -13.857788 13.857422 -13.857788l0 0c3.675232 0 7.1999207 1.460022 9.798706 4.0588684c2.5987854 2.598816 4.0587463 6.123596 4.0587463 9.79892l0 0c0 7.6534424 -6.204193 13.857788 -13.857452 13.857788l0 0c-7.6532593 0 -13.857422 -6.2043457 -13.857422 -13.857788z" fill-rule="evenodd"/>
        <path stroke="#3f3f3f" stroke-width="1.0" stroke-miterlimit="800.0" stroke-linecap="butt" d="m458.68744 343.34604l0 0c0 -7.6534424 6.2041626 -13.857788 13.857422 -13.857788l0 0c3.675232 0 7.1999207 1.460022 9.798706 4.0588684c2.5987854 2.598816 4.0587463 6.123596 4.0587463 9.79892l0 0c0 7.6534424 -6.204193 13.857788 -13.857452 13.857788l0 0c-7.6532593 0 -13.857422 -6.2043457 -13.857422 -13.857788z" fill-rule="evenodd"/>
        <path id="rightStick" fill="#ffffff" d="m586.6895 395.35205l0 0c0 -11.283264 9.1466675 -20.430176 20.429626 -20.430176l0 0c5.418274 0 10.614685 2.1524658 14.445984 5.983856c3.8312988 3.8313904 5.9837036 9.027893 5.9837036 14.44632l0 0c0 11.283264 -9.1466675 20.430145 -20.429688 20.430145l0 0c-11.282959 0 -20.429626 -9.146881 -20.429626 -20.430145z" fill-rule="evenodd"/>
        <path stroke="#000000" stroke-width="1.3333333333333333" stroke-miterlimit="800.0" stroke-linecap="butt" d="m586.6895 395.35205l0 0c0 -11.283264 9.1466675 -20.430176 20.429626 -20.430176l0 0c5.418274 0 10.614685 2.1524658 14.445984 5.983856c3.8312988 3.8313904 5.9837036 9.027893 5.9837036 14.44632l0 0c0 11.283264 -9.1466675 20.430145 -20.429688 20.430145l0 0c-11.282959 0 -20.429626 -9.146881 -20.429626 -20.430145z" fill-rule="evenodd"/>
        <path fill="#000000" fill-opacity="0.0" d="m593.3831 395.47354l0 0c0 -7.6534424 6.2041626 -13.857788 13.857422 -13.857788l0 0c3.675232 0 7.199951 1.460022 9.798706 4.058838c2.598755 2.5988464 4.058716 6.1236267 4.058716 9.79895l0 0c0 7.6534424 -6.2041626 13.857788 -13.857422 13.857788l0 0c-7.6532593 0 -13.857422 -6.2043457 -13.857422 -13.857788z" fill-rule="evenodd"/>
        <path stroke="#3f3f3f" stroke-width="1.0" stroke-miterlimit="800.0" stroke-linecap="butt" d="m593.3831 395.47354l0 0c0 -7.6534424 6.2041626 -13.857788 13.857422 -13.857788l0 0c3.675232 0 7.199951 1.460022 9.798706 4.058838c2.598755 2.5988464 4.058716 6.1236267 4.058716 9.79895l0 0c0 7.6534424 -6.2041626 13.857788 -13.857422 13.857788l0 0c-7.6532593 0 -13.857422 -6.2043457 -13.857422 -13.857788z" fill-rule="evenodd"/>
        <path fill="#757070" d="m488.14722 398.58572l0 0c0 -15.012939 12.170074 -27.183289 27.182617 -27.183289l0 0c7.2092896 0 14.123291 2.863922 19.221008 7.961792c5.0977173 5.0978394 7.961609 12.012024 7.961609 19.221497l0 0c0 15.012909 -12.170044 27.183289 -27.182617 27.183289l0 0c-15.012543 0 -27.182617 -12.17038 -27.182617 -27.183289z" fill-rule="evenodd"/>
        <path stroke="#3f3f3f" stroke-width="1.3333333333333333" stroke-miterlimit="800.0" stroke-linecap="butt" d="m488.14722 398.58572l0 0c0 -15.012939 12.170074 -27.183289 27.182617 -27.183289l0 0c7.2092896 0 14.123291 2.863922 19.221008 7.961792c5.0977173 5.0978394 7.961609 12.012024 7.961609 19.221497l0 0c0 15.012909 -12.170044 27.183289 -27.182617 27.183289l0 0c-15.012543 0 -27.182617 -12.17038 -27.182617 -27.183289z" fill-rule="evenodd"/>
        <path id="dpad" fill="#ffffff" d="m491.58176 390.31375l15.25296 0l0 -15.253326c5.8901978 -2.8133545 11.405151 -2.624939 17.107666 0l0 15.253326l15.252991 0c2.8147583 5.327301 2.0634155 11.59317 0 17.108063l-15.252991 0l0 15.253296c-4.9523926 2.0648804 -12.1553955 1.500946 -17.107666 0l0 -15.253296l-15.25296 0c-2.437317 -7.3905334 -1.6888733 -10.46759 0 -17.108063z" fill-rule="evenodd"/>
        <path stroke="#000000" stroke-width="1.3333333333333333" stroke-miterlimit="800.0" stroke-linecap="butt" d="m491.58176 390.31375l15.25296 0l0 -15.253326c5.8901978 -2.8133545 11.405151 -2.624939 17.107666 0l0 15.253326l15.252991 0c2.8147583 5.327301 2.0634155 11.59317 0 17.108063l-15.252991 0l0 15.253296c-4.9523926 2.0648804 -12.1553955 1.500946 -17.107666 0l0 -15.253296l-15.25296 0c-2.437317 -7.3905334 -1.6888733 -10.46759 0 -17.108063z" fill-rule="evenodd"/>
        <g filter="url(#shadowFilter-p_1.1)">
            <use xlink:href="#p_1.1" transform="matrix(1.02 0.0 0.0 1.02 -10.307837417609703 -7.991700709578056)"/>
        </g>
        <defs>
            <filter id="shadowFilter-p_1.1" filterUnits="userSpaceOnUse">
                <feGaussianBlur in="SourceAlpha" stdDeviation="2.2222223" result="blur"/>
                <feComponentTransfer in="blur" color-interpolation-filters="sRGB">
                    <feFuncR type="linear" slope="0" intercept="0.0"/>
                    <feFuncG type="linear" slope="0" intercept="0.0"/>
                    <feFuncB type="linear" slope="0" intercept="0.0"/>
                    <feFuncA type="linear" slope="0.4" intercept="0"/>
                </feComponentTransfer>
            </filter>
        </defs>
        <g id="p_1.1">
            <path fill="#aeabab" d="m507.4563 391.64926l15.871155 0l0 15.8715515l-15.871155 0z" fill-rule="evenodd"/>
        </g>
        <path id="xButton" fill="#ffffff" d="m614.3278 342.39694l0 0c0 -6.767578 5.486511 -12.253754 12.254456 -12.253754l0 0c3.250122 0 6.3670654 1.2910156 8.665222 3.5890503c2.2981567 2.2980042 3.5892334 5.414795 3.5892334 8.664703l0 0c0 6.7675476 -5.486511 12.253723 -12.254456 12.253723l0 0c-6.7679443 0 -12.254456 -5.4861755 -12.254456 -12.253723z" fill-rule="evenodd"/>
        <path stroke="#000000" stroke-width="1.3333333333333333" stroke-miterlimit="800.0" stroke-linecap="butt" d="m614.3278 342.39694l0 0c0 -6.767578 5.486511 -12.253754 12.254456 -12.253754l0 0c3.250122 0 6.3670654 1.2910156 8.665222 3.5890503c2.2981567 2.2980042 3.5892334 5.414795 3.5892334 8.664703l0 0c0 6.7675476 -5.486511 12.253723 -12.254456 12.253723l0 0c-6.7679443 0 -12.254456 -5.4861755 -12.254456 -12.253723z" fill-rule="evenodd"/>
        <path id="aButton" fill="#ffffff" d="m638.6882 365.60318l0 0c0 -6.751831 5.473755 -12.22525 12.225952 -12.22525l0 0c3.2425537 0 6.352295 1.2879944 8.645081 3.5806885c2.2928467 2.2926636 3.5809326 5.4022217 3.5809326 8.644562l0 0c0 6.7518005 -5.473755 12.22525 -12.226013 12.22525l0 0c-6.7521973 0 -12.225952 -5.4734497 -12.225952 -12.22525z" fill-rule="evenodd"/>
        <path stroke="#000000" stroke-width="1.3333333333333333" stroke-miterlimit="800.0" stroke-linecap="butt" d="m638.6882 365.60318l0 0c0 -6.751831 5.473755 -12.22525 12.225952 -12.22525l0 0c3.2425537 0 6.352295 1.2879944 8.645081 3.5806885c2.2928467 2.2926636 3.5809326 5.4022217 3.5809326 8.644562l0 0c0 6.7518005 -5.473755 12.22525 -12.226013 12.22525l0 0c-6.7521973 0 -12.225952 -5.4734497 -12.225952 -12.22525z" fill-rule="evenodd"/>
        <path id="yButton" fill="#ffffff" d="m638.5008 319.53708l0 0c0 -6.7675476 5.486511 -12.253754 12.254456 -12.253754l0 0c3.250061 0 6.3670654 1.2910156 8.665222 3.5890503c2.2981567 2.2980347 3.5892334 5.414795 3.5892334 8.664703l0 0c0 6.7675476 -5.486511 12.253723 -12.254456 12.253723l0 0c-6.7679443 0 -12.254456 -5.4861755 -12.254456 -12.253723z" fill-rule="evenodd"/>
        <path stroke="#000000" stroke-width="1.3333333333333333" stroke-miterlimit="800.0" stroke-linecap="butt" d="m638.5008 319.53708l0 0c0 -6.7675476 5.486511 -12.253754 12.254456 -12.253754l0 0c3.250061 0 6.3670654 1.2910156 8.665222 3.5890503c2.2981567 2.2980347 3.5892334 5.414795 3.5892334 8.664703l0 0c0 6.7675476 -5.486511 12.253723 -12.254456 12.253723l0 0c-6.7679443 0 -12.254456 -5.4861755 -12.254456 -12.253723z" fill-rule="evenodd"/>
        <path id="bButton" fill="#ffffff" d="m661.5494 343.70862l0 0c0 -6.7675476 5.486511 -12.253754 12.254456 -12.253754l0 0c3.250061 0 6.3670654 1.2910156 8.665222 3.5890503c2.2981567 2.2980042 3.5892334 5.414795 3.5892334 8.664703l0 0c0 6.7675476 -5.486511 12.253723 -12.254456 12.253723l0 0c-6.7679443 0 -12.254456 -5.4861755 -12.254456 -12.253723z" fill-rule="evenodd"/>
        <path stroke="#000000" stroke-width="1.3333333333333333" stroke-miterlimit="800.0" stroke-linecap="butt" d="m661.5494 343.70862l0 0c0 -6.7675476 5.486511 -12.253754 12.254456 -12.253754l0 0c3.250061 0 6.3670654 1.2910156 8.665222 3.5890503c2.2981567 2.2980042 3.5892334 5.414795 3.5892334 8.664703l0 0c0 6.7675476 -5.486511 12.253723 -12.254456 12.253723l0 0c-6.7679443 0 -12.254456 -5.4861755 -12.254456 -12.253723z" fill-rule="evenodd"/>
        <path id="button" fill="#00000" fill-opacity="0.0" d="m610.20526 321.9227l26.983887 0l0 37.042175l-26.983887 0z" fill-rule="evenodd"/>
        <path id="button" fill="#404040"
              d="m631.6584 347.80643q0.21875 0.40625 0.28125 0.65625q0.0625 0.234375 -0.078125 0.375q-0.140625 0.125 -0.515625 0.15625q-0.359375 0.046875 -1.015625 0.046875q-0.546875 0 -0.875 -0.03125q-0.3125 -0.015625 -0.5 -0.0625q-0.171875 -0.0625 -0.265625 -0.15625q-0.078125 -0.09375 -0.125 -0.234375l-2.859375 -5.484375l-2.828125 5.484375q-0.078125 0.140625 -0.15625 0.234375q-0.078125 0.09375 -0.265625 0.15625q-0.171875 0.046875 -0.5 0.0625q-0.328125 0.03125 -0.84375 0.03125q-0.609375 0 -0.953125 -0.046875q-0.328125 -0.03125 -0.453125 -0.15625q-0.109375 -0.140625 -0.046875 -0.375q0.078125 -0.25 0.296875 -0.65625l3.640625 -6.625l-3.375 -6.21875q-0.21875 -0.421875 -0.296875 -0.671875q-0.078125 -0.265625 0.0625 -0.375q0.140625 -0.125 0.5 -0.15625q0.359375 -0.03125 1.03125 -0.03125q0.546875 0 0.859375 0.03125q0.328125 0.015625 0.515625 0.078125q0.1875 0.046875 0.265625 0.140625q0.078125 0.09375 0.15625 0.234375l2.65625 5.015625l2.59375 -5.015625q0.0625 -0.140625 0.140625 -0.234375q0.078125 -0.09375 0.25 -0.140625q0.171875 -0.0625 0.46875 -0.078125q0.296875 -0.03125 0.828125 -0.03125q0.578125 0 0.921875 0.03125q0.34375 0.03125 0.46875 0.15625q0.125 0.125 0.0625 0.375q-0.0625 0.25 -0.265625 0.671875l-3.375 6.1875l3.59375 6.65625z"
              fill-rule="nonzero"/>
        <path fill="#000000" fill-opacity="0.0" d="m634.4931 299.41357l26.983887 0l0 37.042206l-26.983887 0z" fill-rule="evenodd"/>
        <path fill="#404040"
              d="m651.27435 320.70358l0 5.328125q0 0.109375 -0.078125 0.203125q-0.078125 0.09375 -0.25 0.15625q-0.171875 0.0625 -0.46875 0.09375q-0.296875 0.046875 -0.75 0.046875q-0.453125 0 -0.75 -0.046875q-0.296875 -0.03125 -0.484375 -0.09375q-0.171875 -0.0625 -0.25 -0.15625q-0.0625 -0.09375 -0.0625 -0.203125l0 -5.328125l-4.140625 -8.265625q-0.234375 -0.4375 -0.296875 -0.671875q-0.0625 -0.25 0.0625 -0.359375q0.140625 -0.125 0.5 -0.15625q0.375 -0.03125 1.015625 -0.03125q0.546875 0 0.859375 0.03125q0.328125 0.015625 0.515625 0.078125q0.1875 0.0625 0.265625 0.171875q0.09375 0.109375 0.171875 0.265625l1.6875 3.734375q0.25 0.53125 0.484375 1.140625q0.25 0.59375 0.5 1.25l0.015625 0q0.21875 -0.640625 0.453125 -1.234375q0.234375 -0.59375 0.46875 -1.140625l1.65625 -3.703125q0.0625 -0.1875 0.140625 -0.296875q0.09375 -0.109375 0.265625 -0.171875q0.1875 -0.078125 0.484375 -0.09375q0.3125 -0.03125 0.8125 -0.03125q0.671875 0 1.03125 0.03125q0.375 0.03125 0.5 0.15625q0.140625 0.109375 0.0625 0.359375q-0.0625 0.25 -0.265625 0.671875l-4.15625 8.265625z"
              fill-rule="nonzero"/>
        <path fill="#000000" fill-opacity="0.0" d="m657.6626 322.6482l26.983826 0l0 37.042175l-26.983826 0z" fill-rule="evenodd"/>
        <path fill="#404040"
              d="m679.3032 345.14133q0 0.8125 -0.234375 1.46875q-0.21875 0.65625 -0.609375 1.15625q-0.390625 0.5 -0.9375 0.875q-0.546875 0.359375 -1.203125 0.59375q-0.65625 0.234375 -1.40625 0.34375q-0.734375 0.109375 -1.65625 0.109375l-4.03125 0q-0.375 0 -0.640625 -0.21875q-0.265625 -0.234375 -0.265625 -0.75l0 -13.21875q0 -0.515625 0.265625 -0.75q0.265625 -0.234375 0.640625 -0.234375l3.8125 0q1.390625 0 2.359375 0.234375q0.96875 0.234375 1.625 0.71875q0.671875 0.46875 1.015625 1.203125q0.359375 0.71875 0.359375 1.703125q0 0.546875 -0.140625 1.046875q-0.140625 0.484375 -0.421875 0.890625q-0.265625 0.390625 -0.65625 0.703125q-0.390625 0.296875 -0.890625 0.484375q0.640625 0.109375 1.1875 0.40625q0.546875 0.296875 0.953125 0.765625q0.40625 0.453125 0.640625 1.078125q0.234375 0.609375 0.234375 1.390625zm-3.984375 -6.390625q0 -0.453125 -0.140625 -0.8125q-0.140625 -0.375 -0.421875 -0.609375q-0.28125 -0.234375 -0.71875 -0.359375q-0.421875 -0.140625 -1.140625 -0.140625l-1.5625 0l0 3.9375l1.734375 0q0.65625 0 1.046875 -0.15625q0.40625 -0.15625 0.671875 -0.421875q0.265625 -0.28125 0.390625 -0.65625q0.140625 -0.375 0.140625 -0.78125zm0.78125 6.5q0 -0.53125 -0.1875 -0.9375q-0.171875 -0.421875 -0.515625 -0.703125q-0.328125 -0.28125 -0.859375 -0.4375q-0.53125 -0.15625 -1.375 -0.15625l-1.828125 0l0 4.3125l2.234375 0q0.640625 0 1.078125 -0.125q0.4375 -0.140625 0.765625 -0.40625q0.328125 -0.265625 0.5 -0.65625q0.1875 -0.390625 0.1875 -0.890625z"
              fill-rule="nonzero"/>
        <path fill="#000000" fill-opacity="0.0" d="m633.6045 344.75864l26.983887 0l0 37.042175l-26.983887 0z" fill-rule="evenodd"/>
        <path fill="#404040"
              d="m656.6826 370.64236q0.140625 0.421875 0.171875 0.671875q0.03125 0.25 -0.09375 0.375q-0.125 0.125 -0.453125 0.15625q-0.328125 0.03125 -0.90625 0.03125q-0.59375 0 -0.9375 -0.03125q-0.328125 -0.015625 -0.5 -0.0625q-0.171875 -0.0625 -0.25 -0.15625q-0.0625 -0.09375 -0.109375 -0.234375l-1.03125 -3.046875l-5.6875 0l-0.96875 2.953125q-0.046875 0.171875 -0.125 0.28125q-0.0625 0.109375 -0.234375 0.1875q-0.171875 0.0625 -0.484375 0.078125q-0.3125 0.03125 -0.8125 0.03125q-0.546875 0 -0.859375 -0.046875q-0.296875 -0.03125 -0.421875 -0.15625q-0.109375 -0.140625 -0.078125 -0.390625q0.046875 -0.25 0.1875 -0.65625l4.671875 -13.453125q0.078125 -0.203125 0.171875 -0.328125q0.09375 -0.125 0.296875 -0.1875q0.203125 -0.0625 0.5625 -0.078125q0.359375 -0.015625 0.96875 -0.015625q0.6875 0 1.09375 0.015625q0.40625 0.015625 0.640625 0.078125q0.234375 0.0625 0.328125 0.203125q0.09375 0.125 0.171875 0.34375l4.6875 13.4375zm-6.96875 -11.109375l0 0l-2.15625 6.4375l4.3125 0l-2.15625 -6.4375z"
              fill-rule="nonzero"/>
        <path id="xboxButton" fill="#ffffff" d="m547.40173 307.13095l0 0c0 -7.6099854 6.1690063 -13.779114 13.778809 -13.779114l0 0c3.654358 0 7.1590576 1.4517212 9.743042 4.0358276c2.5840454 2.584076 4.0357666 6.0888367 4.0357666 9.743286l0 0c0 7.610016 -6.1690063 13.779144 -13.778809 13.779144l0 0c-7.6098022 0 -13.778809 -6.1691284 -13.778809 -13.779144z" fill-rule="evenodd"/>
        <path stroke="#000000" stroke-width="1.3333333333333333" stroke-miterlimit="800.0" stroke-linecap="butt" d="m547.40173 307.13095l0 0c0 -7.6099854 6.1690063 -13.779114 13.778809 -13.779114l0 0c3.654358 0 7.1590576 1.4517212 9.743042 4.0358276c2.5840454 2.584076 4.0357666 6.0888367 4.0357666 9.743286l0 0c0 7.610016 -6.1690063 13.779144 -13.778809 13.779144l0 0c-7.6098022 0 -13.778809 -6.1691284 -13.778809 -13.779144z" fill-rule="evenodd"/>
        <path fill="#3f3f3f"
              d="m551.2299 297.05402c3.269165 -0.69247437 7.563904 -1.1967163 9.520203 1.302185c3.321106 -2.200531 5.998596 -1.9604187 9.133118 -1.5323792c-1.7506714 1.6439514 -3.7960205 2.7242432 -5.546692 4.368164c3.1306152 3.5916748 8.511658 8.31012 6.5740356 15.279388c-1.4090576 -4.7500305 -5.8189697 -10.06366 -10.043213 -12.561401c-4.0820312 4.141968 -5.349365 3.5911255 -9.992493 12.990173c0.13128662 -8.280426 2.8933716 -11.114655 7.1570435 -15.825653c-0.86157227 -1.7150879 -4.4382935 -2.4924927 -6.802002 -4.0204773z"
              fill-rule="evenodd"/>
        <path stroke="#3f3f3f" stroke-width="1.0" stroke-miterlimit="800.0" stroke-linecap="butt"
              d="m551.2299 297.05402c3.269165 -0.69247437 7.563904 -1.1967163 9.520203 1.302185c3.321106 -2.200531 5.998596 -1.9604187 9.133118 -1.5323792c-1.7506714 1.6439514 -3.7960205 2.7242432 -5.546692 4.368164c3.1306152 3.5916748 8.511658 8.31012 6.5740356 15.279388c-1.4090576 -4.7500305 -5.8189697 -10.06366 -10.043213 -12.561401c-4.0820312 4.141968 -5.349365 3.5911255 -9.992493 12.990173c0.13128662 -8.280426 2.8933716 -11.114655 7.1570435 -15.825653c-0.86157227 -1.7150879 -4.4382935 -2.4924927 -6.802002 -4.0204773z"
              fill-rule="evenodd"/>
        <path  id="startButton" fill="#ffffff" d="m527.6601 342.1403l0 0c0 -4.601654 3.7302856 -8.332031 8.331848 -8.332031l0 0c2.2097168 0 4.3289795 0.87783813 5.8914795 2.4403992c1.562561 1.562561 2.4403687 3.6818237 2.4403687 5.891632l0 0c0 4.601654 -3.7302856 8.332031 -8.331848 8.332031l0 0c-4.6015625 0 -8.331848 -3.7303772 -8.331848 -8.332031z" fill-rule="evenodd"/>
        <path stroke="#000000" stroke-width="1.3333333333333333" stroke-miterlimit="800.0" stroke-linecap="butt" d="m527.6601 342.1403l0 0c0 -4.601654 3.7302856 -8.332031 8.331848 -8.332031l0 0c2.2097168 0 4.3289795 0.87783813 5.8914795 2.4403992c1.562561 1.562561 2.4403687 3.6818237 2.4403687 5.891632l0 0c0 4.601654 -3.7302856 8.332031 -8.331848 8.332031l0 0c-4.6015625 0 -8.331848 -3.7303772 -8.331848 -8.332031z" fill-rule="evenodd"/>
        <path fill="#000000" fill-opacity="0.0" d="m535.1457 341.8075l4.149536 0l0 3.0178833l-4.149536 0z" fill-rule="evenodd"/>
        <path stroke="#3f3f3f" stroke-width="1.0" stroke-miterlimit="800.0" stroke-linecap="butt" d="m535.1457 341.8075l4.149536 0l0 3.0178833l-4.149536 0z" fill-rule="evenodd"/>
        <path fill="#000000" fill-opacity="0.0" d="m532.33856 339.0003l4.149536 0l0 3.0179138l-4.149536 0z" fill-rule="evenodd"/>
        <path stroke="#3f3f3f" stroke-width="1.0" stroke-miterlimit="800.0" stroke-linecap="butt" d="m532.33856 339.0003l4.149536 0l0 3.0179138l-4.149536 0z" fill-rule="evenodd"/>
        <path id="backButton" fill="#ffffff" d="m578.051 342.1403l0 0c0 -4.601654 3.7302856 -8.332031 8.331848 -8.332031l0 0c2.2097778 0 4.3289795 0.87783813 5.8914795 2.4403992c1.562561 1.562561 2.4403687 3.6818237 2.4403687 5.891632l0 0c0 4.601654 -3.7302856 8.332031 -8.331848 8.332031l0 0c-4.6015625 0 -8.331848 -3.7303772 -8.331848 -8.332031z" fill-rule="evenodd"/>
        <path stroke="#000000" stroke-width="1.3333333333333333" stroke-miterlimit="800.0" stroke-linecap="butt" d="m578.051 342.1403l0 0c0 -4.601654 3.7302856 -8.332031 8.331848 -8.332031l0 0c2.2097778 0 4.3289795 0.87783813 5.8914795 2.4403992c1.562561 1.562561 2.4403687 3.6818237 2.4403687 5.891632l0 0c0 4.601654 -3.7302856 8.332031 -8.331848 8.332031l0 0c-4.6015625 0 -8.331848 -3.7303772 -8.331848 -8.332031z" fill-rule="evenodd"/>
        <path fill="#000000" fill-opacity="0.0" d="m582.6902 339.40738l7.5577393 0" fill-rule="evenodd"/>
        <path stroke="#3f3f3f" stroke-width="1.0" stroke-miterlimit="800.0" stroke-linecap="butt" d="m582.6902 339.40738l7.5577393 0" fill-rule="evenodd"/>
        <path fill="#000000" fill-opacity="0.0" d="m582.6902 341.6928l7.5577393 0" fill-rule="evenodd"/>
        <path stroke="#3f3f3f" stroke-width="1.0" stroke-miterlimit="800.0" stroke-linecap="butt" d="m582.6902 341.6928l7.5577393 0" fill-rule="evenodd"/>
        <path fill="#000000" fill-opacity="0.0" d="m582.6902 343.97812l7.5319824 0" fill-rule="evenodd"/>
        <path stroke="#3f3f3f" stroke-width="1.0" stroke-miterlimit="800.0" stroke-linecap="butt" d="m582.6902 343.97812l7.5319824 0" fill-rule="evenodd"/>
        <path fill="#ffffff" d="m551.33966 361.3101c-0.1564331 -4.0018005 4.437683 -5.905182 9.911499 -5.905182c5.473877 0 9.911133 1.2954712 9.911133 5.905182c0 4.60968 -3.8743286 5.7120056 -10.099121 5.7120056c-6.2248535 0 -9.567139 -1.7102051 -9.723511 -5.7120056z" fill-rule="evenodd"/>
        <path stroke="#000000" stroke-width="1.3333333333333333" stroke-miterlimit="800.0" stroke-linecap="butt" d="m551.33966 361.3101c-0.1564331 -4.0018005 4.437683 -5.905182 9.911499 -5.905182c5.473877 0 9.911133 1.2954712 9.911133 5.905182c0 4.60968 -3.8743286 5.7120056 -10.099121 5.7120056c-6.2248535 0 -9.567139 -1.7102051 -9.723511 -5.7120056z" fill-rule="evenodd"/>
        <path fill="#000000" fill-opacity="0.0" d="m556.9349 359.72424l0 3.7327576" fill-rule="evenodd"/>
        <path stroke="#3f3f3f" stroke-width="1.0" stroke-miterlimit="800.0" stroke-linecap="butt" d="m556.9349 359.72424l0 3.7327576" fill-rule="evenodd"/>
        <path fill="#000000" fill-opacity="0.0" d="m556.7749 363.24368l9.065002 0" fill-rule="evenodd"/>
        <path stroke="#3f3f3f" stroke-width="1.0" stroke-miterlimit="800.0" stroke-linecap="butt" d="m556.7749 363.24368l9.065002 0" fill-rule="evenodd"/>
        <path fill="#000000" fill-opacity="0.0" d="m565.7333 359.88422l0 3.7327576" fill-rule="evenodd"/>
        <path stroke="#3f3f3f" stroke-width="1.0" stroke-miterlimit="800.0" stroke-linecap="butt" d="m565.7333 359.88422l0 3.7327576" fill-rule="evenodd"/>
        <path fill="#000000" fill-opacity="0.0" d="m561.2541 357.9645l0 3.4010315" fill-rule="evenodd"/>
        <path stroke="#3f3f3f" stroke-width="1.0" stroke-miterlimit="800.0" stroke-linecap="butt" d="m561.2541 357.9645l0 3.4010315" fill-rule="evenodd"/>
        <path fill="#000000" fill-opacity="0.0" d="m560.93414 357.9645l1.866333 1.4664307" fill-rule="evenodd"/>
        <path stroke="#3f3f3f" stroke-width="1.0" stroke-miterlimit="800.0" stroke-linecap="butt" d="m560.93414 357.9645l1.866333 1.4664307" fill-rule="evenodd"/>
        <path fill="#000000" fill-opacity="0.0" d="m561.68066 357.9645l-1.866333 1.4664307" fill-rule="evenodd"/>
        <path stroke="#3f3f3f" stroke-width="1.0" stroke-miterlimit="800.0" stroke-linecap="butt" d="m561.68066 357.9645l-1.866333 1.4664307" fill-rule="evenodd"/>
        <path id="leftBumper" fill="#ffffff" d="m475.9909 278.21527c10.122742 -1.0126343 15.126465 -1.0653992 22.689697 -1.5981445c4.7237244 4.479248 5.3970337 4.1185913 8.596497 7.2417297c-6.5691833 0.39944458 -9.26593 0.23144531 -18.234772 1.1109009c-4.429657 0.5671692 -6.459656 0.49438477 -13.28894 1.701477l-19.888397 6.600006l-15.309204 10.341675c1.6906433 -5.5171814 5.30072 -8.954407 9.390869 -12.7118225c10.558044 -7.7624207 14.28183 -9.966217 26.04425 -12.685822z" fill-rule="evenodd"/>
        <path stroke="#000000" stroke-width="1.3333333333333333" stroke-miterlimit="800.0" stroke-linecap="butt"
              d="m475.9909 278.21527c10.122742 -1.0126343 15.126465 -1.0653992 22.689697 -1.5981445c4.7237244 4.479248 5.3970337 4.1185913 8.596497 7.2417297c-6.5691833 0.39944458 -9.26593 0.23144531 -18.234772 1.1109009c-4.429657 0.5671692 -6.459656 0.49438477 -13.28894 1.701477l-19.888397 6.600006l-15.309204 10.341675c1.6906433 -5.5171814 5.30072 -8.954407 9.390869 -12.7118225c10.558044 -7.7624207 14.28183 -9.966217 26.04425 -12.685822z" fill-rule="evenodd"/>
        <path  id="rightBumper" fill="#ffffff"
              d="m645.9215 278.2176c-10.132751 -1.0141296 -15.141357 -1.0669556 -22.712036 -1.6004639c-4.7283936 4.4857483 -5.402405 4.1245728 -8.60498 7.2522583c6.5756836 0.4000244 9.275024 0.231781 18.252686 1.1125183c4.434021 0.56799316 6.4660645 0.4951172 13.302063 1.703949l19.907959 6.609619c5.2682495 2.6511536 11.016846 6.2636414 15.324341 10.35672c-2.0125122 -4.8843384 -4.505371 -8.8072815 -9.4001465 -12.730316c-10.56842 -7.773712 -14.295898 -9.980743 -26.069885 -12.704285z"
              fill-rule="evenodd"/>
        <path stroke="#000000" stroke-width="1.3333333333333333" stroke-miterlimit="800.0" stroke-linecap="butt"
              d="m645.9215 278.2176c-10.132751 -1.0141296 -15.141357 -1.0669556 -22.712036 -1.6004639c-4.7283936 4.4857483 -5.402405 4.1245728 -8.60498 7.2522583c6.5756836 0.4000244 9.275024 0.231781 18.252686 1.1125183c4.434021 0.56799316 6.4660645 0.4951172 13.302063 1.703949l19.907959 6.609619c5.2682495 2.6511536 11.016846 6.2636414 15.324341 10.35672c-2.0125122 -4.8843384 -4.505371 -8.8072815 -9.4001465 -12.730316c-10.56842 -7.773712 -14.295898 -9.980743 -26.069885 -12.704285z"
              fill-rule="evenodd"/>
    </g>
</svg>