<svg version="1.1" viewBox="350.0 200.0 400 400" fill="none" stroke="none" stroke-linecap="square" stroke-miterlimit="10" xmlns:xlink="http://www.w3.org/1999/xlink" xmlns="http://www.w3.org/2000/svg">
    <clipPath id="p_1.0">
        <path d="m0 0l1122.5197 0l0 793.7008l-1122.5197 0l0 -793.7008z" clip-rule="nonzero"/>
    </clipPath>
    <g clip-path="url(#p_1.0)">
        <path fill="#000000" fill-opacity="0.0" d="m0 0l1122.5197 0l0 793.7008l-1122.5197 0z" fill-rule="evenodd"/>
        <path fill="#000000" fill-opacity="0.0" d="m453.4949 207.60188l215.52756 0l0 378.4961l-215.52756 0z" fill-rule="evenodd"/>
        <path fill="#757070" d="m594.5568 223.2112c-4.184265 -0.6279907 -8.689575 -0.8825073 -13.516235 0l0 5.249054l13.516235 0l0 -5.249054z" fill-rule="evenodd"/>
        <path stroke="#000000" stroke-width="1.3333333333333333" stroke-miterlimit="800.0" stroke-linecap="butt" d="m594.5568 223.2112c-4.184265 -0.6279907 -8.689575 -0.8825073 -13.516235 0l0 5.249054l13.516235 0l0 -5.249054z" fill-rule="evenodd"/>
        <path fill="#3f3f3f" d="m668.7755 258.65793l0 -15.634048c-1.6141968 -14.3559265 -16.974548 -14.588043 -20.641357 -14.588043c-24.008484 0 -48.016846 1.0681152E-4 -72.02533 1.0681152E-4l0 0l0 39.530212l0 0c28.038574 0 56.88275 -0.47409058 84.92139 -0.47409058c3.666809 0 7.4224243 -4.555542 7.7453003 -8.834137z" fill-rule="evenodd"/>
        <path stroke="#000000" stroke-width="1.3333333333333333" stroke-miterlimit="800.0" stroke-linecap="butt" d="m668.7755 258.65793l0 -15.634048c-1.6141968 -14.3559265 -16.974548 -14.588043 -20.641357 -14.588043c-24.008484 0 -48.016846 1.0681152E-4 -72.02533 1.0681152E-4l0 0l0 39.530212l0 0c28.038574 0 56.88275 -0.47409058 84.92139 -0.47409058c3.666809 0 7.4224243 -4.555542 7.7453003 -8.834137z" fill-rule="evenodd"/>
        <path fill="#757070" d="m628.77734 271.50696c6.835022 0.4486084 14.19458 0.6304321 22.078918 0l0 -3.7496643l-22.078918 0l0 3.7496643z" fill-rule="evenodd"/>
        <path stroke="#000000" stroke-width="1.3333333333333333" stroke-miterlimit="800.0" stroke-linecap="butt" d="m628.77734 271.50696c6.835022 0.4486084 14.19458 0.6304321 22.078918 0l0 -3.7496643l-22.078918 0l0 3.7496643z" fill-rule="evenodd"/>
        <path fill="#757070" d="m586.5527 271.64517c6.8309326 0.4459839 14.186035 0.6267395 22.065613 0l0 -3.7278748l-22.065613 0l0 3.7278748z" fill-rule="evenodd"/>
        <path stroke="#000000" stroke-width="1.3333333333333333" stroke-miterlimit="800.0" stroke-linecap="butt" d="m586.5527 271.64517c6.8309326 0.4459839 14.186035 0.6267395 22.065613 0l0 -3.7278748l-22.065613 0l0 3.7278748z" fill-rule="evenodd"/>
        <path fill="#757070" d="m613.0902 273.4041l12.755127 -9.1552734E-5c2.6029053 -1.4171448 5.0462036 -2.6175537 6.3720703 -5.830017l-25.86554 0.23165894c1.2862549 2.9134521 3.5321655 4.929077 6.7383423 5.5984497z" fill-rule="evenodd"/>
        <path stroke="#000000" stroke-width="1.3333333333333333" stroke-miterlimit="800.0" stroke-linecap="butt" d="m613.0902 273.4041l12.755127 -9.1552734E-5c2.6029053 -1.4171448 5.0462036 -2.6175537 6.3720703 -5.830017l-25.86554 0.23165894c1.2862549 2.9134521 3.5321655 4.929077 6.7383423 5.5984497z" fill-rule="evenodd"/>
        <path id="rightBumper" fill="#ffffff" d="m598.1666 261.3181l61.413574 -1.2207031E-4c3.3754272 -0.96191406 5.675171 -2.4570312 6.3153687 -5.833069l0 -9.965927l0 0l-74.55646 0l0 0l0 9.485855c0.80181885 3.05365 2.8118896 5.182831 6.8275146 6.313263z" fill-rule="evenodd"/>
        <path stroke="#000000" stroke-width="1.3333333333333333" stroke-miterlimit="800.0" stroke-linecap="butt" d="m598.1666 261.3181l61.413574 -1.2207031E-4c3.3754272 -0.96191406 5.675171 -2.4570312 6.3153687 -5.833069l0 -9.965927l0 0l-74.55646 0l0 0l0 9.485855c0.80181885 3.05365 2.8118896 5.182831 6.8275146 6.313263z" fill-rule="evenodd"/>
        <path id="rightTrigger" fill="#ffffff" d="m628.8972 207.60188l-19.195923 0.12019348c-12.111572 1.9078827 -17.979858 17.424316 -18.09552 28.297913l0 0l67.33014 0c-10.332825 -26.443512 -26.58551 -28.071213 -30.038696 -28.418106z" fill-rule="evenodd"/>
        <path stroke="#000000" stroke-width="1.3333333333333333" stroke-miterlimit="800.0" stroke-linecap="butt" d="m628.8972 207.60188l-19.195923 0.12019348c-12.111572 1.9078827 -17.979858 17.424316 -18.09552 28.297913l0 0l67.33014 0c-10.332825 -26.443512 -26.58551 -28.071213 -30.038696 -28.418106z" fill-rule="evenodd"/>
        <path fill="#000000" fill-opacity="0.0"
              d="m632.4788 285.4261c-11.986755 6.5061646 -21.732056 1.9846191 -25.873291 -0.16000366c-1.9642944 0 0.8512573 -0.16836548 -4.751953 -0.048919678c-5.5515137 -2.2970276 -3.9212036 -7.4690247 -2.4407349 -8.323761l10.19458 0c2.6777954 -0.26538086 4.8929443 1.3736572 5.071472 -3.1843262c2.420044 -0.54629517 7.2422485 -0.35913086 9.448669 -0.09375c1.210022 4.1415405 1.4593506 2.9876099 4.590637 3.2780762l11.04657 0c2.2402344 4.163666 -0.5018921 6.957062 -1.7802734 8.337097c-3.361023 -0.27630615 -3.5414429 0.19558716 -5.5056763 0.19558716z"
              fill-rule="evenodd"/>
        <path stroke="#000000" stroke-width="1.3333333333333333" stroke-miterlimit="800.0" stroke-linecap="butt"
              d="m632.4788 285.4261c-11.986755 6.5061646 -21.732056 1.9846191 -25.873291 -0.16000366c-1.9642944 0 0.8512573 -0.16836548 -4.751953 -0.048919678c-5.5515137 -2.2970276 -3.9212036 -7.4690247 -2.4407349 -8.323761l10.19458 0c2.6777954 -0.26538086 4.8929443 1.3736572 5.071472 -3.1843262c2.420044 -0.54629517 7.2422485 -0.35913086 9.448669 -0.09375c1.210022 4.1415405 1.4593506 2.9876099 4.590637 3.2780762l11.04657 0c2.2402344 4.163666 -0.5018921 6.957062 -1.7802734 8.337097c-3.361023 -0.27630615 -3.5414429 0.19558716 -5.5056763 0.19558716z"
              fill-rule="evenodd"/>
        <path fill="#000000" fill-opacity="0.0" d="m605.3888 243.28189l28.0 0l0 24.28009l-28.0 0z" fill-rule="evenodd"/>
        <path fill="#000000"
              d="m615.0294 255.60188l0 -6.203125l2.625 0q1.0 0 1.4375 0.171875q0.453125 0.171875 0.71875 0.59375q0.28125 0.421875 0.28125 0.984375q0 0.6875 -0.421875 1.140625q-0.40625 0.453125 -1.21875 0.578125q0.40625 0.234375 0.671875 0.515625q0.265625 0.28125 0.71875 1.015625l0.75 1.203125l-1.5 0l-0.90625 -1.34375q-0.46875 -0.734375 -0.65625 -0.921875q-0.171875 -0.1875 -0.375 -0.25q-0.203125 -0.078125 -0.625 -0.078125l-0.25 0l0 2.59375l-1.25 0zm1.25 -3.578125l0.921875 0q0.90625 0 1.125 -0.078125q0.21875 -0.078125 0.34375 -0.25q0.125 -0.1875 0.125 -0.46875q0 -0.3125 -0.171875 -0.5q-0.15625 -0.203125 -0.453125 -0.25q-0.15625 -0.015625 -0.921875 -0.015625l-0.96875 0l0 1.5625z"
              fill-rule="nonzero"/>
        <path fill="#000000" fill-opacity="0.0" d="m602.8288 213.84189l36.0 0l0 24.266663l-36.0 0z" fill-rule="evenodd"/>
        <path fill="#000000"
              d="m611.92255 226.1619l0 -1.125l3.25 -4.015625l-2.890625 0l0 -1.0625l4.546875 0l0 0.984375l-3.390625 4.171875l3.515625 0l0 1.046875l-5.03125 0zm5.8344116 0l0 -6.203125l2.625 0q1.0 0 1.4375 0.171875q0.453125 0.171875 0.71875 0.59375q0.28125 0.421875 0.28125 0.984375q0 0.6875 -0.421875 1.140625q-0.40625 0.453125 -1.21875 0.578125q0.40625 0.234375 0.671875 0.515625q0.265625 0.28125 0.71875 1.015625l0.75 1.203125l-1.5 0l-0.90625 -1.34375q-0.46875 -0.734375 -0.65625 -0.921875q-0.171875 -0.1875 -0.375 -0.25q-0.203125 -0.078125 -0.625 -0.078125l-0.25 0l0 2.59375l-1.25 0zm1.25 -3.578125l0.921875 0q0.90625 0 1.125 -0.078125q0.21875 -0.078125 0.34375 -0.25q0.125 -0.1875 0.125 -0.46875q0 -0.3125 -0.171875 -0.5q-0.15625 -0.203125 -0.453125 -0.25q-0.15625 -0.015625 -0.921875 -0.015625l-0.96875 0l0 1.5625z"
              fill-rule="nonzero"/>
        <path fill="#000000" fill-opacity="0.0" d="m518.37524 352.6739l-8.600525 8.0034485c0 6.658325 -3.0733032 -16.790466 -9.737061 -16.790466l-8.890564 -7.409851c-35.13565 0 -32.68982 38.700287 -32.68982 3.5933838c0 -0.57714844 -4.4401245 -2.9830017 -4.4401245 -3.5601501c11.4331665 -27.112335 31.33432 -38.70459 66.46997 -38.70459l7.30896 -0.8572693c6.6637573 0 -9.420837 49.06717 -9.420837 55.725494z" fill-rule="evenodd"/>
        <path stroke="#000000" stroke-width="1.3333333333333333" stroke-miterlimit="800.0" stroke-linecap="butt" d="m518.37524 352.6739l-8.600525 8.0034485c0 6.658325 -3.0733032 -16.790466 -9.737061 -16.790466l-8.890564 -7.409851c-35.13565 0 -32.68982 38.700287 -32.68982 3.5933838c0 -0.57714844 -4.4401245 -2.9830017 -4.4401245 -3.5601501c11.4331665 -27.112335 31.33432 -38.70459 66.46997 -38.70459l7.30896 -0.8572693c6.6637573 0 -9.420837 49.06717 -9.420837 55.725494z" fill-rule="evenodd"/>
        <path fill="#757070" d="m547.29016 316.3286l0.04321289 248.87726c0 8.632324 0.9168091 20.213623 -7.71698 20.213623c-13.114563 0.19036865 -20.453064 -0.1340332 -33.567657 0.05633545c-25.900787 0 -52.553894 -29.494812 -52.553894 -55.391296l1.2207031E-4 -178.31424c0 -25.896484 30.178894 -51.07184 56.07968 -51.07184l30.125427 0c8.633789 0 7.590088 6.9978333 7.590088 15.630157z" fill-rule="evenodd"/>
        <path stroke="#000000" stroke-width="1.3333333333333333" stroke-miterlimit="800.0" stroke-linecap="butt" d="m547.29016 316.3286l0.04321289 248.87726c0 8.632324 0.9168091 20.213623 -7.71698 20.213623c-13.114563 0.19036865 -20.453064 -0.1340332 -33.567657 0.05633545c-25.900787 0 -52.553894 -29.494812 -52.553894 -55.391296l1.2207031E-4 -178.31424c0 -25.896484 30.178894 -51.07184 56.07968 -51.07184l30.125427 0c8.633789 0 7.590088 6.9978333 7.590088 15.630157z" fill-rule="evenodd"/>
        <path id="dpadRight" fill="#ffffff" d="m514.7306 451.66238l0 0c0 -5.9627075 4.831299 -10.796417 10.790955 -10.796417l0 0c2.8619385 0 5.6066895 1.1374512 7.630371 3.162201c2.0236816 2.0247192 3.1605835 4.7708435 3.1605835 7.6342163l0 0c0 5.9627075 -4.831238 10.796448 -10.790955 10.796448l0 0c-5.959656 0 -10.790955 -4.83374 -10.790955 -10.796448z" fill-rule="evenodd"/>
        <path stroke="#000000" stroke-width="1.3333333333333333" stroke-miterlimit="800.0" stroke-linecap="butt" d="m514.7306 451.66238l0 0c0 -5.9627075 4.831299 -10.796417 10.790955 -10.796417l0 0c2.8619385 0 5.6066895 1.1374512 7.630371 3.162201c2.0236816 2.0247192 3.1605835 4.7708435 3.1605835 7.6342163l0 0c0 5.9627075 -4.831238 10.796448 -10.790955 10.796448l0 0c-5.959656 0 -10.790955 -4.83374 -10.790955 -10.796448z" fill-rule="evenodd"/>
        <path id="dpadUp" fill="#ffffff" d="m491.55002 430.86926l0 0c0 -5.9627075 4.8312683 -10.796448 10.790955 -10.796448l0 0c2.8619385 0 5.606659 1.1374817 7.630371 3.162201c2.0236816 2.0247192 3.160614 4.7708435 3.160614 7.634247l0 0c0 5.9627075 -4.831299 10.796417 -10.790985 10.796417l0 0c-5.9596863 0 -10.790955 -4.8337097 -10.790955 -10.796417z" fill-rule="evenodd"/>
        <path stroke="#000000" stroke-width="1.3333333333333333" stroke-miterlimit="800.0" stroke-linecap="butt" d="m491.55002 430.86926l0 0c0 -5.9627075 4.8312683 -10.796448 10.790955 -10.796448l0 0c2.8619385 0 5.606659 1.1374817 7.630371 3.162201c2.0236816 2.0247192 3.160614 4.7708435 3.160614 7.634247l0 0c0 5.9627075 -4.831299 10.796417 -10.790985 10.796417l0 0c-5.9596863 0 -10.790955 -4.8337097 -10.790955 -10.796417z" fill-rule="evenodd"/>
        <path id="dpadDown" fill="#ffffff" d="m491.55002 473.25525l0 0c0 -5.9627075 4.8312683 -10.796417 10.790955 -10.796417l0 0c2.8619385 0 5.606659 1.1374817 7.630371 3.162201c2.0236816 2.0247192 3.160614 4.7708435 3.160614 7.6342163l0 0c0 5.9627075 -4.831299 10.796448 -10.790985 10.796448l0 0c-5.9596863 0 -10.790955 -4.83374 -10.790955 -10.796448z" fill-rule="evenodd"/>
        <path stroke="#000000" stroke-width="1.3333333333333333" stroke-miterlimit="800.0" stroke-linecap="butt" d="m491.55002 473.25525l0 0c0 -5.9627075 4.8312683 -10.796417 10.790955 -10.796417l0 0c2.8619385 0 5.606659 1.1374817 7.630371 3.162201c2.0236816 2.0247192 3.160614 4.7708435 3.160614 7.6342163l0 0c0 5.9627075 -4.831299 10.796448 -10.790985 10.796448l0 0c-5.9596863 0 -10.790955 -4.83374 -10.790955 -10.796448z" fill-rule="evenodd"/>
        <path id="dpadLeft" fill="#ffffff" d="m469.16876 451.66238l0 0c0 -5.9627075 4.8312683 -10.796417 10.790955 -10.796417l0 0c2.8619385 0 5.606659 1.1374512 7.630371 3.162201c2.0236816 2.0247192 3.1605835 4.7708435 3.1605835 7.6342163l0 0c0 5.9627075 -4.8312683 10.796448 -10.790955 10.796448l0 0c-5.9596863 0 -10.790955 -4.83374 -10.790955 -10.796448z" fill-rule="evenodd"/>
        <path stroke="#000000" stroke-width="1.3333333333333333" stroke-miterlimit="800.0" stroke-linecap="butt" d="m469.16876 451.66238l0 0c0 -5.9627075 4.8312683 -10.796417 10.790955 -10.796417l0 0c2.8619385 0 5.606659 1.1374512 7.630371 3.162201c2.0236816 2.0247192 3.1605835 4.7708435 3.1605835 7.6342163l0 0c0 5.9627075 -4.8312683 10.796448 -10.790955 10.796448l0 0c-5.9596863 0 -10.790955 -4.83374 -10.790955 -10.796448z" fill-rule="evenodd"/>
        <path id="backButton" fill="#ffffff" d="m522.83813 325.247l16.993652 0l0 5.6674194l-16.993652 0z" fill-rule="evenodd"/>
        <path stroke="#000000" stroke-width="1.3333333333333333" stroke-miterlimit="800.0" stroke-linecap="butt" d="m522.83813 325.247l16.993652 0l0 5.6674194l-16.993652 0z" fill-rule="evenodd"/>
        <path id="" fill="#ffffff" d="m509.70624 496.04773l17.748901 0l0 17.757935l-17.748901 0z" fill-rule="evenodd"/>
        <path stroke="#000000" stroke-width="1.3333333333333333" stroke-miterlimit="800.0" stroke-linecap="butt" d="m509.70624 496.04773l17.748901 0l0 17.757935l-17.748901 0z" fill-rule="evenodd"/>
        <path fill="#3f3f3f" d="m499.73276 432.0617l2.8528748 -4.911743l2.8529053 4.911743z" fill-rule="evenodd"/>
        <path stroke="#3f3f3f" stroke-width="1.3333333333333333" stroke-miterlimit="800.0" stroke-linecap="butt" d="m499.73276 432.0617l2.8528748 -4.911743l2.8529053 4.911743z" fill-rule="evenodd"/>
        <path fill="#3f3f3f" d="m499.73276 470.62433l2.8528748 4.911743l2.8529053 -4.911743z" fill-rule="evenodd"/>
        <path stroke="#3f3f3f" stroke-width="1.3333333333333333" stroke-miterlimit="800.0" stroke-linecap="butt" d="m499.73276 470.62433l2.8528748 4.911743l2.8529053 -4.911743z" fill-rule="evenodd"/>
        <path fill="#3f3f3f" d="m523.3221 454.01947l4.9093018 -2.8543396l-4.9093018 -2.8543396z" fill-rule="evenodd"/>
        <path stroke="#3f3f3f" stroke-width="1.3333333333333333" stroke-miterlimit="800.0" stroke-linecap="butt" d="m523.3221 454.01947l4.9093018 -2.8543396l-4.9093018 -2.8543396z" fill-rule="evenodd"/>
        <path fill="#3f3f3f" d="m481.8492 448.73166l-4.9092712 2.8543396l4.9092712 2.854309z" fill-rule="evenodd"/>
        <path stroke="#3f3f3f" stroke-width="1.3333333333333333" stroke-miterlimit="800.0" stroke-linecap="butt" d="m481.8492 448.73166l-4.9092712 2.8543396l4.9092712 2.854309z" fill-rule="evenodd"/>
        <path fill="#000000" fill-opacity="0.0" d="m513.23376 504.72623l0 0c0 -3.1300354 2.5361328 -5.6674194 5.664551 -5.6674194l0 0c1.5023804 0 2.9431763 0.59710693 4.005432 1.6599426c1.0623169 1.0628662 1.6591187 2.5043945 1.6591187 4.007477l0 0c0 3.1300354 -2.5360718 5.6674194 -5.664551 5.6674194l0 0c-3.128418 0 -5.664551 -2.537384 -5.664551 -5.6674194z" fill-rule="evenodd"/>
        <path stroke="#3f3f3f" stroke-width="1.0" stroke-miterlimit="800.0" stroke-linecap="butt" d="m513.23376 504.72623l0 0c0 -3.1300354 2.5361328 -5.6674194 5.664551 -5.6674194l0 0c1.5023804 0 2.9431763 0.59710693 4.005432 1.6599426c1.0623169 1.0628662 1.6591187 2.5043945 1.6591187 4.007477l0 0c0 3.1300354 -2.5360718 5.6674194 -5.664551 5.6674194l0 0c-3.128418 0 -5.664551 -2.537384 -5.664551 -5.6674194z" fill-rule="evenodd"/>
        <path fill="#000000" fill-opacity="0.0" d="m502.56293 349.90543l0 45.72223" fill-rule="evenodd"/>
        <path stroke="#757070" stroke-width="1.0" stroke-miterlimit="800.0" stroke-linecap="butt" d="m502.56293 349.90543l0 45.72223" fill-rule="evenodd"/>
        <path fill="#000000" fill-opacity="0.0" d="m479.89252 372.40778l45.72998 0" fill-rule="evenodd"/>
        <path stroke="#757070" stroke-width="1.0" stroke-miterlimit="800.0" stroke-linecap="butt" d="m479.89252 372.40778l45.72998 0" fill-rule="evenodd"/>
        <g filter="url(#shadowFilter-p_1.1)">
            <use xlink:href="#p_1.1" transform="matrix(1.02 0.0 0.0 1.02 -10.060829690539078 -7.4408979908637445)"/>
        </g>
        <defs>
            <filter id="shadowFilter-p_1.1" filterUnits="userSpaceOnUse">
                <feGaussianBlur in="SourceAlpha" stdDeviation="2.2222223" result="blur"/>
                <feComponentTransfer in="blur" color-interpolation-filters="sRGB">
                    <feFuncR type="linear" slope="0" intercept="0.0"/>
                    <feFuncG type="linear" slope="0" intercept="0.0"/>
                    <feFuncB type="linear" slope="0" intercept="0.0"/>
                    <feFuncA type="linear" slope="0.4" intercept="0"/>
                </feComponentTransfer>
            </filter>
        </defs>
        <g id="p_1.1">
            <path id="leftStick" fill="#ffffff" d="m486.8031 372.0449l0 0c0 -8.972748 7.270172 -16.246582 16.238373 -16.246582l0 0c4.3067017 0 8.436981 1.7116699 11.482269 4.7585144c3.045288 3.046814 4.7561035 7.179199 4.7561035 11.488068l0 0c0 8.972748 -7.2701416 16.246613 -16.238373 16.246613l0 0c-8.968201 0 -16.238373 -7.2738647 -16.238373 -16.246613z" fill-rule="evenodd"/>
            <path stroke="#757070" stroke-width="1.0" stroke-miterlimit="800.0" stroke-linecap="butt" d="m486.8031 372.0449l0 0c0 -8.972748 7.270172 -16.246582 16.238373 -16.246582l0 0c4.3067017 0 8.436981 1.7116699 11.482269 4.7585144c3.045288 3.046814 4.7561035 7.179199 4.7561035 11.488068l0 0c0 8.972748 -7.2701416 16.246613 -16.238373 16.246613l0 0c-8.968201 0 -16.238373 -7.2738647 -16.238373 -16.246613z" fill-rule="evenodd"/>
        </g>
        <path fill="#000000" fill-opacity="0.0" d="m602.9883 352.76288l8.597473 8.002838c0 6.657776 3.0722046 -16.789124 9.733582 -16.789124l8.887329 -7.4092712c35.123047 0 32.6781 38.697205 32.6781 3.5931091c0 -0.5770874 4.4385376 -2.982788 4.4385376 -3.5598755c-11.429077 -27.110168 -31.32306 -38.701508 -66.446106 -38.701508c-2.8530273 0 -5.7060547 -9.1552734E-5 -8.559082 -9.1552734E-5c-6.661377 0 10.670166 48.206146 10.670166 54.863922z" fill-rule="evenodd"/>
        <path stroke="#000000" stroke-width="1.3333333333333333" stroke-miterlimit="800.0" stroke-linecap="butt"
              d="m602.9883 352.76288l8.597473 8.002838c0 6.657776 3.0722046 -16.789124 9.733582 -16.789124l8.887329 -7.4092712c35.123047 0 32.6781 38.697205 32.6781 3.5931091c0 -0.5770874 4.4385376 -2.982788 4.4385376 -3.5598755c-11.429077 -27.110168 -31.32306 -38.701508 -66.446106 -38.701508c-2.8530273 0 -5.7060547 -9.1552734E-5 -8.559082 -9.1552734E-5c-6.661377 0 10.670166 48.206146 10.670166 54.863922z" fill-rule="evenodd"/>
        <path fill="#757070" d="m575.22955 316.92804l-0.043273926 248.89362c0 8.632874 -0.9168091 20.214966 7.71698 20.214966c13.114624 0.19036865 20.453125 -0.13409424 33.567688 0.05633545c25.900818 0 52.553894 -29.496765 52.553894 -55.39496l-1.2207031E-4 -178.32596c0 -25.898163 -30.178894 -51.075195 -56.07965 -51.075195l-30.125488 0c-8.633728 0 -7.590027 6.998291 -7.590027 15.631195z" fill-rule="evenodd"/>
        <path stroke="#000000" stroke-width="1.3333333333333333" stroke-miterlimit="800.0" stroke-linecap="butt" d="m575.22955 316.92804l-0.043273926 248.89362c0 8.632874 -0.9168091 20.214966 7.71698 20.214966c13.114624 0.19036865 20.453125 -0.13409424 33.567688 0.05633545c25.900818 0 52.553894 -29.496765 52.553894 -55.39496l-1.2207031E-4 -178.32596c0 -25.898163 -30.178894 -51.075195 -56.07965 -51.075195l-30.125488 0c-8.633728 0 -7.590027 6.998291 -7.590027 15.631195z" fill-rule="evenodd"/>
        <path id="" fill="#ffffff" d="m591.1826 505.5194l0 0c0 -6.460724 5.237976 -11.698181 11.699341 -11.698181l0 0c3.1029053 0 6.0786743 1.2324829 8.272766 3.4263306c2.1940308 2.1938171 3.4266357 5.1693115 3.4266357 8.271851l0 0c0 6.4607544 -5.237976 11.698242 -11.699402 11.698242l0 0c-6.4613647 0 -11.699341 -5.237488 -11.699341 -11.698242z" fill-rule="evenodd"/>
        <path stroke="#000000" stroke-width="1.3333333333333333" stroke-miterlimit="800.0" stroke-linecap="butt" d="m591.1826 505.5194l0 0c0 -6.460724 5.237976 -11.698181 11.699341 -11.698181l0 0c3.1029053 0 6.0786743 1.2324829 8.272766 3.4263306c2.1940308 2.1938171 3.4266357 5.1693115 3.4266357 8.271851l0 0c0 6.4607544 -5.237976 11.698242 -11.699402 11.698242l0 0c-6.4613647 0 -11.699341 -5.237488 -11.699341 -11.698242z" fill-rule="evenodd"/>
        <path id="aButton" fill="#ffffff" d="m630.9062 372.29703l0 0c0 -5.9637756 4.835083 -10.79834 10.799438 -10.79834l0 0c2.8641968 0 5.611084 1.1376648 7.6364136 3.1627502c2.0252686 2.0250854 3.163086 4.7716675 3.163086 7.6355896l0 0c0 5.963745 -4.835083 10.79834 -10.7994995 10.79834l0 0c-5.9643555 0 -10.799438 -4.8345947 -10.799438 -10.79834z" fill-rule="evenodd"/>
        <path stroke="#000000" stroke-width="1.3333333333333333" stroke-miterlimit="800.0" stroke-linecap="butt" d="m630.9062 372.29703l0 0c0 -5.9637756 4.835083 -10.79834 10.799438 -10.79834l0 0c2.8641968 0 5.611084 1.1376648 7.6364136 3.1627502c2.0252686 2.0250854 3.163086 4.7716675 3.163086 7.6355896l0 0c0 5.963745 -4.835083 10.79834 -10.7994995 10.79834l0 0c-5.9643555 0 -10.799438 -4.8345947 -10.799438 -10.79834z" fill-rule="evenodd"/>
        <path id="xButton" fill="#ffffff" d="m607.7074 351.5002l0 0c0 -5.9637756 4.835083 -10.79834 10.799438 -10.79834l0 0c2.8641968 0 5.611084 1.1376648 7.6363525 3.1627502c2.0253296 2.0250854 3.163086 4.771698 3.163086 7.6355896l0 0c0 5.963745 -4.835083 10.79834 -10.799438 10.79834l0 0c-5.9643555 0 -10.799438 -4.8345947 -10.799438 -10.79834z" fill-rule="evenodd"/>
        <path stroke="#000000" stroke-width="1.3333333333333333" stroke-miterlimit="800.0" stroke-linecap="butt" d="m607.7074 351.5002l0 0c0 -5.9637756 4.835083 -10.79834 10.799438 -10.79834l0 0c2.8641968 0 5.611084 1.1376648 7.6363525 3.1627502c2.0253296 2.0250854 3.163086 4.771698 3.163086 7.6355896l0 0c0 5.963745 -4.835083 10.79834 -10.799438 10.79834l0 0c-5.9643555 0 -10.799438 -4.8345947 -10.799438 -10.79834z" fill-rule="evenodd"/>
        <path id="bButton" fill="#ffffff" d="m607.7074 393.8937l0 0c0 -5.9637756 4.835083 -10.79834 10.799438 -10.79834l0 0c2.8641968 0 5.611084 1.1376648 7.6363525 3.1627502c2.0253296 2.0250854 3.163086 4.7716675 3.163086 7.6355896l0 0c0 5.963745 -4.835083 10.79834 -10.799438 10.79834l0 0c-5.9643555 0 -10.799438 -4.8345947 -10.799438 -10.79834z" fill-rule="evenodd"/>
        <path stroke="#000000" stroke-width="1.3333333333333333" stroke-miterlimit="800.0" stroke-linecap="butt" d="m607.7074 393.8937l0 0c0 -5.9637756 4.835083 -10.79834 10.799438 -10.79834l0 0c2.8641968 0 5.611084 1.1376648 7.6363525 3.1627502c2.0253296 2.0250854 3.163086 4.7716675 3.163086 7.6355896l0 0c0 5.963745 -4.835083 10.79834 -10.799438 10.79834l0 0c-5.9643555 0 -10.799438 -4.8345947 -10.799438 -10.79834z" fill-rule="evenodd"/>
        <path id="yButton" fill="#ffffff" d="m585.30853 372.29703l0 0c0 -5.9637756 4.835083 -10.79834 10.7994995 -10.79834l0 0c2.8641357 0 5.611023 1.1376648 7.6363525 3.1627502c2.0252686 2.0250854 3.163086 4.7716675 3.163086 7.6355896l0 0c0 5.963745 -4.835083 10.79834 -10.799438 10.79834l0 0c-5.9644165 0 -10.7994995 -4.8345947 -10.7994995 -10.79834z" fill-rule="evenodd"/>
        <path stroke="#000000" stroke-width="1.3333333333333333" stroke-miterlimit="800.0" stroke-linecap="butt" d="m585.30853 372.29703l0 0c0 -5.9637756 4.835083 -10.79834 10.7994995 -10.79834l0 0c2.8641357 0 5.611023 1.1376648 7.6363525 3.1627502c2.0252686 2.0250854 3.163086 4.7716675 3.163086 7.6355896l0 0c0 5.963745 -4.835083 10.79834 -10.799438 10.79834l0 0c-5.9644165 0 -10.7994995 -4.8345947 -10.7994995 -10.79834z" fill-rule="evenodd"/>
        <path id="startButton" fill="#ffffff" d="m581.3088 326.17487l6.04126 0l0 -6.0412903l4.9244385 0l0 6.0412903l6.04126 0l0 4.922699l-6.04126 0l0 6.0412903l-4.9244385 0l0 -6.0412903l-6.04126 0z" fill-rule="evenodd"/>
        <path stroke="#000000" stroke-width="1.3333333333333333" stroke-miterlimit="800.0" stroke-linecap="butt" d="m581.3088 326.17487l6.04126 0l0 -6.0412903l4.9244385 0l0 6.0412903l6.04126 0l0 4.922699l-6.04126 0l0 6.0412903l-4.9244385 0l0 -6.0412903l-6.04126 0z" fill-rule="evenodd"/>
        <path fill="#000000" fill-opacity="0.0" d="m618.0468 429.73206l0 45.34738" fill-rule="evenodd"/>
        <path stroke="#757070" stroke-width="1.0" stroke-miterlimit="800.0" stroke-linecap="butt" d="m618.0468 429.73206l0 45.34738" fill-rule="evenodd"/>
        <path fill="#000000" fill-opacity="0.0" d="m595.5804 452.03625l45.35199 0" fill-rule="evenodd"/>
        <path stroke="#757070" stroke-width="1.0" stroke-miterlimit="800.0" stroke-linecap="butt" d="m595.5804 452.03625l45.35199 0" fill-rule="evenodd"/>
        <g filter="url(#shadowFilter-p_1.2)">
            <use xlink:href="#p_1.2" transform="matrix(1.02 0.0 0.0 1.02 -12.366139327370705 -9.041883921992428)"/>
        </g>
        <defs>
            <filter id="shadowFilter-p_1.2" filterUnits="userSpaceOnUse">
                <feGaussianBlur in="SourceAlpha" stdDeviation="2.2222223" result="blur"/>
                <feComponentTransfer in="blur" color-interpolation-filters="sRGB">
                    <feFuncR type="linear" slope="0" intercept="0.0"/>
                    <feFuncG type="linear" slope="0" intercept="0.0"/>
                    <feFuncB type="linear" slope="0" intercept="0.0"/>
                    <feFuncA type="linear" slope="0.4" intercept="0"/>
                </feComponentTransfer>
            </filter>
        </defs>
        <g id="p_1.2">
            <path id="rightStick" fill="#f2f2f2" d="m602.05585 452.0942l0 0c0 -8.974335 7.275879 -16.249481 16.251099 -16.249481l0 0c4.3100586 0 8.4436035 1.7120056 11.491333 4.759369c3.0476685 3.0473633 4.7598267 7.180481 4.7598267 11.490112l0 0c0 8.974335 -7.275879 16.24945 -16.25116 16.24945l0 0c-8.97522 0 -16.251099 -7.275116 -16.251099 -16.24945z" fill-rule="evenodd"/>
            <path stroke="#757070" stroke-width="1.0" stroke-miterlimit="800.0" stroke-linecap="butt" d="m602.05585 452.0942l0 0c0 -8.974335 7.275879 -16.249481 16.251099 -16.249481l0 0c4.3100586 0 8.4436035 1.7120056 11.491333 4.759369c3.0476685 3.0473633 4.7598267 7.180481 4.7598267 11.490112l0 0c0 8.974335 -7.275879 16.24945 -16.25116 16.24945l0 0c-8.97522 0 -16.251099 -7.275116 -16.251099 -16.24945z" fill-rule="evenodd"/>
        </g>
        <path fill="#3f3f3f" d="m597.1974 504.72086l5.857971 -4.912628l5.857971 4.912628l-1.4714355 0l0 4.912628l-8.77301 0l0 -4.912628z" fill-rule="evenodd"/>
        <path stroke="#3f3f3f" stroke-width="1.0" stroke-miterlimit="800.0" stroke-linecap="butt" d="m597.1974 504.72086l5.857971 -4.912628l5.857971 4.912628l-1.4714355 0l0 4.912628l-8.77301 0l0 -4.912628z" fill-rule="evenodd"/>
        <path id="" fill="#ffffff" d="m601.1172 505.00732l3.779358 0l0 2.6452637l-3.779358 0z" fill-rule="evenodd"/>
        <path stroke="#000000" stroke-width="1.0" stroke-miterlimit="800.0" stroke-linecap="butt" d="m601.1172 505.00732l3.779358 0l0 2.6452637l-3.779358 0z" fill-rule="evenodd"/>
        <path fill="#000000" fill-opacity="0.0" d="m604.1464 335.93115l27.731934 0l0 31.267212l-27.731934 0z" fill-rule="evenodd"/>
        <path fill="#404040"
              d="m621.4589 354.50992q0.140625 0.28125 0.171875 0.453125q0.046875 0.15625 -0.046875 0.25q-0.09375 0.078125 -0.34375 0.09375q-0.234375 0.03125 -0.671875 0.03125q-0.375 0 -0.59375 -0.015625q-0.203125 -0.015625 -0.328125 -0.046875q-0.109375 -0.046875 -0.171875 -0.109375q-0.046875 -0.0625 -0.09375 -0.15625l-1.890625 -3.640625l-1.890625 3.640625q-0.046875 0.09375 -0.109375 0.15625q-0.046875 0.0625 -0.171875 0.109375q-0.125 0.03125 -0.34375 0.046875q-0.203125 0.015625 -0.5625 0.015625q-0.40625 0 -0.625 -0.03125q-0.21875 -0.015625 -0.296875 -0.09375q-0.078125 -0.09375 -0.03125 -0.25q0.046875 -0.171875 0.1875 -0.453125l2.421875 -4.40625l-2.25 -4.15625q-0.140625 -0.28125 -0.1875 -0.4375q-0.046875 -0.171875 0.03125 -0.25q0.09375 -0.09375 0.328125 -0.109375q0.25 -0.015625 0.703125 -0.015625q0.359375 0 0.578125 0.015625q0.21875 0.015625 0.34375 0.046875q0.125 0.03125 0.171875 0.09375q0.046875 0.0625 0.09375 0.15625l1.78125 3.34375l1.71875 -3.34375q0.046875 -0.09375 0.09375 -0.15625q0.0625 -0.0625 0.171875 -0.09375q0.109375 -0.03125 0.3125 -0.046875q0.203125 -0.015625 0.546875 -0.015625q0.390625 0 0.609375 0.015625q0.234375 0.015625 0.3125 0.109375q0.09375 0.078125 0.046875 0.25q-0.03125 0.15625 -0.171875 0.4375l-2.25 4.125l2.40625 4.4375z"
              fill-rule="nonzero"/>
        <path fill="#000000" fill-opacity="0.0" d="m627.01184 357.16537l27.731873 0l0 31.168121l-27.731873 0z" fill-rule="evenodd"/>
        <path fill="#404040"
              d="m645.40247 375.75977q0.09375 0.28125 0.109375 0.453125q0.03125 0.15625 -0.0625 0.25q-0.078125 0.078125 -0.296875 0.09375q-0.21875 0.015625 -0.609375 0.015625q-0.390625 0 -0.625 -0.015625q-0.21875 0 -0.34375 -0.03125q-0.109375 -0.046875 -0.15625 -0.109375q-0.046875 -0.0625 -0.078125 -0.171875l-0.671875 -2.03125l-3.796875 0l-0.640625 1.984375q-0.03125 0.109375 -0.09375 0.1875q-0.046875 0.0625 -0.15625 0.109375q-0.109375 0.046875 -0.328125 0.0625q-0.203125 0.015625 -0.53125 0.015625q-0.359375 0 -0.5625 -0.03125q-0.203125 -0.015625 -0.28125 -0.109375q-0.078125 -0.09375 -0.0625 -0.25q0.03125 -0.171875 0.125 -0.4375l3.109375 -8.96875q0.046875 -0.140625 0.109375 -0.21875q0.0625 -0.078125 0.203125 -0.125q0.140625 -0.046875 0.375 -0.046875q0.25 -0.015625 0.640625 -0.015625q0.46875 0 0.734375 0.015625q0.28125 0 0.421875 0.046875q0.15625 0.046875 0.21875 0.140625q0.078125 0.078125 0.125 0.21875l3.125 8.96875zm-4.640625 -7.421875l-0.015625 0l-1.421875 4.296875l2.859375 0l-1.421875 -4.296875z"
              fill-rule="nonzero"/>
        <path fill="#000000" fill-opacity="0.0" d="m604.1426 378.39948l27.731873 0l0 28.952728l-27.731873 0z" fill-rule="evenodd"/>
        <path fill="#404040"
              d="m621.56445 394.72824q0 0.53125 -0.15625 0.96875q-0.140625 0.4375 -0.40625 0.78125q-0.25 0.328125 -0.625 0.578125q-0.359375 0.234375 -0.796875 0.390625q-0.4375 0.15625 -0.9375 0.234375q-0.484375 0.078125 -1.09375 0.078125l-2.6875 0q-0.265625 0 -0.4375 -0.15625q-0.171875 -0.15625 -0.171875 -0.5l0 -8.8125q0 -0.34375 0.171875 -0.484375q0.171875 -0.15625 0.4375 -0.15625l2.53125 0q0.9375 0 1.578125 0.15625q0.640625 0.15625 1.078125 0.46875q0.453125 0.3125 0.6875 0.796875q0.234375 0.484375 0.234375 1.140625q0 0.375 -0.09375 0.703125q-0.09375 0.3125 -0.28125 0.578125q-0.171875 0.265625 -0.4375 0.46875q-0.265625 0.203125 -0.59375 0.328125q0.421875 0.078125 0.78125 0.28125q0.375 0.1875 0.640625 0.5q0.265625 0.3125 0.421875 0.734375q0.15625 0.40625 0.15625 0.921875zm-2.65625 -4.265625q0 -0.296875 -0.09375 -0.53125q-0.09375 -0.25 -0.28125 -0.40625q-0.1875 -0.171875 -0.46875 -0.25q-0.28125 -0.09375 -0.765625 -0.09375l-1.03125 0l0 2.625l1.140625 0q0.453125 0 0.71875 -0.09375q0.265625 -0.109375 0.4375 -0.296875q0.171875 -0.1875 0.25 -0.421875q0.09375 -0.25 0.09375 -0.53125zm0.53125 4.328125q0 -0.34375 -0.125 -0.625q-0.109375 -0.28125 -0.34375 -0.46875q-0.21875 -0.1875 -0.578125 -0.28125q-0.34375 -0.109375 -0.90625 -0.109375l-1.21875 0l0 2.875l1.484375 0q0.421875 0 0.71875 -0.078125q0.296875 -0.09375 0.5 -0.265625q0.21875 -0.1875 0.34375 -0.4375q0.125 -0.265625 0.125 -0.609375z"
              fill-rule="nonzero"/>
        <path fill="#000000" fill-opacity="0.0" d="m581.68176 357.5737l27.731934 0l0 29.46164l-27.731934 0z" fill-rule="evenodd"/>
        <path fill="#404040"
              d="m595.86926 373.08997l0 3.5625q0 0.078125 -0.046875 0.140625q-0.046875 0.0625 -0.171875 0.109375q-0.109375 0.03125 -0.3125 0.046875q-0.203125 0.03125 -0.5 0.03125q-0.296875 0 -0.5 -0.03125q-0.1875 -0.015625 -0.3125 -0.046875q-0.125 -0.046875 -0.171875 -0.109375q-0.046875 -0.0625 -0.046875 -0.140625l0 -3.5625l-2.765625 -5.5q-0.140625 -0.296875 -0.1875 -0.453125q-0.046875 -0.15625 0.046875 -0.234375q0.09375 -0.09375 0.328125 -0.109375q0.25 -0.015625 0.671875 -0.015625q0.359375 0 0.578125 0.015625q0.21875 0.015625 0.34375 0.0625q0.125 0.03125 0.171875 0.109375q0.0625 0.0625 0.125 0.171875l1.125 2.484375q0.15625 0.359375 0.3125 0.765625q0.171875 0.390625 0.328125 0.828125l0.015625 0q0.15625 -0.421875 0.3125 -0.8125q0.15625 -0.40625 0.296875 -0.765625l1.109375 -2.46875q0.046875 -0.125 0.09375 -0.1875q0.0625 -0.078125 0.171875 -0.125q0.125 -0.046875 0.328125 -0.0625q0.203125 -0.015625 0.546875 -0.015625q0.4375 0 0.6875 0.015625q0.25 0.015625 0.328125 0.109375q0.09375 0.078125 0.046875 0.25q-0.046875 0.15625 -0.1875 0.4375l-2.765625 5.5z"
              fill-rule="nonzero"/>
        <path id="" fill="#ffffff" d="m601.14777 504.7452l3.7782593 0l0 3.0231628l-3.7782593 0z" fill-rule="evenodd"/>
        <path stroke="#000000" stroke-width="1.0" stroke-miterlimit="800.0" stroke-linecap="butt" d="m601.14777 504.7452l3.7782593 0l0 3.0231628l-3.7782593 0z" fill-rule="evenodd"/>
        <path fill="#000000" fill-opacity="0.0" d="m594.9229 505.56158l0 0c0 -4.491913 3.6265259 -8.133331 8.100037 -8.133331l0 0c2.1482544 0 4.208496 0.8569031 5.727539 2.3821716c1.519043 1.5252991 2.3724365 3.5940552 2.3724365 5.7511597l0 0c0 4.491913 -3.6264648 8.133301 -8.099976 8.133301l0 0c-4.4735107 0 -8.100037 -3.641388 -8.100037 -8.133301z" fill-rule="evenodd"/>
        <path stroke="#3f3f3f" stroke-width="1.0" stroke-miterlimit="800.0" stroke-linecap="butt" d="m594.9229 505.56158l0 0c0 -4.491913 3.6265259 -8.133331 8.100037 -8.133331l0 0c2.1482544 0 4.208496 0.8569031 5.727539 2.3821716c1.519043 1.5252991 2.3724365 3.5940552 2.3724365 5.7511597l0 0c0 4.491913 -3.6264648 8.133301 -8.099976 8.133301l0 0c-4.4735107 0 -8.100037 -3.641388 -8.100037 -8.133301z" fill-rule="evenodd"/>
        <path fill="#757070" d="m527.71704 224.16293c4.1845093 -0.6280365 8.690002 -0.88256836 13.516846 0l0 5.2494507l-13.516846 0l0 -5.2494507z" fill-rule="evenodd"/>
        <path stroke="#000000" stroke-width="1.3333333333333333" stroke-miterlimit="800.0" stroke-linecap="butt" d="m527.71704 224.16293c4.1845093 -0.6280365 8.690002 -0.88256836 13.516846 0l0 5.2494507l-13.516846 0l0 -5.2494507z" fill-rule="evenodd"/>
        <path fill="#3f3f3f" d="m453.49484 259.61237l0 -15.635239c1.6142578 -14.357025 16.975342 -14.589142 20.642334 -14.589142c24.009644 0 48.019135 9.1552734E-5 72.02878 9.1552734E-5l0 0l0 39.53325l0 0c-28.039978 0 -56.885498 -0.4741211 -84.925446 -0.4741211c-3.6669922 0 -7.42276 -4.555908 -7.7456665 -8.834839z" fill-rule="evenodd"/>
        <path stroke="#000000" stroke-width="1.3333333333333333" stroke-miterlimit="800.0" stroke-linecap="butt" d="m453.49484 259.61237l0 -15.635239c1.6142578 -14.357025 16.975342 -14.589142 20.642334 -14.589142c24.009644 0 48.019135 9.1552734E-5 72.02878 9.1552734E-5l0 0l0 39.53325l0 0c-28.039978 0 -56.885498 -0.4741211 -84.925446 -0.4741211c-3.6669922 0 -7.42276 -4.555908 -7.7456665 -8.834839z" fill-rule="evenodd"/>
        <path fill="#757070" d="m493.4949 272.4624c-6.835388 0.4486084 -14.195251 0.63046265 -22.079987 0l0 -3.7499695l22.079987 0l0 3.7499695z" fill-rule="evenodd"/>
        <path stroke="#000000" stroke-width="1.3333333333333333" stroke-miterlimit="800.0" stroke-linecap="butt" d="m493.4949 272.4624c-6.835388 0.4486084 -14.195251 0.63046265 -22.079987 0l0 -3.7499695l22.079987 0l0 3.7499695z" fill-rule="evenodd"/>
        <path fill="#757070" d="m535.72156 272.60062c-6.831238 0.4460144 -14.186707 0.62680054 -22.06665 0l0 -3.72818l22.06665 0l0 3.72818z" fill-rule="evenodd"/>
        <path stroke="#000000" stroke-width="1.3333333333333333" stroke-miterlimit="800.0" stroke-linecap="butt" d="m535.72156 272.60062c-6.831238 0.4460144 -14.186707 0.62680054 -22.06665 0l0 -3.72818l22.06665 0l0 3.72818z" fill-rule="evenodd"/>
        <path fill="#757070" d="m509.1828 274.35968l-12.755737 -9.1552734E-5c-2.6030273 -1.4172363 -5.0464478 -2.6177673 -6.3723755 -5.8304443l25.86676 0.23165894c-1.2863159 2.9136658 -3.5323486 4.929474 -6.7386475 5.598877z" fill-rule="evenodd"/>
        <path stroke="#000000" stroke-width="1.3333333333333333" stroke-miterlimit="800.0" stroke-linecap="butt" d="m509.1828 274.35968l-12.755737 -9.1552734E-5c-2.6030273 -1.4172363 -5.0464478 -2.6177673 -6.3723755 -5.8304443l25.86676 0.23165894c-1.2863159 2.9136658 -3.5323486 4.929474 -6.7386475 5.598877z" fill-rule="evenodd"/>
        <path id="leftBumper" fill="#ffffff" d="m524.10706 262.27277l-61.416504 -1.2207031E-4c-3.3755798 -0.9620056 -5.675415 -2.4572144 -6.3156433 -5.8335266l0 -9.966675l0 0l74.56003 0l0 0l0 9.486572c-0.8018799 3.0538635 -2.8120728 5.1832275 -6.827881 6.313751z" fill-rule="evenodd"/>
        <path stroke="#000000" stroke-width="1.3333333333333333" stroke-miterlimit="800.0" stroke-linecap="butt" d="m524.10706 262.27277l-61.416504 -1.2207031E-4c-3.3755798 -0.9620056 -5.675415 -2.4572144 -6.3156433 -5.8335266l0 -9.966675l0 0l74.56003 0l0 0l0 9.486572c-0.8018799 3.0538635 -2.8120728 5.1832275 -6.827881 6.313751z" fill-rule="evenodd"/>
        <path id="leftTrigger" fill="#ffffff" d="m493.375 208.55244l19.196838 0.12019348c12.112122 1.90802 17.980713 17.425644 18.096375 28.300064l0 0l-67.33331 0c10.3333435 -26.445526 26.586792 -28.073349 30.0401 -28.420258z" fill-rule="evenodd"/>
        <path stroke="#000000" stroke-width="1.3333333333333333" stroke-miterlimit="800.0" stroke-linecap="butt" d="m493.375 208.55244l19.196838 0.12019348c12.112122 1.90802 17.980713 17.425644 18.096375 28.300064l0 0l-67.33331 0c10.3333435 -26.445526 26.586792 -28.073349 30.0401 -28.420258z" fill-rule="evenodd"/>
        <path fill="#000000" fill-opacity="0.0" d="m488.0549 213.83244l36.95999 0l0 24.266663l-36.95999 0z" fill-rule="evenodd"/>
        <path fill="#000000" d="m497.14865 226.15244l0 -1.125l3.25 -4.015625l-2.890625 0l0 -1.0625l4.546875 0l0 0.984375l-3.390625 4.171875l3.515625 0l0 1.046875l-5.03125 0zm5.8500977 0l0 -6.140625l1.265625 0l0 5.09375l3.109375 0l0 1.046875l-4.375 0z" fill-rule="nonzero"/>
        <path fill="#000000" fill-opacity="0.0" d="m490.7749 244.23244l28.0 0l0 24.280106l-28.0 0z" fill-rule="evenodd"/>
        <path fill="#000000" d="m500.43115 256.55243l0 -6.1406097l1.265625 0l0 5.09375l3.109375 0l0 1.0468597l-4.375 0z" fill-rule="nonzero"/>
        <path fill="#000000" fill-opacity="0.0"
              d="m489.79324 286.38257c11.987335 6.5066833 21.733063 1.9847717 25.874542 -0.16000366c1.9643555 0 -0.85131836 -0.168396 4.7521973 -0.048919678c5.551697 -2.2972107 3.9213257 -7.4696045 2.440857 -8.324402l-10.195129 0c-2.677887 -0.26541138 -4.8931274 1.3737488 -5.071686 -3.1845703c-2.4201355 -0.5463562 -7.242584 -0.35916138 -9.449127 -0.09375c-1.210083 4.1418457 -1.4594116 2.9878235 -4.5908813 3.2783203l-11.047058 0c-2.2403564 4.163971 0.5019226 6.9575806 1.780365 8.337738c3.361145 -0.27633667 3.541565 0.19558716 5.5059204 0.19558716z"
              fill-rule="evenodd"/>
        <path stroke="#000000" stroke-width="1.3333333333333333" stroke-miterlimit="800.0" stroke-linecap="butt"
              d="m489.79324 286.38257c11.987335 6.5066833 21.733063 1.9847717 25.874542 -0.16000366c1.9643555 0 -0.85131836 -0.168396 4.7521973 -0.048919678c5.551697 -2.2972107 3.9213257 -7.4696045 2.440857 -8.324402l-10.195129 0c-2.677887 -0.26541138 -4.8931274 1.3737488 -5.071686 -3.1845703c-2.4201355 -0.5463562 -7.242584 -0.35916138 -9.449127 -0.09375c-1.210083 4.1418457 -1.4594116 2.9878235 -4.5908813 3.2783203l-11.047058 0c-2.2403564 4.163971 0.5019226 6.9575806 1.780365 8.337738c3.361145 -0.27633667 3.541565 0.19558716 5.5059204 0.19558716z"
              fill-rule="evenodd"/>
    </g>
</svg>
