<svg version="1.1" viewBox="325.0 200.0 475 400" fill="none" stroke="none" stroke-linecap="square" stroke-miterlimit="10" xmlns:xlink="http://www.w3.org/1999/xlink" xmlns="http://www.w3.org/2000/svg">
    <clipPath id="p_1.0">
        <path d="m0 0l1122.5197 0l0 793.7008l-1122.5197 0l0 -793.7008z" clip-rule="nonzero"/>
    </clipPath>
    <g clip-path="url(#p_1.0)">
        <path fill="#000000" fill-opacity="0.0" d="m0 0l1122.5197 0l0 793.7008l-1122.5197 0z" fill-rule="evenodd"/>
        <path fill="#000000" fill-opacity="0.0" d="m331.51138 285.59308l459.49606 0l0 222.51443l-459.49606 0z" fill-rule="evenodd"/>
        <path fill="#757070" d="m387.2505 507.01688l348.33923 1.0909424c7.383728 -3.637329 5.3866577 -0.55371094 7.5684814 -9.752808c2.5454102 -12.251892 28.363586 -71.04935 42.54541 -106.573975l0 -102.53989l-451.6 2.1817627l0 105.09354c14.064911 34.43106 35.766113 81.953064 42.19467 103.29318c5.454468 3.743988 -1.1586609 5.3890686 10.952209 7.207245z" fill-rule="evenodd"/>
        <path stroke="#000000" stroke-width="1.3333333333333333" stroke-miterlimit="800.0" stroke-linecap="butt" d="m387.2505 507.01688l348.33923 1.0909424c7.383728 -3.637329 5.3866577 -0.55371094 7.5684814 -9.752808c2.5454102 -12.251892 28.363586 -71.04935 42.54541 -106.573975l0 -102.53989l-451.6 2.1817627l0 105.09354c14.064911 34.43106 35.766113 81.953064 42.19467 103.29318c5.454468 3.743988 -1.1586609 5.3890686 10.952209 7.207245z" fill-rule="evenodd"/>
        <path fill="#3f3f3f" d="m403.0293 312.97668l5.4460754 0l0 5.446106l-5.4460754 0z" fill-rule="evenodd"/>
        <path stroke="#3f3f3f" stroke-width="1.0" stroke-miterlimit="800.0" stroke-linecap="butt" d="m403.0293 312.97668l5.4460754 0l0 5.446106l-5.4460754 0z" fill-rule="evenodd"/>
        <path fill="#3f3f3f" d="m419.23978 312.97668l5.446106 0l0 5.446106l-5.446106 0z" fill-rule="evenodd"/>
        <path stroke="#3f3f3f" stroke-width="1.0" stroke-miterlimit="800.0" stroke-linecap="butt" d="m419.23978 312.97668l5.446106 0l0 5.446106l-5.446106 0z" fill-rule="evenodd"/>
        <path fill="#3f3f3f" d="m435.23978 312.97668l5.4000244 0l0 5.399994l-5.4000244 0z" fill-rule="evenodd"/>
        <path stroke="#3f3f3f" stroke-width="1.0" stroke-miterlimit="800.0" stroke-linecap="butt" d="m435.23978 312.97668l5.4000244 0l0 5.399994l-5.4000244 0z" fill-rule="evenodd"/>
        <path fill="#3f3f3f" d="m451.6609 312.97668l5.399994 0l0 5.399994l-5.399994 0z" fill-rule="evenodd"/>
        <path stroke="#3f3f3f" stroke-width="1.0" stroke-miterlimit="800.0" stroke-linecap="butt" d="m451.6609 312.97668l5.399994 0l0 5.399994l-5.399994 0z" fill-rule="evenodd"/>
        <path fill="#3f3f3f" d="m467.8714 312.97668l5.399994 0l0 5.399994l-5.399994 0z" fill-rule="evenodd"/>
        <path stroke="#3f3f3f" stroke-width="1.0" stroke-miterlimit="800.0" stroke-linecap="butt" d="m467.8714 312.97668l5.399994 0l0 5.399994l-5.399994 0z" fill-rule="evenodd"/>
        <path fill="#3f3f3f" d="m484.08188 312.97668l5.4000244 0l0 5.399994l-5.4000244 0z" fill-rule="evenodd"/>
        <path stroke="#3f3f3f" stroke-width="1.0" stroke-miterlimit="800.0" stroke-linecap="butt" d="m484.08188 312.97668l5.4000244 0l0 5.399994l-5.4000244 0z" fill-rule="evenodd"/>
        <path fill="#000000" d="m386.03265 478.4903l9.459625 0l0 9.070862l-9.459625 0z" fill-rule="evenodd"/>
        <path stroke="#000000" stroke-width="1.0" stroke-miterlimit="800.0" stroke-linecap="butt" d="m386.03265 478.4903l9.459625 0l0 9.070862l-9.459625 0z" fill-rule="evenodd"/>
        <path fill="#757070" d="m388.34845 482.99554l0 0c0 -1.32547 1.0744934 -2.3999634 2.3999634 -2.3999634l0 0c0.6365051 0 1.2469177 0.25286865 1.696991 0.7029419c0.45010376 0.45007324 0.7029419 1.0605164 0.7029419 1.6970215l0 0c0 1.3254395 -1.0744934 2.3999329 -2.3999329 2.3999329l0 0c-1.32547 0 -2.3999634 -1.0744934 -2.3999634 -2.3999329z" fill-rule="evenodd"/>
        <path stroke="#757070" stroke-width="1.0" stroke-miterlimit="800.0" stroke-linecap="butt" d="m388.34845 482.99554l0 0c0 -1.32547 1.0744934 -2.3999634 2.3999634 -2.3999634l0 0c0.6365051 0 1.2469177 0.25286865 1.696991 0.7029419c0.45010376 0.45007324 0.7029419 1.0605164 0.7029419 1.6970215l0 0c0 1.3254395 -1.0744934 2.3999329 -2.3999329 2.3999329l0 0c-1.32547 0 -2.3999634 -1.0744934 -2.3999634 -2.3999329z" fill-rule="evenodd"/>
        <path fill="#000000" fill-opacity="0.0" d="m528.063 480.8422l-3.2000122 5.5333557l-3.2000122 -5.5333557z" fill-rule="evenodd"/>
        <path stroke="#000000" stroke-width="1.3333333333333333" stroke-miterlimit="800.0" stroke-linecap="butt" d="m528.063 480.8422l-3.2000122 5.5333557l-3.2000122 -5.5333557z" fill-rule="evenodd"/>
        <path fill="#000000" fill-opacity="0.0" d="m544.1542 486.92038l5.533325 -3.2000122l-5.533325 -3.2000122z" fill-rule="evenodd"/>
        <path stroke="#000000" stroke-width="1.3333333333333333" stroke-miterlimit="800.0" stroke-linecap="butt" d="m544.1542 486.92038l5.533325 -3.2000122l-5.533325 -3.2000122z" fill-rule="evenodd"/>
        <path fill="#000000" fill-opacity="0.0" d="m482.8413 486.7065l-5.533325 -3.2000122l5.533325 -3.1999817z" fill-rule="evenodd"/>
        <path stroke="#000000" stroke-width="1.3333333333333333" stroke-miterlimit="800.0" stroke-linecap="butt" d="m482.8413 486.7065l-5.533325 -3.2000122l5.533325 -3.1999817z" fill-rule="evenodd"/>
        <path fill="#000000" fill-opacity="0.0" d="m498.99927 486.2375l3.2000122 -5.5333557l3.1999817 5.5333557z" fill-rule="evenodd"/>
        <path stroke="#000000" stroke-width="1.3333333333333333" stroke-miterlimit="800.0" stroke-linecap="butt" d="m498.99927 486.2375l3.2000122 -5.5333557l3.1999817 5.5333557z" fill-rule="evenodd"/>
        <path fill="#000000" d="m723.49817 484.5981l5.4802856 -4.535431l5.4803467 4.535431l-1.3765869 0l0 4.535431l-8.2074585 0l0 -4.535431z" fill-rule="evenodd"/>
        <path stroke="#000000" stroke-width="1.0" stroke-miterlimit="800.0" stroke-linecap="butt" d="m723.49817 484.5981l5.4802856 -4.535431l5.4803467 4.535431l-1.3765869 0l0 4.535431l-8.2074585 0l0 -4.535431z" fill-rule="evenodd"/>
        <path fill="#757070" d="m727.81384 485.22058l2.2677612 0l0 1.8897705l-2.2677612 0z" fill-rule="evenodd"/>
        <path fill="#000000" fill-opacity="0.0" d="m691.56494 469.7242l25.958923 0l0 26.315796l-25.958923 0z" fill-rule="evenodd"/>
        <path fill="#000000" d="m701.39307 480.30545l2.484375 0l0 -2.515625l2.515625 0l0 2.515625l2.5 0l0 2.515625l-2.5 0l0 2.484375l-2.515625 0l0 -2.484375l-2.484375 0l0 -2.515625z" fill-rule="nonzero"/>
        <path fill="#000000" fill-opacity="0.0" d="m666.7631 473.14508l38.14984 0l0 26.266693l-38.14984 0z" fill-rule="evenodd"/>
        <path fill="#000000"
              d="m676.2475 479.01196l5.65625 0l0 1.421875l-3.296875 3.453125l3.421875 0l0 1.578125l-6.125 0l0 -1.453125l3.265625 -3.421875l-2.921875 0l0 -1.578125zm6.6887817 6.453125l0 -6.453125l3.3125 0q0.90625 0 1.40625 0.171875q0.5 0.15625 0.8125 0.609375q0.3125 0.4375 0.3125 1.078125q0 0.546875 -0.234375 0.953125q-0.234375 0.390625 -0.65625 0.640625q-0.25 0.171875 -0.359375 0.15625q0.03125 -0.015625 0.203125 0.109375q0.109375 0.078125 0.328125 0.34375q0.21875 0.265625 0.28125 0.421875l1.015625 1.96875l-2.4375 0l-1.0625 -1.953125q-0.171875 -0.359375 -0.3125 -0.4375q-0.15625 -0.125 -0.390625 -0.125l-0.046875 0l0 2.515625l-2.171875 0zm2.171875 -3.9375l0.6875 0q0.109375 0 0.46875 -0.078125q0.15625 -0.03125 0.25 -0.15625q0.09375 -0.125 0.09375 -0.28125q0 -0.234375 -0.15625 -0.359375q-0.140625 -0.125 -0.625 -0.125l-0.71875 0l0 1.0z"
              fill-rule="nonzero"/>
        <path fill="#000000" fill-opacity="0.0" d="m647.3066 473.14508l34.0 0l0 26.266693l-34.0 0z" fill-rule="evenodd"/>
        <path fill="#000000"
              d="m656.9628 485.4651l0 -6.453125l3.3125 0q0.90625 0 1.40625 0.171875q0.5 0.15625 0.8125 0.609375q0.3125 0.4375 0.3125 1.078125q0 0.546875 -0.234375 0.953125q-0.234375 0.390625 -0.65625 0.640625q-0.25 0.171875 -0.359375 0.15625q0.03125 -0.015625 0.203125 0.109375q0.109375 0.078125 0.328125 0.34375q0.21875 0.265625 0.28125 0.421875l1.015625 1.96875l-2.4375 0l-1.0625 -1.953125q-0.171875 -0.359375 -0.3125 -0.4375q-0.15625 -0.125 -0.390625 -0.125l-0.046875 0l0 2.515625l-2.171875 0zm2.171875 -3.9375l0.6875 0q0.109375 0 0.46875 -0.078125q0.15625 -0.03125 0.25 -0.15625q0.09375 -0.125 0.09375 -0.28125q0 -0.234375 -0.15625 -0.359375q-0.140625 -0.125 -0.625 -0.125l-0.71875 0l0 1.0z"
              fill-rule="nonzero"/>
        <path fill="#000000" fill-opacity="0.0" d="m624.64294 472.71747l34.0 0l0 26.266693l-34.0 0z" fill-rule="evenodd"/>
        <path fill="#000000" d="m638.1273 484.02185l-2.0 0l-0.296875 1.015625l-2.234375 0l2.421875 -6.453125l2.265625 0l2.421875 6.453125l-2.28125 0l-0.296875 -1.015625zm-0.484375 -1.59375l-0.515625 -1.6875l-0.5 1.6875l1.015625 0z" fill-rule="nonzero"/>
        <path fill="#000000" fill-opacity="0.0" d="m601.9792 472.93134l34.0 0l0 26.266663l-34.0 0z" fill-rule="evenodd"/>
        <path fill="#000000"
              d="m611.6198 478.79822l3.703125 0q0.953125 0 1.46875 0.484375q0.515625 0.484375 0.515625 1.1875q0 0.59375 -0.375 1.015625q-0.25 0.296875 -0.328125 0.3125q0.3125 0.078125 0.640625 0.5q0.34375 0.421875 0.34375 1.0625q0 0.515625 -0.234375 0.9375q-0.234375 0.40625 -0.65625 0.65625q-0.265625 0.15625 -0.78125 0.21875q-0.65625 0.078125 -0.875 0.078125l-3.421875 0l0 -6.453125zm2.171875 2.4375l0.71875 0q0.390625 0 0.53125 -0.125q0.140625 -0.125 0.140625 -0.34375q0 -0.21875 -0.140625 -0.328125q-0.140625 -0.125 -0.515625 -0.125l-0.734375 0l0 0.921875zm0 2.4375l0.859375 0q0.453125 0 0.609375 -0.140625q0.171875 -0.15625 0.171875 -0.390625q0 -0.203125 -0.171875 -0.34375q-0.15625 -0.140625 -0.609375 -0.140625l-0.859375 0l0 1.015625z"
              fill-rule="nonzero"/>
        <path fill="#000000" fill-opacity="0.0" d="m579.3155 472.71747l34.0 0l0 26.266693l-34.0 0z" fill-rule="evenodd"/>
        <path fill="#000000" d="m588.40924 478.58435l2.421875 0l1.03125 1.78125l0.984375 -1.78125l2.390625 0l-2.0 3.125l2.1875 3.328125l-2.453125 0l-1.15625 -1.875l-1.15625 1.875l-2.4375 0l2.21875 -3.359375l-2.03125 -3.09375z" fill-rule="nonzero"/>
        <path fill="#000000" fill-opacity="0.0" d="m557.07947 472.50372l34.0 0l0 26.266663l-34.0 0z" fill-rule="evenodd"/>
        <path fill="#000000" d="m565.9857 478.3706l2.4375 0l1.171875 1.96875l1.171875 -1.96875l2.421875 0l-2.515625 3.765625l0 2.6875l-2.171875 0l0 -2.6875l-2.515625 -3.765625z" fill-rule="nonzero"/>
        <path fill="#000000" fill-opacity="0.0" d="m445.68524 472.0761l34.0 0l0 26.266663l-34.0 0z" fill-rule="evenodd"/>
        <path fill="#000000" d="m455.32587 477.943l2.15625 0l0 4.671875l2.984375 0l0 1.78125l-5.140625 0l0 -6.453125z" fill-rule="nonzero"/>
        <path fill="#000000" fill-opacity="0.0" d="m419.38678 471.86224l34.0 0l0 26.266693l-34.0 0z" fill-rule="evenodd"/>
        <path fill="#000000" d="m428.87115 477.72913l5.65625 0l0 1.421875l-3.296875 3.453125l3.421875 0l0 1.578125l-6.125 0l0 -1.453125l3.265625 -3.421875l-2.921875 0l0 -1.578125zm6.673126 0l2.15625 0l0 4.671875l2.984375 0l0 1.78125l-5.140625 0l0 -6.453125z" fill-rule="nonzero"/>
        <path fill="#000000" fill-opacity="0.0" d="m408.91013 482.98026l7.2590027 0" fill-rule="evenodd"/>
        <path stroke="#000000" stroke-width="2.0" stroke-miterlimit="800.0" stroke-linecap="butt" d="m408.91013 482.98026l7.2590027 0" fill-rule="evenodd"/>
        <path fill="#000000" fill-opacity="0.0" d="m358.64902 321.78983l60.21051 0l0 26.315796l-60.21051 0z" fill-rule="evenodd"/>
        <path fill="#000000"
              d="m375.16464 334.59357q0 0.03125 -0.03125 0.078125q-0.03125 0.03125 -0.09375 0.0625q-0.0625 0.015625 -0.171875 0.03125q-0.109375 0.015625 -0.28125 0.015625q-0.15625 0 -0.265625 -0.015625q-0.109375 -0.015625 -0.171875 -0.03125q-0.0625 -0.03125 -0.09375 -0.0625q-0.03125 -0.046875 -0.03125 -0.078125l0 -4.796875l0 0l-1.71875 4.78125q-0.015625 0.0625 -0.0625 0.109375q-0.03125 0.03125 -0.109375 0.0625q-0.0625 0.015625 -0.171875 0.015625q-0.109375 0.015625 -0.265625 0.015625q-0.15625 0 -0.265625 -0.015625q-0.109375 -0.015625 -0.1875 -0.03125q-0.0625 -0.03125 -0.109375 -0.0625q-0.03125 -0.046875 -0.046875 -0.09375l-1.65625 -4.78125l0 0l0 4.796875q0 0.03125 -0.03125 0.078125q-0.03125 0.03125 -0.09375 0.0625q-0.0625 0.015625 -0.171875 0.03125q-0.109375 0.015625 -0.28125 0.015625q-0.15625 0 -0.265625 -0.015625q-0.109375 -0.015625 -0.1875 -0.03125q-0.0625 -0.03125 -0.09375 -0.0625q-0.015625 -0.046875 -0.015625 -0.078125l0 -5.265625q0 -0.21875 0.125 -0.34375q0.125 -0.125 0.328125 -0.125l0.78125 0q0.21875 0 0.359375 0.03125q0.15625 0.03125 0.265625 0.109375q0.109375 0.078125 0.171875 0.21875q0.078125 0.125 0.140625 0.3125l1.265625 3.515625l0.015625 0l1.328125 -3.5q0.0625 -0.1875 0.125 -0.3125q0.078125 -0.140625 0.171875 -0.21875q0.09375 -0.09375 0.21875 -0.125q0.125 -0.03125 0.296875 -0.03125l0.796875 0q0.125 0 0.21875 0.03125q0.09375 0.03125 0.140625 0.09375q0.0625 0.0625 0.09375 0.15625q0.03125 0.078125 0.03125 0.1875l0 5.265625zm6.57489 -2.859375q0 0.734375 -0.1875 1.3125q-0.171875 0.578125 -0.53125 0.984375q-0.359375 0.40625 -0.890625 0.625q-0.53125 0.203125 -1.21875 0.203125q-0.703125 0 -1.21875 -0.171875q-0.5 -0.1875 -0.84375 -0.5625q-0.34375 -0.375 -0.515625 -0.9375q-0.171875 -0.5625 -0.171875 -1.34375q0 -0.71875 0.1875 -1.28125q0.1875 -0.578125 0.546875 -0.984375q0.359375 -0.40625 0.890625 -0.609375q0.53125 -0.21875 1.234375 -0.21875q0.65625 0 1.171875 0.1875q0.515625 0.171875 0.859375 0.546875q0.34375 0.359375 0.515625 0.921875q0.171875 0.5625 0.171875 1.328125zm-1.25 0.0625q0 -0.46875 -0.078125 -0.84375q-0.0625 -0.375 -0.25 -0.640625q-0.171875 -0.28125 -0.46875 -0.421875q-0.28125 -0.15625 -0.71875 -0.15625q-0.4375 0 -0.734375 0.171875q-0.296875 0.15625 -0.484375 0.4375q-0.1875 0.28125 -0.265625 0.65625q-0.0625 0.359375 -0.0625 0.78125q0 0.484375 0.0625 0.875q0.078125 0.375 0.25 0.65625q0.171875 0.265625 0.46875 0.40625q0.296875 0.140625 0.734375 0.140625q0.4375 0 0.734375 -0.15625q0.296875 -0.171875 0.46875 -0.453125q0.1875 -0.28125 0.265625 -0.65625q0.078125 -0.375 0.078125 -0.796875zm7.152069 -0.078125q0 0.8125 -0.21875 1.390625q-0.203125 0.5625 -0.59375 0.9375q-0.390625 0.359375 -0.96875 0.53125q-0.5625 0.171875 -1.34375 0.171875l-1.40625 0q-0.15625 0 -0.265625 -0.078125q-0.09375 -0.09375 -0.09375 -0.296875l0 -5.140625q0 -0.203125 0.09375 -0.28125q0.109375 -0.09375 0.265625 -0.09375l1.515625 0q0.78125 0 1.328125 0.1875q0.546875 0.171875 0.921875 0.546875q0.375 0.359375 0.5625 0.890625q0.203125 0.53125 0.203125 1.234375zm-1.234375 0.03125q0 -0.40625 -0.09375 -0.765625q-0.09375 -0.359375 -0.3125 -0.625q-0.21875 -0.265625 -0.5625 -0.40625q-0.328125 -0.15625 -0.890625 -0.15625l-0.609375 0l0 4.0l0.625 0q0.5 0 0.828125 -0.125q0.34375 -0.125 0.5625 -0.375q0.234375 -0.265625 0.34375 -0.640625q0.109375 -0.390625 0.109375 -0.90625zm5.723938 2.53125q0 0.125 -0.015625 0.21875q-0.015625 0.09375 -0.046875 0.15625q-0.015625 0.046875 -0.046875 0.078125q-0.03125 0.015625 -0.078125 0.015625l-2.953125 0q-0.15625 0 -0.265625 -0.078125q-0.09375 -0.09375 -0.09375 -0.296875l0 -5.140625q0 -0.203125 0.09375 -0.28125q0.109375 -0.09375 0.265625 -0.09375l2.9375 0q0.046875 0 0.078125 0.03125q0.03125 0.015625 0.046875 0.078125q0.03125 0.046875 0.03125 0.140625q0.015625 0.078125 0.015625 0.21875q0 0.125 -0.015625 0.21875q0 0.09375 -0.03125 0.15625q-0.015625 0.046875 -0.046875 0.078125q-0.03125 0.015625 -0.078125 0.015625l-2.109375 0l0 1.4375l1.78125 0q0.046875 0 0.078125 0.03125q0.03125 0.015625 0.046875 0.078125q0.03125 0.046875 0.046875 0.140625q0.015625 0.078125 0.015625 0.203125q0 0.140625 -0.015625 0.234375q-0.015625 0.078125 -0.046875 0.140625q-0.015625 0.046875 -0.046875 0.078125q-0.03125 0.015625 -0.078125 0.015625l-1.78125 0l0 1.65625l2.125 0q0.046875 0 0.078125 0.03125q0.03125 0.015625 0.046875 0.078125q0.03125 0.046875 0.046875 0.140625q0.015625 0.09375 0.015625 0.21875z"
              fill-rule="nonzero"/>
        <g filter="url(#shadowFilter-p_1.1)">
            <use xlink:href="#p_1.1" transform="matrix(1.0 0.0 0.0 1.0 2.8284271247461903 2.8284271247461903)"/>
        </g>
        <defs>
            <filter id="shadowFilter-p_1.1" filterUnits="userSpaceOnUse">
                <feGaussianBlur in="SourceAlpha" stdDeviation="1.7777777" result="blur"/>
                <feComponentTransfer in="blur" color-interpolation-filters="sRGB">
                    <feFuncR type="linear" slope="0" intercept="0.0"/>
                    <feFuncG type="linear" slope="0" intercept="0.0"/>
                    <feFuncB type="linear" slope="0" intercept="0.0"/>
                    <feFuncA type="linear" slope="0.4" intercept="0"/>
                </feComponentTransfer>
            </filter>
        </defs>
        <g id="p_1.1">
            <path fill="#ffffff" d="m370.20316 315.20572l0 0c0 -6.1042175 5.2378845 -11.052643 11.699158 -11.052643l0 0c3.1028137 0 6.0785217 1.1644592 8.2725525 3.2372437c2.1940308 2.0727844 3.4266052 4.8840637 3.4266052 7.815399l0 0c0 6.1042175 -5.2378845 11.052643 -11.699158 11.052643l0 0c-6.461273 0 -11.699158 -4.9484253 -11.699158 -11.052643z" fill-rule="evenodd"/>
            <path stroke="#000000" stroke-width="1.3333333333333333" stroke-miterlimit="800.0" stroke-linecap="butt" d="m370.20316 315.20572l0 0c0 -6.1042175 5.2378845 -11.052643 11.699158 -11.052643l0 0c3.1028137 0 6.0785217 1.1644592 8.2725525 3.2372437c2.1940308 2.0727844 3.4266052 4.8840637 3.4266052 7.815399l0 0c0 6.1042175 -5.2378845 11.052643 -11.699158 11.052643l0 0c-6.461273 0 -11.699158 -4.9484253 -11.699158 -11.052643z" fill-rule="evenodd"/>
        </g>
        <g filter="url(#shadowFilter-p_1.2)">
            <use xlink:href="#p_1.2" transform="matrix(1.0 0.0 0.0 1.0 2.8284271247461903 2.8284271247461903)"/>
        </g>
        <defs>
            <filter id="shadowFilter-p_1.2" filterUnits="userSpaceOnUse">
                <feGaussianBlur in="SourceAlpha" stdDeviation="1.7777777" result="blur"/>
                <feComponentTransfer in="blur" color-interpolation-filters="sRGB">
                    <feFuncR type="linear" slope="0" intercept="0.0"/>
                    <feFuncG type="linear" slope="0" intercept="0.0"/>
                    <feFuncB type="linear" slope="0" intercept="0.0"/>
                    <feFuncA type="linear" slope="0.4" intercept="0"/>
                </feComponentTransfer>
            </filter>
        </defs>
        <g id="p_1.2">
            <path id="leftStick" fill="#ffffff" d="m383.25574 390.64267l0 0c0 -9.862701 8.388794 -17.858002 18.736847 -17.858002l0 0c4.96933 0 9.735138 1.8814697 13.248962 5.2304993c3.513855 3.3490295 5.487915 7.891266 5.487915 12.627502l0 0c0 9.862701 -8.388794 17.858002 -18.736877 17.858002l0 0c-10.348053 0 -18.736847 -7.9953003 -18.736847 -17.858002z" fill-rule="evenodd"/>
            <path stroke="#000000" stroke-width="1.3333333333333333" stroke-miterlimit="800.0" stroke-linecap="butt" d="m383.25574 390.64267l0 0c0 -9.862701 8.388794 -17.858002 18.736847 -17.858002l0 0c4.96933 0 9.735138 1.8814697 13.248962 5.2304993c3.513855 3.3490295 5.487915 7.891266 5.487915 12.627502l0 0c0 9.862701 -8.388794 17.858002 -18.736877 17.858002l0 0c-10.348053 0 -18.736847 -7.9953003 -18.736847 -17.858002z" fill-rule="evenodd"/>
        </g>
        <g filter="url(#shadowFilter-p_1.3)">
            <use xlink:href="#p_1.3" transform="matrix(1.0 0.0 0.0 1.0 2.8284271247461903 2.8284271247461903)"/>
        </g>
        <defs>
            <filter id="shadowFilter-p_1.3" filterUnits="userSpaceOnUse">
                <feGaussianBlur in="SourceAlpha" stdDeviation="1.7777777" result="blur"/>
                <feComponentTransfer in="blur" color-interpolation-filters="sRGB">
                    <feFuncR type="linear" slope="0" intercept="0.0"/>
                    <feFuncG type="linear" slope="0" intercept="0.0"/>
                    <feFuncB type="linear" slope="0" intercept="0.0"/>
                    <feFuncA type="linear" slope="0.4" intercept="0"/>
                </feComponentTransfer>
            </filter>
        </defs>
        <g id="p_1.3">
            <path id="leftStick" fill="#ffffff" d="m430.41364 347.27417l0 0c0 -9.862701 8.388794 -17.858002 18.736877 -17.858002l0 0c4.9692993 0 9.735107 1.8814697 13.248932 5.2304993c3.513855 3.3490295 5.487915 7.891266 5.487915 12.627502l0 0c0 9.862701 -8.388794 17.858002 -18.736847 17.858002l0 0c-10.3480835 0 -18.736877 -7.9953003 -18.736877 -17.858002z" fill-rule="evenodd"/>
            <path stroke="#000000" stroke-width="1.3333333333333333" stroke-miterlimit="800.0" stroke-linecap="butt" d="m430.41364 347.27417l0 0c0 -9.862701 8.388794 -17.858002 18.736877 -17.858002l0 0c4.9692993 0 9.735107 1.8814697 13.248932 5.2304993c3.513855 3.3490295 5.487915 7.891266 5.487915 12.627502l0 0c0 9.862701 -8.388794 17.858002 -18.736847 17.858002l0 0c-10.3480835 0 -18.736877 -7.9953003 -18.736877 -17.858002z" fill-rule="evenodd"/>
        </g>
        <g filter="url(#shadowFilter-p_1.4)">
            <use xlink:href="#p_1.4" transform="matrix(1.0 0.0 0.0 1.0 2.8284271247461903 2.8284271247461903)"/>
        </g>
        <defs>
            <filter id="shadowFilter-p_1.4" filterUnits="userSpaceOnUse">
                <feGaussianBlur in="SourceAlpha" stdDeviation="1.7777777" result="blur"/>
                <feComponentTransfer in="blur" color-interpolation-filters="sRGB">
                    <feFuncR type="linear" slope="0" intercept="0.0"/>
                    <feFuncG type="linear" slope="0" intercept="0.0"/>
                    <feFuncB type="linear" slope="0" intercept="0.0"/>
                    <feFuncA type="linear" slope="0.4" intercept="0"/>
                </feComponentTransfer>
            </filter>
        </defs>
        <g id="p_1.4">
            <path id="leftStick" fill="#ffffff" d="m478.41364 391.06366l0 0c0 -9.862701 8.388794 -17.858002 18.736877 -17.858002l0 0c4.9692993 0 9.735107 1.8814697 13.248932 5.2304993c3.5138245 3.3490295 5.4878845 7.891266 5.4878845 12.627502l0 0c0 9.862732 -8.388763 17.858032 -18.736816 17.858032l0 0c-10.3480835 0 -18.736877 -7.9953003 -18.736877 -17.858032z" fill-rule="evenodd"/>
            <path stroke="#000000" stroke-width="1.3333333333333333" stroke-miterlimit="800.0" stroke-linecap="butt" d="m478.41364 391.06366l0 0c0 -9.862701 8.388794 -17.858002 18.736877 -17.858002l0 0c4.9692993 0 9.735107 1.8814697 13.248932 5.2304993c3.5138245 3.3490295 5.4878845 7.891266 5.4878845 12.627502l0 0c0 9.862732 -8.388763 17.858032 -18.736816 17.858032l0 0c-10.3480835 0 -18.736877 -7.9953003 -18.736877 -17.858032z" fill-rule="evenodd"/>
        </g>
        <g filter="url(#shadowFilter-p_1.5)">
            <use xlink:href="#p_1.5" transform="matrix(1.0 0.0 0.0 1.0 2.8284271247461903 2.8284271247461903)"/>
        </g>
        <defs>
            <filter id="shadowFilter-p_1.5" filterUnits="userSpaceOnUse">
                <feGaussianBlur in="SourceAlpha" stdDeviation="1.7777777" result="blur"/>
                <feComponentTransfer in="blur" color-interpolation-filters="sRGB">
                    <feFuncR type="linear" slope="0" intercept="0.0"/>
                    <feFuncG type="linear" slope="0" intercept="0.0"/>
                    <feFuncB type="linear" slope="0" intercept="0.0"/>
                    <feFuncA type="linear" slope="0.4" intercept="0"/>
                </feComponentTransfer>
            </filter>
        </defs>
        <g id="p_1.5">
            <path id="leftStick" fill="#ffffff" d="m430.41364 435.06366l0 0c0 -9.862701 8.388794 -17.858002 18.736877 -17.858002l0 0c4.9692993 0 9.735107 1.8814697 13.248932 5.2304993c3.513855 3.3490295 5.487915 7.891266 5.487915 12.627502l0 0c0 9.862732 -8.388794 17.858032 -18.736847 17.858032l0 0c-10.3480835 0 -18.736877 -7.9953003 -18.736877 -17.858032z" fill-rule="evenodd"/>
            <path stroke="#000000" stroke-width="1.3333333333333333" stroke-miterlimit="800.0" stroke-linecap="butt" d="m430.41364 435.06366l0 0c0 -9.862701 8.388794 -17.858002 18.736877 -17.858002l0 0c4.9692993 0 9.735107 1.8814697 13.248932 5.2304993c3.513855 3.3490295 5.487915 7.891266 5.487915 12.627502l0 0c0 9.862732 -8.388794 17.858032 -18.736847 17.858032l0 0c-10.3480835 0 -18.736877 -7.9953003 -18.736877 -17.858032z" fill-rule="evenodd"/>
        </g>
        <g filter="url(#shadowFilter-p_1.6)">
            <use xlink:href="#p_1.6" transform="matrix(1.0 0.0 0.0 1.0 2.8284271247461903 2.8284271247461903)"/>
        </g>
        <defs>
            <filter id="shadowFilter-p_1.6" filterUnits="userSpaceOnUse">
                <feGaussianBlur in="SourceAlpha" stdDeviation="1.7777777" result="blur"/>
                <feComponentTransfer in="blur" color-interpolation-filters="sRGB">
                    <feFuncR type="linear" slope="0" intercept="0.0"/>
                    <feFuncG type="linear" slope="0" intercept="0.0"/>
                    <feFuncB type="linear" slope="0" intercept="0.0"/>
                    <feFuncA type="linear" slope="0.4" intercept="0"/>
                </feComponentTransfer>
            </filter>
        </defs>
        <g id="p_1.6">
            <path id="bButton" fill="#ffffff" d="m548.09784 435.06366l0 0c0 -9.862701 8.388794 -17.858002 18.736877 -17.858002l0 0c4.9692993 0 9.735107 1.8814697 13.248962 5.2304993c3.513794 3.3490295 5.487854 7.891266 5.487854 12.627502l0 0c0 9.862732 -8.388733 17.858032 -18.736816 17.858032l0 0c-10.3480835 0 -18.736877 -7.9953003 -18.736877 -17.858032z" fill-rule="evenodd"/>
            <path stroke="#000000" stroke-width="1.3333333333333333" stroke-miterlimit="800.0" stroke-linecap="butt" d="m548.09784 435.06366l0 0c0 -9.862701 8.388794 -17.858002 18.736877 -17.858002l0 0c4.9692993 0 9.735107 1.8814697 13.248962 5.2304993c3.513794 3.3490295 5.487854 7.891266 5.487854 12.627502l0 0c0 9.862732 -8.388733 17.858032 -18.736816 17.858032l0 0c-10.3480835 0 -18.736877 -7.9953003 -18.736877 -17.858032z" fill-rule="evenodd"/>
        </g>
        <g filter="url(#shadowFilter-p_1.7)">
            <use xlink:href="#p_1.7" transform="matrix(1.0 0.0 0.0 1.0 2.8284271247461903 2.8284271247461903)"/>
        </g>
        <defs>
            <filter id="shadowFilter-p_1.7" filterUnits="userSpaceOnUse">
                <feGaussianBlur in="SourceAlpha" stdDeviation="1.7777777" result="blur"/>
                <feComponentTransfer in="blur" color-interpolation-filters="sRGB">
                    <feFuncR type="linear" slope="0" intercept="0.0"/>
                    <feFuncG type="linear" slope="0" intercept="0.0"/>
                    <feFuncB type="linear" slope="0" intercept="0.0"/>
                    <feFuncA type="linear" slope="0.4" intercept="0"/>
                </feComponentTransfer>
            </filter>
        </defs>
        <g id="p_1.7">
            <path id="yButton" fill="#ffffff" d="m576.3085 370.01108l0 0c0 -9.862701 8.388733 -17.858002 18.736816 -17.858002l0 0c4.9693604 0 9.735107 1.8814697 13.248962 5.2304688c3.513855 3.3490295 5.487915 7.8912964 5.487915 12.627533l0 0c0 9.862701 -8.388794 17.858002 -18.736877 17.858002l0 0c-10.3480835 0 -18.736816 -7.9953003 -18.736816 -17.858002z" fill-rule="evenodd"/>
            <path stroke="#000000" stroke-width="1.3333333333333333" stroke-miterlimit="800.0" stroke-linecap="butt" d="m576.3085 370.01108l0 0c0 -9.862701 8.388733 -17.858002 18.736816 -17.858002l0 0c4.9693604 0 9.735107 1.8814697 13.248962 5.2304688c3.513855 3.3490295 5.487915 7.8912964 5.487915 12.627533l0 0c0 9.862701 -8.388794 17.858002 -18.736877 17.858002l0 0c-10.3480835 0 -18.736816 -7.9953003 -18.736816 -17.858002z" fill-rule="evenodd"/>
        </g>
        <g filter="url(#shadowFilter-p_1.8)">
            <use xlink:href="#p_1.8" transform="matrix(1.0 0.0 0.0 1.0 2.8284271247461903 2.8284271247461903)"/>
        </g>
        <defs>
            <filter id="shadowFilter-p_1.8" filterUnits="userSpaceOnUse">
                <feGaussianBlur in="SourceAlpha" stdDeviation="1.7777777" result="blur"/>
                <feComponentTransfer in="blur" color-interpolation-filters="sRGB">
                    <feFuncR type="linear" slope="0" intercept="0.0"/>
                    <feFuncG type="linear" slope="0" intercept="0.0"/>
                    <feFuncB type="linear" slope="0" intercept="0.0"/>
                    <feFuncA type="linear" slope="0.4" intercept="0"/>
                </feComponentTransfer>
            </filter>
        </defs>
        <g id="p_1.8">
            <path id="aButton" fill="#ffffff" d="m617.1506 423.69528l0 0c0 -9.862701 8.388733 -17.858002 18.736816 -17.858002l0 0c4.9693604 0 9.735107 1.8814392 13.248962 5.2304688c3.513855 3.3490295 5.487915 7.8912964 5.487915 12.627533l0 0c0 9.862701 -8.388794 17.858002 -18.736877 17.858002l0 0c-10.3480835 0 -18.736816 -7.9953003 -18.736816 -17.858002z" fill-rule="evenodd"/>
            <path stroke="#000000" stroke-width="1.3333333333333333" stroke-miterlimit="800.0" stroke-linecap="butt" d="m617.1506 423.69528l0 0c0 -9.862701 8.388733 -17.858002 18.736816 -17.858002l0 0c4.9693604 0 9.735107 1.8814392 13.248962 5.2304688c3.513855 3.3490295 5.487915 7.8912964 5.487915 12.627533l0 0c0 9.862701 -8.388794 17.858002 -18.736877 17.858002l0 0c-10.3480835 0 -18.736816 -7.9953003 -18.736816 -17.858002z" fill-rule="evenodd"/>
        </g>
        <g filter="url(#shadowFilter-p_1.9)">
            <use xlink:href="#p_1.9" transform="matrix(1.0 0.0 0.0 1.0 2.8284271247461903 2.828427124746152)"/>
        </g>
        <defs>
            <filter id="shadowFilter-p_1.9" filterUnits="userSpaceOnUse">
                <feGaussianBlur in="SourceAlpha" stdDeviation="1.7777777" result="blur"/>
                <feComponentTransfer in="blur" color-interpolation-filters="sRGB">
                    <feFuncR type="linear" slope="0" intercept="0.0"/>
                    <feFuncG type="linear" slope="0" intercept="0.0"/>
                    <feFuncB type="linear" slope="0" intercept="0.0"/>
                    <feFuncA type="linear" slope="0.4" intercept="0"/>
                </feComponentTransfer>
            </filter>
        </defs>
        <g id="p_1.9">
            <path id="xButton" fill="#ffffff" d="m648.94006 361.80048l0 0c0 -9.862701 8.388733 -17.858002 18.736816 -17.858002l0 0c4.9693604 0 9.735107 1.8814697 13.248962 5.2304688c3.513855 3.3490295 5.487915 7.8912964 5.487915 12.627533l0 0c0 9.862701 -8.388794 17.858002 -18.736877 17.858002l0 0c-10.3480835 0 -18.736816 -7.9953003 -18.736816 -17.858002z" fill-rule="evenodd"/>
            <path stroke="#000000" stroke-width="1.3333333333333333" stroke-miterlimit="800.0" stroke-linecap="butt" d="m648.94006 361.80048l0 0c0 -9.862701 8.388733 -17.858002 18.736816 -17.858002l0 0c4.9693604 0 9.735107 1.8814697 13.248962 5.2304688c3.513855 3.3490295 5.487915 7.8912964 5.487915 12.627533l0 0c0 9.862701 -8.388794 17.858002 -18.736877 17.858002l0 0c-10.3480835 0 -18.736816 -7.9953003 -18.736816 -17.858002z" fill-rule="evenodd"/>
        </g>
        <g filter="url(#shadowFilter-p_1.10)">
            <use xlink:href="#p_1.10" transform="matrix(1.0 0.0 0.0 1.0 2.8284271247461903 2.8284271247461903)"/>
        </g>
        <defs>
            <filter id="shadowFilter-p_1.10" filterUnits="userSpaceOnUse">
                <feGaussianBlur in="SourceAlpha" stdDeviation="1.7777777" result="blur"/>
                <feComponentTransfer in="blur" color-interpolation-filters="sRGB">
                    <feFuncR type="linear" slope="0" intercept="0.0"/>
                    <feFuncG type="linear" slope="0" intercept="0.0"/>
                    <feFuncB type="linear" slope="0" intercept="0.0"/>
                    <feFuncA type="linear" slope="0.4" intercept="0"/>
                </feComponentTransfer>
            </filter>
        </defs>
        <g id="p_1.10">
            <path id="rightBumper" fill="#ffffff" d="m689.78217 423.69528l0 0c0 -9.862701 8.388733 -17.858002 18.736816 -17.858002l0 0c4.9693604 0 9.735107 1.8814392 13.248962 5.2304688c3.513855 3.3490295 5.487915 7.8912964 5.487915 12.627533l0 0c0 9.862701 -8.388794 17.858002 -18.736877 17.858002l0 0c-10.3480835 0 -18.736816 -7.9953003 -18.736816 -17.858002z" fill-rule="evenodd"/>
            <path stroke="#000000" stroke-width="1.3333333333333333" stroke-miterlimit="800.0" stroke-linecap="butt" d="m689.78217 423.69528l0 0c0 -9.862701 8.388733 -17.858002 18.736816 -17.858002l0 0c4.9693604 0 9.735107 1.8814392 13.248962 5.2304688c3.513855 3.3490295 5.487915 7.8912964 5.487915 12.627533l0 0c0 9.862701 -8.388794 17.858002 -18.736877 17.858002l0 0c-10.3480835 0 -18.736816 -7.9953003 -18.736816 -17.858002z" fill-rule="evenodd"/>
        </g>
        <g filter="url(#shadowFilter-p_1.11)">
            <use xlink:href="#p_1.11" transform="matrix(1.0 0.0 0.0 1.0 2.8284271247461903 2.8284271247461903)"/>
        </g>
        <defs>
            <filter id="shadowFilter-p_1.11" filterUnits="userSpaceOnUse">
                <feGaussianBlur in="SourceAlpha" stdDeviation="1.7777777" result="blur"/>
                <feComponentTransfer in="blur" color-interpolation-filters="sRGB">
                    <feFuncR type="linear" slope="0" intercept="0.0"/>
                    <feFuncG type="linear" slope="0" intercept="0.0"/>
                    <feFuncB type="linear" slope="0" intercept="0.0"/>
                    <feFuncA type="linear" slope="0.4" intercept="0"/>
                </feComponentTransfer>
            </filter>
        </defs>
        <g id="p_1.11">
            <path id="leftBumper" fill="#ffffff" d="m722.2031 361.58997l0 0c0 -9.862701 8.388794 -17.858002 18.736877 -17.858002l0 0c4.9692993 0 9.735107 1.8814697 13.248962 5.2304993c3.513855 3.3490295 5.487915 7.891266 5.487915 12.627502l0 0c0 9.862701 -8.388794 17.858002 -18.736877 17.858002l0 0c-10.3480835 0 -18.736877 -7.9953003 -18.736877 -17.858002z" fill-rule="evenodd"/>
            <path stroke="#000000" stroke-width="1.3333333333333333" stroke-miterlimit="800.0" stroke-linecap="butt" d="m722.2031 361.58997l0 0c0 -9.862701 8.388794 -17.858002 18.736877 -17.858002l0 0c4.9692993 0 9.735107 1.8814697 13.248962 5.2304993c3.513855 3.3490295 5.487915 7.891266 5.487915 12.627502l0 0c0 9.862701 -8.388794 17.858002 -18.736877 17.858002l0 0c-10.3480835 0 -18.736877 -7.9953003 -18.736877 -17.858002z" fill-rule="evenodd"/>
        </g>
        <g filter="url(#shadowFilter-p_1.12)">
            <use xlink:href="#p_1.12" transform="matrix(1.0 0.0 0.0 1.0 2.8284271247461903 2.8284271247461903)"/>
        </g>
        <defs>
            <filter id="shadowFilter-p_1.12" filterUnits="userSpaceOnUse">
                <feGaussianBlur in="SourceAlpha" stdDeviation="1.7777777" result="blur"/>
                <feComponentTransfer in="blur" color-interpolation-filters="sRGB">
                    <feFuncR type="linear" slope="0" intercept="0.0"/>
                    <feFuncG type="linear" slope="0" intercept="0.0"/>
                    <feFuncB type="linear" slope="0" intercept="0.0"/>
                    <feFuncA type="linear" slope="0.4" intercept="0"/>
                </feComponentTransfer>
            </filter>
        </defs>
        <g id="p_1.12">
            <path id="" fill="#ffffff" d="m624.94006 321.70038l0 0c0 -5.8542175 4.984558 -10.600006 11.133301 -10.600006l0 0c2.9527588 0 5.784546 1.1167908 7.8724976 3.1046753c2.0878906 1.9878845 3.2608643 4.684021 3.2608643 7.495331l0 0c0 5.8542175 -4.984558 10.599976 -11.133362 10.599976l0 0c-6.1487427 0 -11.133301 -4.745758 -11.133301 -10.599976z" fill-rule="evenodd"/>
            <path stroke="#000000" stroke-width="1.3333333333333333" stroke-miterlimit="800.0" stroke-linecap="butt" d="m624.94006 321.70038l0 0c0 -5.8542175 4.984558 -10.600006 11.133301 -10.600006l0 0c2.9527588 0 5.784546 1.1167908 7.8724976 3.1046753c2.0878906 1.9878845 3.2608643 4.684021 3.2608643 7.495331l0 0c0 5.8542175 -4.984558 10.599976 -11.133362 10.599976l0 0c-6.1487427 0 -11.133301 -4.745758 -11.133301 -10.599976z" fill-rule="evenodd"/>
        </g>
        <g filter="url(#shadowFilter-p_1.13)">
            <use xlink:href="#p_1.13" transform="matrix(1.0 0.0 0.0 1.0 2.8284271247461903 2.8284271247461903)"/>
        </g>
        <defs>
            <filter id="shadowFilter-p_1.13" filterUnits="userSpaceOnUse">
                <feGaussianBlur in="SourceAlpha" stdDeviation="1.7777777" result="blur"/>
                <feComponentTransfer in="blur" color-interpolation-filters="sRGB">
                    <feFuncR type="linear" slope="0" intercept="0.0"/>
                    <feFuncG type="linear" slope="0" intercept="0.0"/>
                    <feFuncB type="linear" slope="0" intercept="0.0"/>
                    <feFuncA type="linear" slope="0.4" intercept="0"/>
                </feComponentTransfer>
            </filter>
        </defs>
        <g id="p_1.13">
            <path id="" fill="#ffffff" d="m653.9927 321.71014l0 0c0 -5.859619 4.9954834 -10.609772 11.157837 -10.609772l0 0c2.9592285 0 5.7973022 1.1177979 7.8897705 3.1075134c2.0925293 1.9897156 3.2680664 4.6883545 3.2680664 7.5022583l0 0c0 5.8595886 -4.9955444 10.609741 -11.157837 10.609741l0 0c-6.1623535 0 -11.157837 -4.7501526 -11.157837 -10.609741z" fill-rule="evenodd"/>
            <path stroke="#000000" stroke-width="1.3333333333333333" stroke-miterlimit="800.0" stroke-linecap="butt" d="m653.9927 321.71014l0 0c0 -5.859619 4.9954834 -10.609772 11.157837 -10.609772l0 0c2.9592285 0 5.7973022 1.1177979 7.8897705 3.1075134c2.0925293 1.9897156 3.2680664 4.6883545 3.2680664 7.5022583l0 0c0 5.8595886 -4.9955444 10.609741 -11.157837 10.609741l0 0c-6.1623535 0 -11.157837 -4.7501526 -11.157837 -10.609741z" fill-rule="evenodd"/>
        </g>
        <g filter="url(#shadowFilter-p_1.14)">
            <use xlink:href="#p_1.14" transform="matrix(1.0 0.0 0.0 1.0 2.8284271247461903 2.8284271247461903)"/>
        </g>
        <defs>
            <filter id="shadowFilter-p_1.14" filterUnits="userSpaceOnUse">
                <feGaussianBlur in="SourceAlpha" stdDeviation="1.7777777" result="blur"/>
                <feComponentTransfer in="blur" color-interpolation-filters="sRGB">
                    <feFuncR type="linear" slope="0" intercept="0.0"/>
                    <feFuncG type="linear" slope="0" intercept="0.0"/>
                    <feFuncB type="linear" slope="0" intercept="0.0"/>
                    <feFuncA type="linear" slope="0.4" intercept="0"/>
                </feComponentTransfer>
            </filter>
        </defs>
        <g id="p_1.14">
            <path id="backButton" fill="#ffffff" d="m683.25574 321.71014l0 0c0 -5.859619 4.9955444 -10.609772 11.157837 -10.609772l0 0c2.9592896 0 5.7973022 1.1177979 7.8898315 3.1075134c2.0924683 1.9897156 3.2680664 4.6883545 3.2680664 7.5022583l0 0c0 5.8595886 -4.9955444 10.609741 -11.157898 10.609741l0 0c-6.1622925 0 -11.157837 -4.7501526 -11.157837 -10.609741z" fill-rule="evenodd"/>
            <path stroke="#000000" stroke-width="1.3333333333333333" stroke-miterlimit="800.0" stroke-linecap="butt" d="m683.25574 321.71014l0 0c0 -5.859619 4.9955444 -10.609772 11.157837 -10.609772l0 0c2.9592896 0 5.7973022 1.1177979 7.8898315 3.1075134c2.0924683 1.9897156 3.2680664 4.6883545 3.2680664 7.5022583l0 0c0 5.8595886 -4.9955444 10.609741 -11.157898 10.609741l0 0c-6.1622925 0 -11.157837 -4.7501526 -11.157837 -10.609741z" fill-rule="evenodd"/>
        </g>
        <g filter="url(#shadowFilter-p_1.15)">
            <use xlink:href="#p_1.15" transform="matrix(1.0 0.0 0.0 1.0 2.8284271247461903 2.8284271247461903)"/>
        </g>
        <defs>
            <filter id="shadowFilter-p_1.15" filterUnits="userSpaceOnUse">
                <feGaussianBlur in="SourceAlpha" stdDeviation="1.7777777" result="blur"/>
                <feComponentTransfer in="blur" color-interpolation-filters="sRGB">
                    <feFuncR type="linear" slope="0" intercept="0.0"/>
                    <feFuncG type="linear" slope="0" intercept="0.0"/>
                    <feFuncB type="linear" slope="0" intercept="0.0"/>
                    <feFuncA type="linear" slope="0.4" intercept="0"/>
                </feComponentTransfer>
            </filter>
        </defs>
        <g id="p_1.15">
            <path id="startButton" fill="#ffffff" d="m712.3085 321.71014l0 0c0 -5.859619 4.9955444 -10.609772 11.157837 -10.609772l0 0c2.9592285 0 5.7973022 1.1177979 7.8897705 3.1075134c2.0925293 1.9897156 3.2680664 4.6883545 3.2680664 7.5022583l0 0c0 5.8595886 -4.9955444 10.609741 -11.157837 10.609741l0 0c-6.1622925 0 -11.157837 -4.7501526 -11.157837 -10.609741z" fill-rule="evenodd"/>
            <path stroke="#000000" stroke-width="1.3333333333333333" stroke-miterlimit="800.0" stroke-linecap="butt" d="m712.3085 321.71014l0 0c0 -5.859619 4.9955444 -10.609772 11.157837 -10.609772l0 0c2.9592285 0 5.7973022 1.1177979 7.8897705 3.1075134c2.0925293 1.9897156 3.2680664 4.6883545 3.2680664 7.5022583l0 0c0 5.8595886 -4.9955444 10.609741 -11.157837 10.609741l0 0c-6.1622925 0 -11.157837 -4.7501526 -11.157837 -10.609741z" fill-rule="evenodd"/>
        </g>
        <path id="" fill="#ffffff" d="m744.3085 315.73196l9.684204 0l0 12.403564l-9.684204 0z" fill-rule="evenodd"/>
        <path stroke="#000000" stroke-width="1.3333333333333333" stroke-miterlimit="800.0" stroke-linecap="butt" d="m744.3085 315.73196l9.684204 0l0 12.403564l-9.684204 0z" fill-rule="evenodd"/>
        <path id="" fill="#ffffff" d="m719.25574 503.7829l0 0c0 -1.6558838 3.0507812 -2.99823 6.814087 -2.99823l0 0c3.7633057 0 6.814087 1.3423462 6.814087 2.99823l0 0c0 1.6558533 -3.0507812 2.9981995 -6.814087 2.9981995l0 0c-3.7633057 0 -6.814087 -1.3423462 -6.814087 -2.9981995z" fill-rule="evenodd"/>
        <path stroke="#000000" stroke-width="1.3333333333333333" stroke-miterlimit="800.0" stroke-linecap="butt" d="m719.25574 503.7829l0 0c0 -1.6558838 3.0507812 -2.99823 6.814087 -2.99823l0 0c3.7633057 0 6.814087 1.3423462 6.814087 2.99823l0 0c0 1.6558533 -3.0507812 2.9981995 -6.814087 2.9981995l0 0c-3.7633057 0 -6.814087 -1.3423462 -6.814087 -2.9981995z" fill-rule="evenodd"/>
        <path id="startButton" fill="#ffffff" d="m696.72943 503.7829l0 0c0 -1.6558838 3.0507812 -2.99823 6.814087 -2.99823l0 0c3.7633057 0 6.814087 1.3423462 6.814087 2.99823l0 0c0 1.6558533 -3.0507812 2.9981995 -6.814087 2.9981995l0 0c-3.7633057 0 -6.814087 -1.3423462 -6.814087 -2.9981995z" fill-rule="evenodd"/>
        <path stroke="#000000" stroke-width="1.3333333333333333" stroke-miterlimit="800.0" stroke-linecap="butt" d="m696.72943 503.7829l0 0c0 -1.6558838 3.0507812 -2.99823 6.814087 -2.99823l0 0c3.7633057 0 6.814087 1.3423462 6.814087 2.99823l0 0c0 1.6558533 -3.0507812 2.9981995 -6.814087 2.9981995l0 0c-3.7633057 0 -6.814087 -1.3423462 -6.814087 -2.9981995z" fill-rule="evenodd"/>
        <path id="rightTrigger" fill="#ffffff" d="m674.62427 503.75134l0 0c0 -1.6384583 3.0444336 -2.9666748 6.799988 -2.9666748l0 0c3.7555542 0 6.799988 1.3282166 6.799988 2.9666748l0 0c0 1.6384277 -3.0444336 2.9666748 -6.799988 2.9666748l0 0c-3.7555542 0 -6.799988 -1.3282471 -6.799988 -2.9666748z" fill-rule="evenodd"/>
        <path stroke="#000000" stroke-width="1.3333333333333333" stroke-miterlimit="800.0" stroke-linecap="butt" d="m674.62427 503.75134l0 0c0 -1.6384583 3.0444336 -2.9666748 6.799988 -2.9666748l0 0c3.7555542 0 6.799988 1.3282166 6.799988 2.9666748l0 0c0 1.6384277 -3.0444336 2.9666748 -6.799988 2.9666748l0 0c-3.7555542 0 -6.799988 -1.3282471 -6.799988 -2.9666748z" fill-rule="evenodd"/>
        <path id="rightBumper" fill="#ffffff" d="m652.5189 503.75134l0 0c0 -1.6384583 3.0444946 -2.9666748 6.800049 -2.9666748l0 0c3.7554932 0 6.799988 1.3282166 6.799988 2.9666748l0 0c0 1.6384277 -3.0444946 2.9666748 -6.799988 2.9666748l0 0c-3.7555542 0 -6.800049 -1.3282471 -6.800049 -2.9666748z" fill-rule="evenodd"/>
        <path stroke="#000000" stroke-width="1.3333333333333333" stroke-miterlimit="800.0" stroke-linecap="butt" d="m652.5189 503.75134l0 0c0 -1.6384583 3.0444946 -2.9666748 6.800049 -2.9666748l0 0c3.7554932 0 6.799988 1.3282166 6.799988 2.9666748l0 0c0 1.6384277 -3.0444946 2.9666748 -6.799988 2.9666748l0 0c-3.7555542 0 -6.800049 -1.3282471 -6.800049 -2.9666748z" fill-rule="evenodd"/>
        <path id="aButton" fill="#ffffff" d="m629.9927 503.54074l0 0c0 -1.6384583 3.0444336 -2.9666748 6.799988 -2.9666748l0 0c3.7554932 0 6.799988 1.3282166 6.799988 2.9666748l0 0c0 1.6384277 -3.0444946 2.9666748 -6.799988 2.9666748l0 0c-3.7555542 0 -6.799988 -1.3282471 -6.799988 -2.9666748z" fill-rule="evenodd"/>
        <path stroke="#000000" stroke-width="1.3333333333333333" stroke-miterlimit="800.0" stroke-linecap="butt" d="m629.9927 503.54074l0 0c0 -1.6384583 3.0444336 -2.9666748 6.799988 -2.9666748l0 0c3.7554932 0 6.799988 1.3282166 6.799988 2.9666748l0 0c0 1.6384277 -3.0444946 2.9666748 -6.799988 2.9666748l0 0c-3.7555542 0 -6.799988 -1.3282471 -6.799988 -2.9666748z" fill-rule="evenodd"/>
        <path id="bButton" fill="#ffffff" d="m607.8873 503.33023l0 0c0 -1.6384277 3.0444946 -2.9666748 6.800049 -2.9666748l0 0c3.7554932 0 6.799988 1.3282471 6.799988 2.9666748l0 0c0 1.6384583 -3.0444946 2.9666748 -6.799988 2.9666748l0 0c-3.7555542 0 -6.800049 -1.3282166 -6.800049 -2.9666748z" fill-rule="evenodd"/>
        <path stroke="#000000" stroke-width="1.3333333333333333" stroke-miterlimit="800.0" stroke-linecap="butt" d="m607.8873 503.33023l0 0c0 -1.6384277 3.0444946 -2.9666748 6.800049 -2.9666748l0 0c3.7554932 0 6.799988 1.3282471 6.799988 2.9666748l0 0c0 1.6384583 -3.0444946 2.9666748 -6.799988 2.9666748l0 0c-3.7555542 0 -6.800049 -1.3282166 -6.800049 -2.9666748z" fill-rule="evenodd"/>
        <path id="xButton" fill="#ffffff" d="m585.57153 502.90912l0 0c0 -1.6384277 3.0444946 -2.9666443 6.799988 -2.9666443l0 0c3.7555542 0 6.800049 1.3282166 6.800049 2.9666443l0 0c0 1.6384583 -3.0444946 2.9666748 -6.800049 2.9666748l0 0c-3.7554932 0 -6.799988 -1.3282166 -6.799988 -2.9666748z" fill-rule="evenodd"/>
        <path stroke="#000000" stroke-width="1.3333333333333333" stroke-miterlimit="800.0" stroke-linecap="butt" d="m585.57153 502.90912l0 0c0 -1.6384277 3.0444946 -2.9666443 6.799988 -2.9666443l0 0c3.7555542 0 6.800049 1.3282166 6.800049 2.9666443l0 0c0 1.6384583 -3.0444946 2.9666748 -6.800049 2.9666748l0 0c-3.7554932 0 -6.799988 -1.3282166 -6.799988 -2.9666748z" fill-rule="evenodd"/>
        <path id="leftStick" fill="#ffffff" d="m518.41364 502.90912l0 0c0 -1.6384277 3.0444946 -2.9666443 6.799988 -2.9666443l0 0c3.7555542 0 6.800049 1.3282166 6.800049 2.9666443l0 0c0 1.6384583 -3.0444946 2.9666748 -6.800049 2.9666748l0 0c-3.7554932 0 -6.799988 -1.3282166 -6.799988 -2.9666748z" fill-rule="evenodd"/>
        <path stroke="#000000" stroke-width="1.3333333333333333" stroke-miterlimit="800.0" stroke-linecap="butt" d="m518.41364 502.90912l0 0c0 -1.6384277 3.0444946 -2.9666443 6.799988 -2.9666443l0 0c3.7555542 0 6.800049 1.3282166 6.800049 2.9666443l0 0c0 1.6384583 -3.0444946 2.9666748 -6.800049 2.9666748l0 0c-3.7554932 0 -6.799988 -1.3282166 -6.799988 -2.9666748z" fill-rule="evenodd"/>
        <path id="leftStick" fill="#ffffff" d="m495.88736 502.90912l0 0c0 -1.6384277 3.044464 -2.9666443 6.799988 -2.9666443l0 0c3.7555237 0 6.799988 1.3282166 6.799988 2.9666443l0 0c0 1.6384583 -3.044464 2.9666748 -6.799988 2.9666748l0 0c-3.7555237 0 -6.799988 -1.3282166 -6.799988 -2.9666748z" fill-rule="evenodd"/>
        <path stroke="#000000" stroke-width="1.3333333333333333" stroke-miterlimit="800.0" stroke-linecap="butt" d="m495.88736 502.90912l0 0c0 -1.6384277 3.044464 -2.9666443 6.799988 -2.9666443l0 0c3.7555237 0 6.799988 1.3282166 6.799988 2.9666443l0 0c0 1.6384583 -3.044464 2.9666748 -6.799988 2.9666748l0 0c-3.7555237 0 -6.799988 -1.3282166 -6.799988 -2.9666748z" fill-rule="evenodd"/>
        <path id="leftStick" fill="#ffffff" d="m473.78217 502.90912l0 0c0 -1.6384277 3.044464 -2.9666443 6.799988 -2.9666443l0 0c3.7555237 0 6.799988 1.3282166 6.799988 2.9666443l0 0c0 1.6384583 -3.044464 2.9666748 -6.799988 2.9666748l0 0c-3.7555237 0 -6.799988 -1.3282166 -6.799988 -2.9666748z" fill-rule="evenodd"/>
        <path stroke="#000000" stroke-width="1.3333333333333333" stroke-miterlimit="800.0" stroke-linecap="butt" d="m473.78217 502.90912l0 0c0 -1.6384277 3.044464 -2.9666443 6.799988 -2.9666443l0 0c3.7555237 0 6.799988 1.3282166 6.799988 2.9666443l0 0c0 1.6384583 -3.044464 2.9666748 -6.799988 2.9666748l0 0c-3.7555237 0 -6.799988 -1.3282166 -6.799988 -2.9666748z" fill-rule="evenodd"/>
        <path id="leftBumper" fill="#ffffff" d="m451.46634 502.90912l0 0c0 -1.6384277 3.044464 -2.9666443 6.8000183 -2.9666443l0 0c3.7555237 0 6.799988 1.3282166 6.799988 2.9666443l0 0c0 1.6384583 -3.044464 2.9666748 -6.799988 2.9666748l0 0c-3.7555542 0 -6.8000183 -1.3282166 -6.8000183 -2.9666748z" fill-rule="evenodd"/>
        <path stroke="#000000" stroke-width="1.3333333333333333" stroke-miterlimit="800.0" stroke-linecap="butt" d="m451.46634 502.90912l0 0c0 -1.6384277 3.044464 -2.9666443 6.8000183 -2.9666443l0 0c3.7555237 0 6.799988 1.3282166 6.799988 2.9666443l0 0c0 1.6384583 -3.044464 2.9666748 -6.799988 2.9666748l0 0c-3.7555542 0 -6.8000183 -1.3282166 -6.8000183 -2.9666748z" fill-rule="evenodd"/>
        <path id="leftTrigger" fill="#ffffff" d="m428.94006 502.69864l0 0c0 -1.6384583 3.044464 -2.9666748 6.799988 -2.9666748l0 0c3.7555237 0 6.799988 1.3282166 6.799988 2.9666748l0 0c0 1.6384277 -3.044464 2.9666748 -6.799988 2.9666748l0 0c-3.7555237 0 -6.799988 -1.3282471 -6.799988 -2.9666748z" fill-rule="evenodd"/>
        <path stroke="#000000" stroke-width="1.3333333333333333" stroke-miterlimit="800.0" stroke-linecap="butt" d="m428.94006 502.69864l0 0c0 -1.6384583 3.044464 -2.9666748 6.799988 -2.9666748l0 0c3.7555237 0 6.799988 1.3282166 6.799988 2.9666748l0 0c0 1.6384277 -3.044464 2.9666748 -6.799988 2.9666748l0 0c-3.7555237 0 -6.799988 -1.3282471 -6.799988 -2.9666748z" fill-rule="evenodd"/>
        <path id="backButton" fill="#ffffff" d="m407.04526 502.48813l0 0c0 -1.6384277 3.044464 -2.9666443 6.799988 -2.9666443l0 0c3.7555542 0 6.8000183 1.3282166 6.8000183 2.9666443l0 0c0 1.6384583 -3.044464 2.9666748 -6.8000183 2.9666748l0 0c-3.7555237 0 -6.799988 -1.3282166 -6.799988 -2.9666748z" fill-rule="evenodd"/>
        <path stroke="#000000" stroke-width="1.3333333333333333" stroke-miterlimit="800.0" stroke-linecap="butt" d="m407.04526 502.48813l0 0c0 -1.6384277 3.044464 -2.9666443 6.799988 -2.9666443l0 0c3.7555542 0 6.8000183 1.3282166 6.8000183 2.9666443l0 0c0 1.6384583 -3.044464 2.9666748 -6.8000183 2.9666748l0 0c-3.7555237 0 -6.799988 -1.3282166 -6.799988 -2.9666748z" fill-rule="evenodd"/>
        <path id="" fill="#ffffff" d="m384.51895 502.48813l0 0c0 -1.6384277 3.044464 -2.9666443 6.799988 -2.9666443l0 0c3.7555542 0 6.8000183 1.3282166 6.8000183 2.9666443l0 0c0 1.6384583 -3.044464 2.9666748 -6.8000183 2.9666748l0 0c-3.7555237 0 -6.799988 -1.3282166 -6.799988 -2.9666748z" fill-rule="evenodd"/>
        <path stroke="#000000" stroke-width="1.3333333333333333" stroke-miterlimit="800.0" stroke-linecap="butt" d="m384.51895 502.48813l0 0c0 -1.6384277 3.044464 -2.9666443 6.799988 -2.9666443l0 0c3.7555542 0 6.8000183 1.3282166 6.8000183 2.9666443l0 0c0 1.6384583 -3.044464 2.9666748 -6.8000183 2.9666748l0 0c-3.7555237 0 -6.799988 -1.3282166 -6.799988 -2.9666748z" fill-rule="evenodd"/>
        <path id="leftStick" fill="#ffffff" d="m541.1506 502.90912l0 0c0 -1.6384277 3.0444336 -2.9666443 6.799988 -2.9666443l0 0c3.7555542 0 6.799988 1.3282166 6.799988 2.9666443l0 0c0 1.6384583 -3.0444336 2.9666748 -6.799988 2.9666748l0 0c-3.7555542 0 -6.799988 -1.3282166 -6.799988 -2.9666748z" fill-rule="evenodd"/>
        <path stroke="#000000" stroke-width="1.3333333333333333" stroke-miterlimit="800.0" stroke-linecap="butt" d="m541.1506 502.90912l0 0c0 -1.6384277 3.0444336 -2.9666443 6.799988 -2.9666443l0 0c3.7555542 0 6.799988 1.3282166 6.799988 2.9666443l0 0c0 1.6384583 -3.0444336 2.9666748 -6.799988 2.9666748l0 0c-3.7555542 0 -6.799988 -1.3282166 -6.799988 -2.9666748z" fill-rule="evenodd"/>
        <path id="yButton" fill="#ffffff" d="m563.0452 502.90912l0 0c0 -1.6384277 3.0444946 -2.9666443 6.800049 -2.9666443l0 0c3.7554932 0 6.799988 1.3282166 6.799988 2.9666443l0 0c0 1.6384583 -3.0444946 2.9666748 -6.799988 2.9666748l0 0c-3.7555542 0 -6.800049 -1.3282166 -6.800049 -2.9666748z" fill-rule="evenodd"/>
        <path stroke="#000000" stroke-width="1.3333333333333333" stroke-miterlimit="800.0" stroke-linecap="butt" d="m563.0452 502.90912l0 0c0 -1.6384277 3.0444946 -2.9666443 6.800049 -2.9666443l0 0c3.7554932 0 6.799988 1.3282166 6.799988 2.9666443l0 0c0 1.6384583 -3.0444946 2.9666748 -6.799988 2.9666748l0 0c-3.7555542 0 -6.800049 -1.3282166 -6.800049 -2.9666748z" fill-rule="evenodd"/>
        <path fill="#000000" fill-opacity="0.0" d="m446.37448 326.0147l3.2282104 -5.5759583l3.22818 5.5759583z" fill-rule="evenodd"/>
        <path stroke="#000000" stroke-width="1.3333333333333333" stroke-miterlimit="800.0" stroke-linecap="butt" d="m446.37448 326.0147l3.2282104 -5.5759583l3.22818 5.5759583z" fill-rule="evenodd"/>
        <path fill="#000000" fill-opacity="0.0" d="m379.18604 394.79297l-5.5759583 -3.22818l5.5759583 -3.2282104z" fill-rule="evenodd"/>
        <path stroke="#000000" stroke-width="1.3333333333333333" stroke-miterlimit="800.0" stroke-linecap="butt" d="m379.18604 394.79297l-5.5759583 -3.22818l5.5759583 -3.2282104z" fill-rule="evenodd"/>
        <path fill="#000000" fill-opacity="0.0" d="m452.6023 456.95306l-3.22818 5.5759583l-3.22818 -5.5759583z" fill-rule="evenodd"/>
        <path stroke="#000000" stroke-width="1.3333333333333333" stroke-miterlimit="800.0" stroke-linecap="butt" d="m452.6023 456.95306l-3.22818 5.5759583l-3.22818 -5.5759583z" fill-rule="evenodd"/>
        <path fill="#000000" fill-opacity="0.0" d="m519.9529 394.79297l5.5759277 -3.22818l-5.5759277 -3.2282104z" fill-rule="evenodd"/>
        <path stroke="#000000" stroke-width="1.3333333333333333" stroke-miterlimit="800.0" stroke-linecap="butt" d="m519.9529 394.79297l5.5759277 -3.22818l-5.5759277 -3.2282104z" fill-rule="evenodd"/>
        <path fill="#000000" fill-opacity="0.0" d="m645.2888 394.09595l34.0 0l0 26.266663l-34.0 0z" fill-rule="evenodd"/>
        <path fill="#000000" d="m660.1482 407.6322l-2.59375 0l-0.390625 1.34375l-2.9375 0l3.171875 -8.453125l2.984375 0l3.171875 8.453125l-3.0 0l-0.40625 -1.34375zm-0.625 -2.09375l-0.671875 -2.15625l-0.65625 2.15625l1.328125 0z" fill-rule="nonzero"/>
        <path fill="#000000" fill-opacity="0.0" d="m576.26025 405.75308l34.0 0l0 35.881256l-34.0 0z" fill-rule="evenodd"/>
        <path fill="#000000"
              d="m586.0884 412.17993l4.875 0q1.234375 0 1.90625 0.625q0.6875 0.625 0.6875 1.5625q0 0.78125 -0.5 1.34375q-0.328125 0.375 -0.390625 0.40625q0.359375 0.078125 0.8125 0.640625q0.453125 0.5625 0.453125 1.390625q0 0.6875 -0.3125 1.234375q-0.3125 0.53125 -0.859375 0.84375q-0.34375 0.21875 -1.03125 0.296875q-0.84375 0.109375 -1.140625 0.109375l-4.5 0l0 -8.453125zm2.875 3.1875l0.921875 0q0.515625 0 0.6875 -0.15625q0.1875 -0.15625 0.1875 -0.46875q0 -0.265625 -0.1875 -0.421875q-0.171875 -0.15625 -0.671875 -0.15625l-0.9375 0l0 1.203125zm0 3.171875l1.109375 0q0.578125 0 0.78125 -0.171875q0.21875 -0.1875 0.21875 -0.5q0 -0.28125 -0.203125 -0.453125q-0.203125 -0.171875 -0.796875 -0.171875l-1.109375 0l0 1.296875z"
              fill-rule="nonzero"/>
        <path fill="#000000" fill-opacity="0.0" d="m604.60315 340.15308l34.0 0l0 32.50006l-34.0 0z" fill-rule="evenodd"/>
        <path fill="#000000" d="m613.4625 346.57996l3.203125 0l1.546875 2.578125l1.53125 -2.578125l3.1875 0l-3.296875 4.9375l0 3.515625l-2.859375 0l0 -3.515625l-3.3125 -4.9375z" fill-rule="nonzero"/>
        <path fill="#000000" fill-opacity="0.0" d="m680.71735 336.2673l34.0 0l0 32.50003l-34.0 0z" fill-rule="evenodd"/>
        <path fill="#000000" d="m689.84235 342.69418l3.171875 0l1.34375 2.328125l1.296875 -2.328125l3.140625 0l-2.625 4.09375l2.859375 4.359375l-3.21875 0l-1.5 -2.453125l-1.515625 2.453125l-3.203125 0l2.90625 -4.390625l-2.65625 -4.0625z" fill-rule="nonzero"/>
        <path fill="#000000" fill-opacity="0.0" d="m718.4317 393.8673l34.0 0l0 26.266663l-34.0 0z" fill-rule="evenodd"/>
        <path fill="#000000"
              d="m728.2911 408.74728l0 -8.453125l4.34375 0q1.203125 0 1.84375 0.21875q0.65625 0.21875 1.0625 0.796875q0.421875 0.578125 0.421875 1.40625q0 0.71875 -0.3125 1.25q-0.3125 0.53125 -0.84375 0.84375q-0.359375 0.21875 -0.484375 0.21875q0.03125 -0.03125 0.25 0.125q0.15625 0.109375 0.4375 0.453125q0.296875 0.34375 0.375 0.546875l1.34375 2.59375l-3.234375 0l-1.375 -2.578125q-0.25 -0.4375 -0.40625 -0.5625q-0.21875 -0.15625 -0.515625 -0.15625l-0.046875 0l0 3.296875l-2.859375 0zm2.859375 -5.171875l0.890625 0q0.15625 0 0.625 -0.109375q0.1875 -0.03125 0.3125 -0.1875q0.125 -0.15625 0.125 -0.359375q0 -0.3125 -0.203125 -0.46875q-0.1875 -0.171875 -0.8125 -0.171875l-0.9375 0l0 1.296875z"
              fill-rule="nonzero"/>
        <path fill="#000000" fill-opacity="0.0" d="m755.46027 335.58163l34.0 0l0 26.266663l-34.0 0z" fill-rule="evenodd"/>
        <path fill="#000000" d="m765.2884 342.0085l2.84375 0l0 6.109375l3.921875 0l0 2.34375l-6.765625 0l0 -8.453125z" fill-rule="nonzero"/>
        <path fill="#000000" d="m632.92316 295.51306l6.996338 0l0 6.740387l-6.996338 0z" fill-rule="evenodd"/>
        <path stroke="#000000" stroke-width="1.0" stroke-miterlimit="800.0" stroke-linecap="butt" d="m632.92316 295.51306l6.996338 0l0 6.740387l-6.996338 0z" fill-rule="evenodd"/>
        <path fill="#757070" d="m634.6359 298.86084l0 0c0 -0.9849243 0.79467773 -1.7833557 1.7749634 -1.7833557l0 0c0.47076416 0 0.9222412 0.18786621 1.255127 0.52230835c0.33288574 0.33447266 0.51989746 0.7880554 0.51989746 1.2610474l0 0c0 0.9848938 -0.79467773 1.7833252 -1.7750244 1.7833252l0 0c-0.98028564 0 -1.7749634 -0.7984314 -1.7749634 -1.7833252z" fill-rule="evenodd"/>
        <path stroke="#757070" stroke-width="1.0" stroke-miterlimit="800.0" stroke-linecap="butt" d="m634.6359 298.86084l0 0c0 -0.9849243 0.79467773 -1.7833557 1.7749634 -1.7833557l0 0c0.47076416 0 0.9222412 0.18786621 1.255127 0.52230835c0.33288574 0.33447266 0.51989746 0.7880554 0.51989746 1.2610474l0 0c0 0.9848938 -0.79467773 1.7833252 -1.7750244 1.7833252l0 0c-0.98028564 0 -1.7749634 -0.7984314 -1.7749634 -1.7833252z" fill-rule="evenodd"/>
        <path fill="#000000" d="m661.6431 298.80185l3.8740234 -3.2087708l3.8740234 3.2087708l-0.9730835 0l0 3.2087402l-5.801819 0l0 -3.2087402z" fill-rule="evenodd"/>
        <path stroke="#000000" stroke-width="1.0" stroke-miterlimit="800.0" stroke-linecap="butt" d="m661.6431 298.80185l3.8740234 -3.2087708l3.8740234 3.2087708l-0.9730835 0l0 3.2087402l-5.801819 0l0 -3.2087402z" fill-rule="evenodd"/>
        <path fill="#757070" d="m664.6939 299.24222l1.6030273 0l0 1.3370056l-1.6030273 0z" fill-rule="evenodd"/>
        <path fill="#000000" fill-opacity="0.0" d="m691.0032 299.03308l7.258972 0" fill-rule="evenodd"/>
        <path stroke="#000000" stroke-width="2.0" stroke-miterlimit="800.0" stroke-linecap="butt" d="m691.0032 299.03308l7.258972 0" fill-rule="evenodd"/>
        <path fill="#000000" fill-opacity="0.0" d="m710.04315 285.59308l25.958923 0l0 26.315796l-25.958923 0z" fill-rule="evenodd"/>
        <path fill="#000000" d="m719.7463 295.19183l2.125 0l0 -2.140625l2.125 0l0 2.140625l2.125 0l0 2.125l-2.125 0l0 2.125l-2.125 0l0 -2.125l-2.125 0l0 -2.125z" fill-rule="nonzero"/>
        <path fill="#000000" fill-opacity="0.0" d="m366.04474 416.9139l23.464691 55.450073l-24.235199 10.255554l-23.464691 -55.450073z" fill-rule="evenodd"/>
        <path fill="#000000"
              d="m359.03305 430.31534l5.237854 -2.2164612l0.45059204 1.0648193l-4.3456726 1.8389587l1.1204224 2.647705l-0.8921509 0.37753296l-1.5710449 -3.712555zm3.2537231 3.759735l1.0072632 -0.426239l0.8403015 1.9857483l-1.0072632 0.42626953l-0.8403015 -1.9857788zm1.27948 2.1816711l0.53915405 0.9934082q-0.48147583 0.3055725 -0.6043091 0.6968689q-0.12286377 0.3913269 0.084198 0.8805542q0.21310425 0.5036316 0.5385742 0.6713257q0.33151245 0.18206787 0.6336975 0.05419922q0.18707275 -0.0791626 0.2678833 -0.24908447q0.08078003 -0.16992188 0.0657959 -0.4859619q-0.021575928 -0.21142578 -0.12902832 -0.94641113q-0.1578064 -0.9342346 0.012634277 -1.4135437q0.2246399 -0.67193604 0.8577881 -0.93984985q0.40292358 -0.17050171 0.8457031 -0.08642578q0.44277954 0.084106445 0.806427 0.4222412q0.36975098 0.35253906 0.6315918 0.97128296q0.4201355 0.9928894 0.18109131 1.6708984q-0.2185669 0.6863098 -0.9258728 1.0195618l-0.4937439 -1.0465698q0.37243652 -0.24246216 0.44769287 -0.54574585q0.09573364 -0.29501343 -0.093048096 -0.74108887q-0.19485474 -0.46047974 -0.5119934 -0.6486206q-0.18209839 -0.10958862 -0.38354492 -0.02432251q-0.18707275 0.0791626 -0.26397705 0.29833984q-0.07305908 0.26843262 0.06869507 1.1246338q0.14175415 0.8562012 0.0925293 1.301178q-0.028747559 0.4533081 -0.28274536 0.8152771q-0.23962402 0.355896 -0.7432556 0.56903076q-0.46047974 0.19485474 -0.97299194 0.10635376q-0.4920349 -0.08023071 -0.8883362 -0.45544434q-0.3819275 -0.38131714 -0.67422485 -1.0720215q-0.426239 -1.0072632 -0.19107056 -1.7345276q0.24954224 -0.7333679 1.0846863 -1.2055359zm5.047241 6.033478l-0.80581665 0.34100342l-0.29226685 -0.69070435l-1.5397034 0.6515503q-0.47485352 0.20095825 -0.55511475 0.25186157q-0.06585693 0.04486084 -0.09295654 0.1411438q-0.01272583 0.09020996 0.029907227 0.19094849q0.06088257 0.14389038 0.27120972 0.36029053l-0.74050903 0.41516113q-0.30441284 -0.27838135 -0.49319458 -0.7244568q-0.11569214 -0.27340698 -0.12677002 -0.54016113q0.009399414 -0.2584839 0.11065674 -0.42010498q0.10128784 -0.1616211 0.32763672 -0.30828857q0.17489624 -0.107940674 0.7073059 -0.33325195l1.6691895 -0.70635986l-0.19485474 -0.46044922l0.80581665 -0.34100342l0.19485474 0.46044922l0.7482605 -0.31661987l1.0223083 0.7720032l-1.3382263 0.5662842l0.29226685 0.69070435zm0.813385 0.47869873l0.93530273 -0.395813l0.42626953 1.0072937l-0.93533325 0.39578247l-0.426239 -1.0072632zm-4.3456726 1.8389587l3.8276367 -1.619751l0.426239 1.0072632l-3.8276367 1.619751l-0.426239 -1.0072632zm4.9636536 4.232239l-0.5928345 -0.9198303q0.26953125 -0.16494751 0.33425903 -0.41290283q0.085235596 -0.23965454 -0.03656006 -0.5274353q-0.1583252 -0.3741455 -0.5147705 -0.4947815q-0.3503418 -0.10623169 -0.9547119 0.14950562q-0.69070435 0.29229736 -0.887146 0.62991333q-0.17599487 0.34594727 -0.011566162 0.73446655q0.12176514 0.28778076 0.3592224 0.40786743q0.25183105 0.11401367 0.68518066 0.0154418945l0.24749756 1.065979q-0.74331665 0.12789917 -1.2918091 -0.16595459q-0.52801514 -0.28555298 -0.8385925 -1.0194092q-0.3531494 -0.8345947 -0.03387451 -1.5635376q0.31930542 -0.7289429 1.2546387 -1.1247559q0.93530273 -0.39578247 1.6808472 -0.11746216q0.74554443 0.27835083 1.1047974 1.1273193q0.29840088 0.70510864 0.16671753 1.2358704q-0.12561035 0.54519653 -0.67129517 0.9797058zm-2.381836 1.8689575l5.281006 -2.2347412l0.43234253 1.0216675l-2.8059998 1.1873779l1.8519592 0.60757446l0.52368164 1.2375183l-1.9438477 -0.70440674l-1.8411865 2.4248657l-0.46276855 -1.0936279l1.3043823 -1.6887207l-0.68411255 -0.25341797l-1.223114 0.5175781l-0.43234253 -1.0216675z"
              fill-rule="nonzero"/>
        <path fill="#000000" fill-opacity="0.0" d="m358.0916 386.42294l23.464691 55.450104l-34.5383 14.6154785l-23.464691 -55.450073z" fill-rule="evenodd"/>
        <path fill="#000000"
              d="m352.2222 399.23926l4.3456726 -1.8389587l0.37142944 0.8777771l-3.611786 1.5283813l0.9316406 2.2016296l-0.7338562 0.31054688l-1.3031006 -3.0793762zm2.695282 3.121704l0.848999 -0.35928345l0.69415283 1.6404419l-0.8489685 0.35925293l-0.69418335 -1.6404114zm1.0680542 1.8022156l0.45169067 0.82684326q-0.39517212 0.26901245 -0.49920654 0.5845032q-0.09793091 0.3298645 0.0725708 0.7327881q0.18267822 0.43167114 0.4466858 0.5744629q0.27841187 0.13665771 0.5230408 0.03314209q0.14389038 -0.06088257 0.21636963 -0.21032715q0.07858276 -0.13504028 0.053100586 -0.39572144q-0.009399414 -0.1826477 -0.09689331 -0.79034424q-0.13180542 -0.7925415 0.005432129 -1.1899414q0.1892395 -0.55514526 0.7072754 -0.774353q0.33096313 -0.14007568 0.6979065 -0.074798584q0.38745117 0.0736084 0.68356323 0.37243652q0.31051636 0.29275513 0.5236511 0.79641724q0.34707642 0.8201904 0.16390991 1.38974q-0.18313599 0.56951904 -0.7753296 0.8540344l-0.4206848 -0.87387085q0.3209839 -0.20370483 0.38571167 -0.45166016q0.06472778 -0.24795532 -0.093566895 -0.62210083q-0.16442871 -0.3885193 -0.41403198 -0.53738403q-0.1616211 -0.101257324 -0.33432007 -0.028198242q-0.15826416 0.066986084 -0.20419312 0.23910522q-0.0708313 0.23358154 0.044891357 0.9480896q0.13012695 0.70843506 0.08532715 1.0836792q-0.02432251 0.38354492 -0.23904419 0.67800903q-0.2003479 0.2883911 -0.61764526 0.46496582q-0.374115 0.1583252 -0.79641724 0.08251953q-0.41622925 -0.061401367 -0.7389221 -0.38293457q-0.31658936 -0.30715942 -0.56018066 -0.88272095q-0.3531494 -0.8345947 -0.16778564 -1.4389954q0.19973755 -0.61050415 0.8970947 -1.0073853zm4.1981506 5.029358l-0.67630005 0.28619385l-0.24359131 -0.57559204l-1.2806702 0.54193115q-0.3885193 0.16442871 -0.45437622 0.20925903q-0.051483154 0.038757324 -0.07028198 0.11456299q-0.018829346 0.07583618 0.017730713 0.16217041q0.048706055 0.115112305 0.23248291 0.30880737l-0.61709595 0.34597778q-0.25738525 -0.24737549 -0.41571045 -0.621521q-0.09133911 -0.21585083 -0.09854126 -0.4333496q0.007171631 -0.2236023 0.085754395 -0.35864258q0.07858276 -0.1350708 0.28225708 -0.255188q0.13171387 -0.089660645 0.5777893 -0.27844238l1.3814087 -0.5845642l-0.16442871 -0.3885193l0.67633057 -0.28619385l0.1643982 0.3885193l0.6331482 -0.26791382l0.84851074 0.64193726l-1.1223755 0.4749756l0.24356079 0.57559204zm0.6805115 0.40530396l0.7770386 -0.3288269l0.35317993 0.8345947l-0.7770386 0.3288269l-0.35317993 -0.8345947zm-3.6118164 1.5283813l3.1801147 -1.3457031l0.35317993 0.8345947l-3.1801147 1.3457031l-0.35317993 -0.8345947zm4.134613 3.5160217l-0.5053711 -0.75323486q0.2263794 -0.146698 0.2888794 -0.35977173q0.06863403 -0.19869995 -0.028808594 -0.42895508q-0.13394165 -0.31655884 -0.42895508 -0.41229248q-0.29501343 -0.09573364 -0.8130493 0.12347412q-0.56118774 0.2374878 -0.71224976 0.52197266q-0.15109253 0.28451538 -0.017120361 0.6010742q0.103515625 0.2446289 0.2939148 0.33370972q0.21087646 0.09741211 0.57229614 0.029296875l0.20318604 0.8811035q-0.6304016 0.11407471 -1.0765076 -0.13827515q-0.44003296 -0.23794556 -0.69577026 -0.8423157q-0.29837036 -0.70510864 -0.043273926 -1.3050842q0.27557373 -0.5916748 1.0526123 -0.9205017q0.7914429 -0.3348999 1.3997192 -0.10028076q0.62268066 0.22854614 0.921051 0.93362427q0.24356079 0.57559204 0.13067627 1.0305481q-0.098480225 0.44888306 -0.54122925 0.8059082zm-1.989502 1.5531311l4.3888245 -1.8572083l0.35928345 0.8489685l-2.3311157 0.9864807l1.536438 0.5035095l0.43844604 1.0360718l-1.6222534 -0.58599854l-1.5213318 2.0180664l-0.38363647 -0.9065552l1.0835876 -1.4086609l-0.5673218 -0.21801758l-1.0216675 0.43234253l-0.35925293 -0.848999z"
              fill-rule="nonzero"/>
        <path fill="#000000"
              d="m349.23135 400.47095l0.7428894 1.7555237q0.21920776 0.5180359 0.28564453 0.7953186q0.06643677 0.2772827 0.0078125 0.5396118q-0.044281006 0.2562561 -0.21969604 0.48321533q-0.16934204 0.24130249 -0.45715332 0.36309814q-0.30215454 0.12786865 -0.6342468 0.06478882q-0.32598877 -0.048675537 -0.577301 -0.28164673q0.055389404 0.45159912 -0.14105225 0.7892456q-0.18206787 0.33154297 -0.57058716 0.49594116q-0.28781128 0.121795654 -0.6364746 0.09967041q-0.34869385 -0.022094727 -0.6248779 -0.19366455q-0.2557373 -0.16323853 -0.45114136 -0.5047302q-0.12011719 -0.2036438 -0.47937012 -1.0526428l-0.63327026 -1.496521l4.3888245 -1.8572083zm-0.35632324 1.2026978l-1.0072937 0.426239l0.24359131 0.57559204q0.21920776 0.5180359 0.2883911 0.641449q0.1262207 0.2180481 0.31051636 0.29275513q0.18432617 0.07470703 0.3857727 -0.010528564q0.21585083 -0.09133911 0.28225708 -0.255188q0.08078003 -0.16992188 0.018218994 -0.39794922q-0.040405273 -0.1355896 -0.3083496 -0.7687378l-0.21310425 -0.5036316zm-1.7411499 0.7367859l-1.1799622 0.4993286l0.34710693 0.82022095q0.20092773 0.47485352 0.28451538 0.5921631q0.12841797 0.18319702 0.30664062 0.24349976q0.19869995 0.06863403 0.42892456 -0.028808594q0.20144653 -0.085235596 0.28833008 -0.24078369q0.10736084 -0.1472168 0.08578491 -0.35864258q-0.0011291504 -0.203125 -0.26296997 -0.8218689l-0.29837036 -0.70510864zm0.4649048 6.4310913l0.47485352 -0.20092773q-0.3320923 -0.063079834 -0.5977783 -0.28997803q-0.25958252 -0.2124939 -0.3935547 -0.52908325q-0.14004517 -0.33096313 -0.10574341 -0.6508789q0.040374756 -0.30551147 0.23626709 -0.5241394q0.21029663 -0.22473145 0.6564026 -0.41348267l2.0145264 -0.85250854l0.35928345 0.848999l-1.4677429 0.62109375q-0.66192627 0.28012085 -0.8019409 0.3902588q-0.12564087 0.10406494 -0.16326904 0.2557068q-0.03152466 0.16604614 0.04763794 0.3531189q0.09133911 0.21585083 0.2795105 0.33981323q0.1882019 0.1239624 0.3852234 0.10845947q0.203125 -0.0011291504 0.89382935 -0.2934265l1.3382263 -0.5662842l0.35317993 0.8345947l-3.1801147 1.3457031l-0.3287964 -0.7770386zm4.496704 1.7655945l-0.67633057 0.28619385l-0.24356079 -0.57559204l-1.2806702 0.54193115q-0.3885193 0.16442871 -0.45437622 0.20925903q-0.051483154 0.038757324 -0.07028198 0.11456299q-0.018829346 0.07583618 0.017730713 0.16217041q0.048706055 0.115112305 0.2324524 0.30880737l-0.6170654 0.34597778q-0.25738525 -0.24737549 -0.41571045 -0.621521q-0.09133911 -0.21585083 -0.09854126 -0.4333496q0.007171631 -0.2236023 0.085754395 -0.35864258q0.07858276 -0.1350708 0.28225708 -0.255188q0.13171387 -0.089660645 0.5777893 -0.27844238l1.3814087 -0.5845642l-0.16442871 -0.3885193l0.67633057 -0.28619385l0.1643982 0.3885193l0.6331482 -0.26791382l0.84851074 0.64193726l-1.1223755 0.4749756l0.24356079 0.57559204zm0.86383057 2.0413208l-0.67633057 0.28619385l-0.24356079 -0.57559204l-1.2806702 0.54196167q-0.3885193 0.1643982 -0.45437622 0.20922852q-0.051483154 0.038757324 -0.07028198 0.114593506q-0.018829346 0.075805664 0.017700195 0.1621399q0.048736572 0.11514282 0.23248291 0.3088379l-0.6170654 0.34594727q-0.25738525 -0.24737549 -0.41571045 -0.6214905q-0.09133911 -0.21585083 -0.09854126 -0.43338013q0.007171631 -0.2236023 0.085754395 -0.35864258q0.07858276 -0.13504028 0.28225708 -0.25515747q0.13171387 -0.08969116 0.5777893 -0.27844238l1.3814087 -0.5845642l-0.16442871 -0.3885193l0.67633057 -0.28619385l0.1643982 0.3885193l0.6331482 -0.26794434l0.84851074 0.6419678l-1.122406 0.47494507l0.24359131 0.57559204zm-1.3761292 1.0380859q0.41729736 -0.17660522 0.89105225 -0.13955688q0.4798584 0.051452637 0.83966064 0.34033203q0.3741455 0.28277588 0.57510376 0.7576294q0.30444336 0.7194824 0.02444458 1.3809204q-0.26559448 0.65530396 -0.9850769 0.95977783q-0.7194824 0.30444336 -1.3952942 0.030548096q-0.66970825 -0.25952148 -0.9680786 -0.9646301q-0.18267822 -0.43167114 -0.16610718 -0.9137573q0.037017822 -0.47375488 0.334198 -0.8540039q0.3032837 -0.36587524 0.85009766 -0.5972595zm0.3078003 0.88772583q-0.46047974 0.19485474 -0.6281433 0.5202942q-0.1472168 0.33377075 -0.0071411133 0.6647339q0.14004517 0.33096313 0.47601318 0.44329834q0.3564453 0.12060547 0.8312988 -0.080322266q0.46044922 -0.19485474 0.607666 -0.5286255q0.16766357 -0.32543945 0.027618408 -0.6564026q-0.14004517 -0.33096313 -0.49649048 -0.45159912q-0.33596802 -0.11230469 -0.81082153 0.08862305zm0.9454956 6.6446533l-0.35928345 -0.848999l1.6260376 -0.68807983q0.5180359 -0.21920776 0.63757324 -0.33764648q0.14001465 -0.11016846 0.15716553 -0.27011108q0.037628174 -0.15164185 -0.035461426 -0.32434082q-0.09133911 -0.21582031 -0.2795105 -0.3397827q-0.1882019 -0.1239624 -0.42010498 -0.110687256q-0.22579956 0.027709961 -0.7582092 0.25299072l-1.4389648 0.60894775l-0.35928345 -0.848999l3.1801147 -1.3457336l0.3288269 0.7770691l-0.47485352 0.20092773q0.7233887 0.18591309 0.9913025 0.8190613q0.121795654 0.28778076 0.118499756 0.5606384q-0.0032958984 0.27285767 -0.11288452 0.45495605q-0.109558105 0.18209839 -0.29275513 0.31051636q-0.16271973 0.13671875 -0.5368347 0.29504395l-1.9713745 0.8342285z"
              fill-rule="nonzero"/>
        <path fill="#000000" fill-opacity="0.0" d="m757.8313 403.91504l-23.464722 55.450104l24.23523 10.255554l23.46466 -55.450104z" fill-rule="evenodd"/>
        <path fill="#000000"
              d="m748.24817 454.88986l-4.8349 -2.04599l0.87072754 -2.0577087q0.32885742 -0.7770386 0.6044922 -1.0675964q0.28173828 -0.30493164 0.7123413 -0.3602295q0.42230225 -0.075805664 0.8395996 0.10076904q0.54681396 0.2314148 0.7664795 0.7145996q0.21136475 0.46270752 0.044189453 1.1384888q0.32104492 -0.23742676 0.62213135 -0.34753418q0.30718994 -0.12451172 1.0289307 -0.22628784l1.1849365 -0.19418335l-0.4932251 1.1655579l-1.3488159 0.2605896q-0.7194824 0.13665771 -0.9243164 0.21966553q-0.21307373 0.0625 -0.32318115 0.20251465q-0.124572754 0.13394165 -0.26464844 0.4649048l-0.08520508 0.20144653l2.0145264 0.85250854l-0.4140625 0.9784851zm-2.3775024 -2.15979l0.30444336 -0.7194824q0.29833984 -0.70510864 0.3139038 -0.9021301q0.01550293 -0.197052 -0.085754395 -0.3586731q-0.10131836 -0.1616211 -0.31713867 -0.2529602q-0.2446289 -0.103515625 -0.44329834 -0.03488159q-0.21313477 0.06253052 -0.35369873 0.2744751q-0.06921387 0.1234436 -0.31884766 0.7134094l-0.3227539 0.7626343l1.2231445 0.51760864zm3.0961304 -3.1468506l-0.9209595 -0.38970947l0.76727295 -1.8131104l0.92089844 0.38970947l-0.7672119 1.8131104zm0.62280273 -2.2335815l0.30114746 -0.9923401q0.5258179 0.12069702 0.8656616 -0.040893555q0.32543945 -0.16766357 0.5142212 -0.613739q0.20092773 -0.47485352 0.09692383 -0.79034424q-0.097961426 -0.3298645 -0.3713379 -0.44555664q-0.1583252 -0.066986084 -0.31604004 -0.014984131q-0.17211914 0.045928955 -0.3619995 0.25402832q-0.13061523 0.14831543 -0.55078125 0.70007324q-0.53027344 0.691803 -0.9376221 0.8926697q-0.5916748 0.27557373 -1.1672363 0.03201294q-0.3597412 -0.15222168 -0.59106445 -0.48764038q-0.23962402 -0.355896 -0.23352051 -0.81140137q-0.0021972656 -0.47598267 0.23529053 -1.0371704q0.383667 -0.9065552 0.9813843 -1.1965332q0.583374 -0.29605103 1.2514038 -0.030334473l-0.36480713 0.98236084q-0.40460205 -0.086364746 -0.6481323 0.048095703q-0.24353027 0.13449097 -0.42010498 0.55178833q-0.18267822 0.43170166 -0.107421875 0.73498535q0.04815674 0.20700073 0.23516846 0.28616333q0.17272949 0.0730896 0.34869385 -0.022094727q0.2374878 -0.12008667 0.7084961 -0.7521057q0.46276855 -0.65252686 0.78985596 -0.9043274q0.31884766 -0.27227783 0.7145996 -0.32537842q0.38739014 -0.07357788 0.8479004 0.121276855q0.41729736 0.17660522 0.6795654 0.5590515q0.2623291 0.3824768 0.26672363 0.89331055q-0.00390625 0.49038696 -0.2718506 1.1235352q-0.38360596 0.90652466 -1.0079346 1.2192078q-0.6387329 0.30654907 -1.4871826 0.06628418zm0.7560425 -7.1591797l0.7338867 0.31054688l-0.26794434 0.6331482l1.4102173 0.5967407q0.43164062 0.18267822 0.5097046 0.19873047q0.084106445 0.0016784668 0.15167236 -0.037628174q0.0736084 -0.05368042 0.11010742 -0.14001465q0.05480957 -0.1295166 0.072021484 -0.41067505l0.74993896 0.23251343q-0.0044555664 0.37139893 -0.1749878 0.774292q-0.10961914 0.2590332 -0.26678467 0.4300232q-0.17163086 0.16491699 -0.34375 0.21084595q-0.18041992 0.02545166 -0.42285156 -0.04321289q-0.17041016 -0.03817749 -0.65966797 -0.24520874l-1.5253296 -0.6454773l-0.18267822 0.43170166l-0.7338867 -0.31054688l0.18267822 -0.43170166l-0.7050781 -0.29837036l-0.1427002 -1.1462402l1.2374878 0.52368164l0.26794434 -0.6331482zm-0.19970703 -0.8510742l-0.8634033 -0.36535645l0.38970947 -0.92092896l0.8634033 0.36532593l-0.38970947 0.9209595zm3.9714966 1.6806335l-3.496643 -1.4797058l0.38970947 -0.92092896l3.496643 1.4796753l-0.38970947 0.9209595zm-0.3762207 -5.9668884l-0.23144531 0.98791504q-0.291687 -0.07254028 -0.4942627 0.04534912q-0.21087646 0.09738159 -0.3204956 0.35638428q-0.14611816 0.34536743 0.013244629 0.6503296q0.14501953 0.29888916 0.70617676 0.53637695q0.6187744 0.26184082 0.9630127 0.16998291q0.3503418 -0.10623169 0.496521 -0.45159912q0.11566162 -0.27340698 0.038757324 -0.49258423q-0.08520508 -0.23965454 -0.41448975 -0.46383667l0.54193115 -0.8395691q0.5578613 0.4057312 0.70391846 0.94262695q0.14605713 0.53686523 -0.14013672 1.2131653q-0.3227539 0.7626648 -0.99243164 1.0221863q-0.68408203 0.2534485 -1.533081 -0.10583496q-0.8778076 -0.37142944 -1.1577759 -1.0328369q-0.2944336 -0.667511 0.034423828 -1.4445496q0.27398682 -0.6475525 0.7200928 -0.89990234q0.4317627 -0.25842285 1.06604 -0.19360352zm2.739685 0.38168335l-4.8349 -2.04599l0.395813 -0.93533325l2.5613403 1.0838928l-0.76641846 -1.5968018l0.48101807 -1.1367798l0.7753296 1.7362671l2.7579346 -0.34292603l-0.42016602 0.9928894l-1.9399414 0.2140503l0.26342773 0.6204529l1.1223755 0.47494507l-0.395813 0.93533325z"
              fill-rule="nonzero"/>
        <path fill="#000000" fill-opacity="0.0" d="m765.72766 368.66016l-21.88147 56.09369l34.93921 13.629364l21.88147 -56.09372z" fill-rule="evenodd"/>
        <path fill="#000000"
              d="m757.59515 419.8864l-4.8910522 -1.907959l0.8120117 -2.0815735q0.30664062 -0.7860718 0.5739746 -1.0843201q0.27294922 -0.3128357 0.7017822 -0.38034058q0.4199829 -0.08773804 0.8421631 0.076934814q0.5531616 0.2157898 0.786438 0.6925354q0.22442627 0.45654297 0.07647705 1.1367798q0.31414795 -0.24642944 0.6119995 -0.36505127q0.30352783 -0.13317871 1.0220947 -0.2554016l1.1790161 -0.22772217l-0.45996094 1.1790771l-1.3408813 0.2987671q-0.71533203 0.15701294 -0.9177246 0.24578857q-0.21118164 0.06854248 -0.31732178 0.2116394q-0.12072754 0.13742065 -0.25128174 0.472229l-0.07952881 0.20379639l2.0379639 0.7949524l-0.38616943 0.98986816zm-2.4378662 -2.0914612l0.28393555 -0.72784424q0.27825928 -0.71325684 0.28814697 -0.91067505q0.0099487305 -0.1973877 -0.09588623 -0.3560791q-0.10583496 -0.15866089 -0.3241577 -0.24383545q-0.24749756 -0.0965271 -0.44415283 -0.02230835q-0.21124268 0.06854248 -0.34576416 0.28442383q-0.06567383 0.1253357 -0.2984619 0.72213745l-0.30096436 0.7715149l1.2373047 0.48266602zm3.0056152 -3.2334595l-0.9316406 -0.36340332l0.71551514 -1.834137l0.9315796 0.36340332l-0.7154541 1.834137zm0.55914307 -2.2503357l0.27288818 -1.0004883q0.5289917 0.10571289 0.86413574 -0.065460205q0.32055664 -0.17681885 0.49658203 -0.6280823q0.18737793 -0.4803772 0.07446289 -0.79278564q-0.107299805 -0.32696533 -0.3838501 -0.43484497q-0.16015625 -0.062469482 -0.3163452 -0.0059814453q-0.17071533 0.05078125 -0.35461426 0.26416016q-0.12634277 0.15197754 -0.53063965 0.7154541q-0.510437 0.7065735 -0.91192627 0.9189148q-0.58361816 0.29226685 -1.1658936 0.06512451q-0.36395264 -0.14193726 -0.6046753 -0.4706726q-0.24963379 -0.348938 -0.2564087 -0.80444336q-0.015686035 -0.47573853 0.20574951 -1.0434265q0.35772705 -0.91708374 0.9470215 -1.2239075q0.57476807 -0.3125 1.25 -0.065826416l-0.33673096 0.9923096q-0.40686035 -0.0748291 -0.6464844 0.0664978q-0.23962402 0.1413269 -0.40429688 0.56347656q-0.17034912 0.43667603 -0.08654785 0.73773193q0.054016113 0.2055664 0.2432251 0.2793579q0.17468262 0.06814575 0.3479004 -0.031982422q0.23394775 -0.12677002 0.68688965 -0.7719116q0.44403076 -0.66537476 0.763855 -0.9263611q0.31097412 -0.28121948 0.7050781 -0.34552002q0.38513184 -0.08456421 0.85095215 0.09716797q0.42218018 0.16467285 0.69525146 0.53952026q0.27301025 0.37487793 0.29193115 0.885376q0.010009766 0.4902954 -0.23986816 1.1307983q-0.35772705 0.9170532 -0.9729614 1.2473145q-0.62976074 0.32458496 -1.4846802 0.10848999zm0.55255127 -7.177765l0.74243164 0.2895813l-0.24987793 0.6405029l1.4265747 0.55648804q0.43670654 0.17034912 0.5151367 0.18417358q0.08416748 -7.019043E-4 0.1505127 -0.041900635q0.07208252 -0.055755615 0.10614014 -0.14309692q0.05114746 -0.13101196 0.060302734 -0.41253662l0.7562256 0.2111206q0.0061035156 0.3713684 -0.15289307 0.7789612q-0.10223389 0.26202393 -0.2545166 0.43740845q-0.16680908 0.16973877 -0.33758545 0.22052002q-0.17962646 0.030548096 -0.42388916 -0.031188965q-0.17150879 -0.033355713 -0.66638184 -0.22640991l-1.5430298 -0.6018982l-0.17034912 0.43667603l-0.7423706 -0.2895813l0.17034912 -0.43670654l-0.7133179 -0.27822876l-0.1751709 -1.1417236l1.2518921 0.4883423l0.2498169 -0.6405029zm-0.22381592 -0.84506226l-0.87335205 -0.34069824l0.36340332 -0.9316406l0.8734131 0.34069824l-0.36346436 0.9316406zm4.017639 1.5672302l-3.5372314 -1.3798523l0.36340332 -0.9316406l3.5372925 1.3798523l-0.36346436 0.9316406zm-0.54541016 -5.9537964l-0.2033081 0.9940796q-0.29364014 -0.064208984 -0.49279785 0.05935669q-0.20800781 0.10333252 -0.3102417 0.36535645q-0.13623047 0.34936523 0.03173828 0.6496887q0.15338135 0.29464722 0.72106934 0.5161133q0.62597656 0.24417114 0.96746826 0.14257812q0.347229 -0.1161499 0.48345947 -0.46551514q0.107910156 -0.2765503 0.024780273 -0.49346924q-0.09197998 -0.2371521 -0.42749023 -0.45187378l0.5178833 -0.85461426q0.56915283 0.38974 0.7304077 0.9222412q0.16125488 0.5325012 -0.105651855 1.2166748q-0.30096436 0.7715149 -0.9630127 1.0499268q-0.67663574 0.2727356 -1.5355225 -0.062286377q-0.88793945 -0.3463745 -1.1865845 -0.99957275q-0.31323242 -0.6588745 -0.006591797 -1.4449463q0.2555542 -0.6550293 0.6942749 -0.9199524q0.42425537 -0.27056885 1.0601196 -0.2237854zm2.7494507 0.30377197l-4.8910522 -1.9079285l0.3690796 -0.9461975l2.5911255 1.0107422l-0.8114624 -1.5744019l0.4486084 -1.1499634l0.82421875 1.713562l2.7471313 -0.42105103l-0.3918457 1.0043945l-1.9330444 0.26901245l0.2808838 0.61273193l1.135437 0.4429016l-0.3690796 0.9461975z"
              fill-rule="nonzero"/>
        <path fill="#000000"
              d="m761.08875 421.2492l0.76660156 -1.9651489q0.22143555 -0.567688 0.3932495 -0.8361206q0.15722656 -0.2741089 0.40252686 -0.42999268q0.23077393 -0.16156006 0.54956055 -0.20492554q0.30993652 -0.063568115 0.630188 0.061340332q0.33477783 0.13061523 0.552124 0.43341064q0.22296143 0.28823853 0.24359131 0.6652832q0.30706787 -0.40014648 0.71813965 -0.5081482q0.40222168 -0.12820435 0.82440186 0.036468506q0.33477783 0.13061523 0.59259033 0.4156494q0.2432251 0.2793579 0.32458496 0.62976074q0.08703613 0.33584595 -0.022644043 0.74591064q-0.06744385 0.25881958 -0.43084717 1.1904297l-0.65301514 1.6740417l-4.8910522 -1.907959zm1.201355 -0.6718445l1.135376 0.4429016l0.2555542 -0.6550598q0.22143555 -0.567688 0.26367188 -0.7189331q0.06744385 -0.25881958 -0.021362305 -0.46118164q-0.08880615 -0.20233154 -0.33624268 -0.29888916q-0.21832275 -0.08517456 -0.41503906 -0.010925293q-0.190979 0.059661865 -0.3166504 0.29577637q-0.07128906 0.13986206 -0.34387207 0.8385925l-0.22143555 0.5677185zm1.9505615 0.7608948l1.2955322 0.5053711l0.3577881 -0.9170532q0.21008301 -0.53860474 0.23205566 -0.68096924q0.05609131 -0.22970581 -0.052978516 -0.42318726q-0.10333252 -0.20803833 -0.36535645 -0.3102417q-0.21832275 -0.08517456 -0.4036255 -0.04006958q-0.19989014 0.03945923 -0.33758545 0.22052002q-0.15228271 0.17541504 -0.41351318 0.8450012l-0.3123169 0.80062866zm4.570923 -5.44046l-0.5239868 -0.20443726q0.19702148 0.31167603 0.23223877 0.694397q0.040893555 0.36816406 -0.09539795 0.7174988q-0.1362915 0.34936523 -0.39538574 0.5837097q-0.2680664 0.21411133 -0.5957031 0.23724365q-0.34228516 0.017456055 -0.8371582 -0.17562866l-2.2417603 -0.8744507l0.3690796 -0.9461975l1.6303711 0.6359863q0.7423706 0.2895813 0.93408203 0.3140564q0.18286133 0.0042419434 0.33587646 -0.087005615q0.144104 -0.11151123 0.22363281 -0.31530762q0.09082031 -0.23291016 0.03363037 -0.47323608q-0.051513672 -0.25491333 -0.21801758 -0.3869629q-0.16082764 -0.14660645 -0.93237305 -0.44754028l-1.4847412 -0.5791931l0.3690796 -0.9461975l3.5372314 1.3798523l-0.34069824 0.8734131zm-2.1887207 -4.836853l0.7423706 0.28961182l-0.2498169 0.6405029l1.4265137 0.5564575q0.43670654 0.17037964 0.51519775 0.1842041q0.084106445 -7.324219E-4 0.1505127 -0.041931152q0.07208252 -0.055725098 0.10614014 -0.1430664q0.051086426 -0.13101196 0.060302734 -0.41253662l0.7562256 0.2111206q0.0061035156 0.3713379 -0.15289307 0.77893066q-0.10223389 0.26202393 -0.2545166 0.43743896q-0.16680908 0.16970825 -0.33758545 0.22052002q-0.17962646 0.030548096 -0.42388916 -0.031188965q-0.17150879 -0.033355713 -0.6664429 -0.22640991l-1.5429688 -0.6019287l-0.17034912 0.43670654l-0.74243164 -0.28961182l0.17034912 -0.43667603l-0.71325684 -0.27825928l-0.1751709 -1.1417236l1.251831 0.4883423l0.24987793 -0.6405029zm0.8868408 -2.273468l0.74243164 0.28961182l-0.24987793 0.6405029l1.4265747 0.5564575q0.43670654 0.17034912 0.5151367 0.1842041q0.08416748 -7.324219E-4 0.1505127 -0.041931152q0.07208252 -0.055725098 0.10614014 -0.1430664q0.051086426 -0.13101196 0.060302734 -0.41256714l0.7562256 0.21115112q0.0061035156 0.3713379 -0.15289307 0.77893066q-0.10223389 0.26202393 -0.2545166 0.43743896q-0.16680908 0.16970825 -0.33758545 0.2204895q-0.17962646 0.030578613 -0.42388916 -0.031158447q-0.17150879 -0.033355713 -0.6664429 -0.22644043l-1.5429688 -0.6018982l-0.17034912 0.43670654l-0.74243164 -0.28961182l0.17034912 -0.43667603l-0.71325684 -0.27825928l-0.1751709 -1.1417236l1.2518921 0.4883423l0.2498169 -0.6405029zm1.8890991 0.23074341q-0.4658203 -0.18173218 -0.8173828 -0.5704346q-0.3458252 -0.40325928 -0.4140625 -0.91622925q-0.068237305 -0.5130005 0.13616943 -1.0370483q0.3123169 -0.80062866 1.0350952 -1.1056824q0.7285156 -0.3196106 1.5291138 -0.007293701q0.80059814 0.31228638 1.1202393 1.0407715q0.32525635 0.7138977 0.018676758 1.499939q-0.19311523 0.49493408 -0.5874634 0.86102295q-0.3887329 0.35153198 -0.9017334 0.4197693q-0.5072632 0.053649902 -1.1186523 -0.18481445zm0.418396 -0.9437256q0.53863525 0.21011353 0.91174316 0.07052612q0.3731079 -0.13955688 0.5150757 -0.503479q0.14196777 -0.36392212 -0.038085938 -0.7192688q-0.17437744 -0.36990356 -0.71295166 -0.5800171q-0.52404785 -0.20440674 -0.90283203 -0.05029297q-0.3731079 0.1395874 -0.5150757 0.5035095q-0.14196777 0.3638916 0.038085938 0.7192688q0.18005371 0.35534668 0.7040405 0.5597534zm4.368042 -5.952118l-0.36340332 0.9316101l-1.8050537 -0.70410156q-0.5822754 -0.22714233 -0.77075195 -0.2168274q-0.19744873 -0.009918213 -0.33587646 0.08703613q-0.13842773 0.09692383 -0.21228027 0.28616333q-0.09649658 0.24746704 -0.04498291 0.5023804q0.05718994 0.24032593 0.24713135 0.3982849q0.19561768 0.1434021 0.79248047 0.3762207l1.6011963 0.6246338l-0.3690796 0.946167l-3.5372314 -1.3798523l0.34069824 -0.87338257l0.5239868 0.20440674q-0.42962646 -0.70428467 -0.15710449 -1.4030151q0.119262695 -0.30569458 0.33795166 -0.52227783q0.21862793 -0.21658325 0.444458 -0.27947998q0.21118164 -0.06854248 0.4611206 -0.021362305q0.24108887 0.026947021 0.64868164 0.1859436l2.198059 0.8574524z"
              fill-rule="nonzero"/>
        <path id="leftStick" fill="#ffffff" d="m350.87064 436.7092l8.379883 19.82483l-4.682617 1.9793396l-8.379913 -19.82483z" fill-rule="evenodd"/>
        <path stroke="#000000" stroke-width="1.3333333333333333" stroke-miterlimit="800.0" stroke-linecap="butt" d="m350.87064 436.7092l8.379883 19.82483l-4.682617 1.9793396l-8.379913 -19.82483z" fill-rule="evenodd"/>
        <path id="rightStick" fill="#ffffff" d="m771.5663 439.01868l-8.128357 19.92929l-4.7072754 -1.9199219l8.128296 -19.92929z" fill-rule="evenodd"/>
        <path stroke="#000000" stroke-width="1.3333333333333333" stroke-miterlimit="800.0" stroke-linecap="butt" d="m771.5663 439.01868l-8.128357 19.92929l-4.7072754 -1.9199219l8.128296 -19.92929z" fill-rule="evenodd"/>
        <path id="leftStickClick" fill="#ffffff" d="m331.51138 417.6369l0 0c0 -2.840149 2.2650757 -5.142517 5.0591736 -5.142517l0 0c1.3417664 0 2.6285706 0.5418091 3.577362 1.5061951c0.948761 0.9644165 1.481781 2.2724304 1.481781 3.636322l0 0c0 2.840149 -2.2650452 5.142517 -5.059143 5.142517l0 0c-2.794098 0 -5.0591736 -2.3023682 -5.0591736 -5.142517z" fill-rule="evenodd"/>
        <path stroke="#000000" stroke-width="1.3333333333333333" stroke-miterlimit="800.0" stroke-linecap="butt" d="m331.51138 417.6369l0 0c0 -2.840149 2.2650757 -5.142517 5.0591736 -5.142517l0 0c1.3417664 0 2.6285706 0.5418091 3.577362 1.5061951c0.948761 0.9644165 1.481781 2.2724304 1.481781 3.636322l0 0c0 2.840149 -2.2650452 5.142517 -5.059143 5.142517l0 0c-2.794098 0 -5.0591736 -2.3023682 -5.0591736 -5.142517z" fill-rule="evenodd"/>
        <path id="rightStickClick" fill="#ffffff" d="m775.66583 416.4008l0 0c0 -2.840149 2.2650757 -5.142517 5.059143 -5.142517l0 0c1.3417969 0 2.628601 0.5418091 3.5773926 1.5061951c0.9487915 0.9644165 1.4817505 2.2724304 1.4817505 3.636322l0 0c0 2.840149 -2.2650146 5.142517 -5.059143 5.142517l0 0c-2.7940674 0 -5.059143 -2.3023682 -5.059143 -5.142517z" fill-rule="evenodd"/>
        <path stroke="#000000" stroke-width="1.3333333333333333" stroke-miterlimit="800.0" stroke-linecap="butt" d="m775.66583 416.4008l0 0c0 -2.840149 2.2650757 -5.142517 5.059143 -5.142517l0 0c1.3417969 0 2.628601 0.5418091 3.5773926 1.5061951c0.9487915 0.9644165 1.4817505 2.2724304 1.4817505 3.636322l0 0c0 2.840149 -2.2650146 5.142517 -5.059143 5.142517l0 0c-2.7940674 0 -5.059143 -2.3023682 -5.059143 -5.142517z" fill-rule="evenodd"/>
    </g>
</svg>
