<svg version="1.1" viewBox="350.0 200.0 400 400" fill="none" stroke="none" stroke-linecap="square" stroke-miterlimit="10" xmlns:xlink="http://www.w3.org/1999/xlink" xmlns="http://www.w3.org/2000/svg">
    <clipPath id="p_1.0">
        <path d="m0 0l1122.5197 0l0 793.7008l-1122.5197 0l0 -793.7008z" clip-rule="nonzero"/>
    </clipPath>
    <g clip-path="url(#p_1.0)">
        <path fill="#000000" fill-opacity="0.0" d="m0 0l1122.5197 0l0 793.7008l-1122.5197 0z" fill-rule="evenodd"/>
        <path fill="#000000" fill-opacity="0.0" d="m380.79318 277.6504l360.93173 0l0 238.39893l-360.93173 0z" fill-rule="evenodd"/>
        <path fill="#757070"
              d="m418.5 295.78082c27.99823 -8.300568 26.536377 -8.469055 60.265747 -10.183136c23.954865 -2.952118 56.093872 -6.139374 83.46362 -6.1010437c27.369751 0.03829956 57.324036 3.453888 80.75476 6.330719c12.873413 -0.85702515 26.626038 0.7355957 61.19525 9.892151c26.470642 49.0224 39.35315 112.38983 37.343323 163.50668c-0.8088989 37.29428 -13.155457 45.989136 -24.577148 53.078857c-11.860657 -0.12866211 -16.515747 1.5411987 -24.603516 3.7453613c-12.198975 -16.888885 -15.700806 -32.457123 -21.308044 -46.946472c-9.607361 -18.48938 -5.1105347 -31.378113 -33.275208 -39.195465c-16.110535 4.2001038 -43.424194 3.2037354 -76.18805 2.8029175c-25.563904 -8.239746E-4 -65.42816 0.7420044 -77.19571 -2.807953c-33.532227 3.9832153 -35.44763 66.37454 -54.37912 86.1264c-10.399048 -2.8096924 -12.603729 -3.9232788 -26.129425 -3.9057617c-8.682251 -7.0539246 -18.637146 -12.4071045 -22.01233 -41.418396c-4.955658 -52.401978 7.4825745 -114.691376 36.645844 -174.92487z"
              fill-rule="evenodd"/>
        <path stroke="#000000" stroke-width="1.3333333333333333" stroke-miterlimit="800.0" stroke-linecap="butt"
              d="m418.5 295.78082c27.99823 -8.300568 26.536377 -8.469055 60.265747 -10.183136c23.954865 -2.952118 56.093872 -6.139374 83.46362 -6.1010437c27.369751 0.03829956 57.324036 3.453888 80.75476 6.330719c12.873413 -0.85702515 26.626038 0.7355957 61.19525 9.892151c26.470642 49.0224 39.35315 112.38983 37.343323 163.50668c-0.8088989 37.29428 -13.155457 45.989136 -24.577148 53.078857c-11.860657 -0.12866211 -16.515747 1.5411987 -24.603516 3.7453613c-12.198975 -16.888885 -15.700806 -32.457123 -21.308044 -46.946472c-9.607361 -18.48938 -5.1105347 -31.378113 -33.275208 -39.195465c-16.110535 4.2001038 -43.424194 3.2037354 -76.18805 2.8029175c-25.563904 -8.239746E-4 -65.42816 0.7420044 -77.19571 -2.807953c-33.532227 3.9832153 -35.44763 66.37454 -54.37912 86.1264c-10.399048 -2.8096924 -12.603729 -3.9232788 -26.129425 -3.9057617c-8.682251 -7.0539246 -18.637146 -12.4071045 -22.01233 -41.418396c-4.955658 -52.401978 7.4825745 -114.691376 36.645844 -174.92487z"
              fill-rule="evenodd"/>
        <path fill="#ffffff" d="m482.32507 394.9811l0 0c0 -11.79129 9.560028 -21.350037 21.352936 -21.350037l0 0c5.663147 0 11.094391 2.2493896 15.098846 6.253296c4.0043945 4.0039062 6.2540894 9.434357 6.2540894 15.096741l0 0c0 11.79129 -9.559998 21.350037 -21.352936 21.350037l0 0c-11.792908 0 -21.352936 -9.558746 -21.352936 -21.350037z" fill-rule="evenodd"/>
        <path stroke="#000000" stroke-width="1.3333333333333333" stroke-miterlimit="800.0" stroke-linecap="butt" d="m482.32507 394.9811l0 0c0 -11.79129 9.560028 -21.350037 21.352936 -21.350037l0 0c5.663147 0 11.094391 2.2493896 15.098846 6.253296c4.0043945 4.0039062 6.2540894 9.434357 6.2540894 15.096741l0 0c0 11.79129 -9.559998 21.350037 -21.352936 21.350037l0 0c-11.792908 0 -21.352936 -9.558746 -21.352936 -21.350037z" fill-rule="evenodd"/>
        <path fill="#ffffff" d="m598.6251 394.9811l0 0c0 -11.79129 9.560059 -21.350037 21.352966 -21.350037l0 0c5.663147 0 11.09436 2.2493896 15.098816 6.253296c4.0044556 4.0039062 6.2541504 9.434357 6.2541504 15.096741l0 0c0 11.79129 -9.560059 21.350037 -21.352966 21.350037l0 0c-11.792908 0 -21.352966 -9.558746 -21.352966 -21.350037z" fill-rule="evenodd"/>
        <path stroke="#000000" stroke-width="1.3333333333333333" stroke-miterlimit="800.0" stroke-linecap="butt" d="m598.6251 394.9811l0 0c0 -11.79129 9.560059 -21.350037 21.352966 -21.350037l0 0c5.663147 0 11.09436 2.2493896 15.098816 6.253296c4.0044556 4.0039062 6.2541504 9.434357 6.2541504 15.096741l0 0c0 11.79129 -9.560059 21.350037 -21.352966 21.350037l0 0c-11.792908 0 -21.352966 -9.558746 -21.352966 -21.350037z" fill-rule="evenodd"/>
        <path id="leftStick" fill="#ffffff" d="m490.51205 394.62686l0 0c0 -7.362335 5.9691467 -13.330658 13.3324585 -13.330658l0 0c3.5359802 0 6.9271545 1.40448 9.42746 3.9044495c2.5003662 2.5 3.9050293 5.890686 3.9050293 9.4262085l0 0c0 7.3623047 -5.9691772 13.330627 -13.332489 13.330627l0 0c-7.363312 0 -13.3324585 -5.9683228 -13.3324585 -13.330627z" fill-rule="evenodd"/>
        <path stroke="#3f3f3f" stroke-width="1.0" stroke-miterlimit="800.0" stroke-linecap="butt" d="m490.51205 394.62686l0 0c0 -7.362335 5.9691467 -13.330658 13.3324585 -13.330658l0 0c3.5359802 0 6.9271545 1.40448 9.42746 3.9044495c2.5003662 2.5 3.9050293 5.890686 3.9050293 9.4262085l0 0c0 7.3623047 -5.9691772 13.330627 -13.332489 13.330627l0 0c-7.363312 0 -13.3324585 -5.9683228 -13.3324585 -13.330627z" fill-rule="evenodd"/>
        <path id="rightStick" fill="#ffffff" d="m606.7175 394.9601l0 0c0 -7.3623047 5.969116 -13.330658 13.3324585 -13.330658l0 0c3.5360107 0 6.927185 1.40448 9.42749 3.90448c2.5003052 2.4999695 3.9049683 5.890686 3.9049683 9.426178l0 0c0 7.3623047 -5.969116 13.330658 -13.3324585 13.330658l0 0c-7.3633423 0 -13.3324585 -5.9683533 -13.3324585 -13.330658z" fill-rule="evenodd"/>
        <path stroke="#3f3f3f" stroke-width="1.0" stroke-miterlimit="800.0" stroke-linecap="butt" d="m606.7175 394.9601l0 0c0 -7.3623047 5.969116 -13.330658 13.3324585 -13.330658l0 0c3.5360107 0 6.927185 1.40448 9.42749 3.90448c2.5003052 2.4999695 3.9049683 5.890686 3.9049683 9.426178l0 0c0 7.3623047 -5.969116 13.330658 -13.3324585 13.330658l0 0c-7.3633423 0 -13.3324585 -5.9683533 -13.3324585 -13.330658z" fill-rule="evenodd"/>
        <path id="psButton" fill="#ffffff" d="m548.7823 393.0118l0 0c0 -6.9658813 5.647705 -12.612854 12.614563 -12.612854l0 0c3.345581 0 6.554138 1.3288574 8.919861 3.6942139c2.3656616 2.3653564 3.6947021 5.5734863 3.6947021 8.91864l0 0c0 6.9658813 -5.647766 12.6128235 -12.614563 12.6128235l0 0c-6.966858 0 -12.614563 -5.646942 -12.614563 -12.6128235z" fill-rule="evenodd"/>
        <path stroke="#000000" stroke-width="1.3333333333333333" stroke-miterlimit="800.0" stroke-linecap="butt" d="m548.7823 393.0118l0 0c0 -6.9658813 5.647705 -12.612854 12.614563 -12.612854l0 0c3.345581 0 6.554138 1.3288574 8.919861 3.6942139c2.3656616 2.3653564 3.6947021 5.5734863 3.6947021 8.91864l0 0c0 6.9658813 -5.647766 12.6128235 -12.614563 12.6128235l0 0c-6.966858 0 -12.614563 -5.646942 -12.614563 -12.6128235z" fill-rule="evenodd"/>
        <path id="leftBumper" fill="#ffffff" d="m436.70145 281.55905c7.552307 -3.0630798 10.811188 -2.605774 16.216858 -3.908661c2.0071716 0 19.905212 0.14016724 19.905212 2.1513062l0 5.619507l-14.425446 1.368988l-17.715729 2.9334412c-4.424164 0.5214844 -10.799835 2.9985657 -16.199707 4.497925c0 -6.0692444 0.3930664 0.5661926 0.3930664 -5.5030212c0 -2.0111694 9.818573 -7.159485 11.825745 -7.159485z" fill-rule="evenodd"/>
        <path stroke="#000000" stroke-width="1.3333333333333333" stroke-miterlimit="800.0" stroke-linecap="butt" d="m436.70145 281.55905c7.552307 -3.0630798 10.811188 -2.605774 16.216858 -3.908661c2.0071716 0 19.905212 0.14016724 19.905212 2.1513062l0 5.619507l-14.425446 1.368988l-17.715729 2.9334412c-4.424164 0.5214844 -10.799835 2.9985657 -16.199707 4.497925c0 -6.0692444 0.3930664 0.5661926 0.3930664 -5.5030212c0 -2.0111694 9.818573 -7.159485 11.825745 -7.159485z" fill-rule="evenodd"/>
        <path id="rightBumper" fill="#ffffff" d="m685.82086 281.55905c-7.552307 -3.0630798 -10.811218 -2.605774 -16.216858 -3.908661c-2.0072021 0 -19.905212 0.14016724 -19.905212 2.1513062l0 5.619507l14.425415 1.368988l17.71576 2.9334412c4.4241333 0.5214844 10.799866 2.9985657 16.199707 4.497925c0 -6.0692444 -0.3930664 0.5661926 -0.3930664 -5.5030212c0 -2.0111694 -9.8185425 -7.159485 -11.825745 -7.159485z" fill-rule="evenodd"/>
        <path stroke="#000000" stroke-width="1.3333333333333333" stroke-miterlimit="800.0" stroke-linecap="butt" d="m685.82086 281.55905c-7.552307 -3.0630798 -10.811218 -2.605774 -16.216858 -3.908661c-2.0072021 0 -19.905212 0.14016724 -19.905212 2.1513062l0 5.619507l14.425415 1.368988l17.71576 2.9334412c4.4241333 0.5214844 10.799866 2.9985657 16.199707 4.497925c0 -6.0692444 -0.3930664 0.5661926 -0.3930664 -5.5030212c0 -2.0111694 -9.8185425 -7.159485 -11.825745 -7.159485z" fill-rule="evenodd"/>
        <path fill="#ffffff" d="m480.2905 304.471c-0.442688 -2.2215881 -1.0478516 -5.2041626 -2.0673218 -6.49527c-1.0194702 -1.2911072 -4.917511 -0.43441772 -5.811676 0.92333984c-0.8941345 1.3577576 -0.6560974 2.0371704 0.44677734 7.223053c0.7817383 4.225525 1.03479 5.143799 1.9857788 6.2756042c2.3954773 3.3763428 5.9315186 0.5491638 6.035309 -1.0926819c0.10379028 -1.6418457 -0.14620972 -4.6124573 -0.5888672 -6.8340454z" fill-rule="evenodd"/>
        <path stroke="#000000" stroke-width="1.3333333333333333" stroke-miterlimit="800.0" stroke-linecap="butt"
              d="m480.2905 304.471c-0.442688 -2.2215881 -1.0478516 -5.2041626 -2.0673218 -6.49527c-1.0194702 -1.2911072 -4.917511 -0.43441772 -5.811676 0.92333984c-0.8941345 1.3577576 -0.6560974 2.0371704 0.44677734 7.223053c0.7817383 4.225525 1.03479 5.143799 1.9857788 6.2756042c2.3954773 3.3763428 5.9315186 0.5491638 6.035309 -1.0926819c0.10379028 -1.6418457 -0.14620972 -4.6124573 -0.5888672 -6.8340454z" fill-rule="evenodd"/>
        <path fill="#ffffff" d="m642.927 305.08633c0.442688 -2.2215881 1.0478516 -5.2041626 2.0673218 -6.49527c1.0194702 -1.2911072 4.9174805 -0.43444824 5.8116455 0.92333984c0.89416504 1.3577576 0.6561279 2.0371704 -0.44677734 7.2230225c-0.7817383 4.225525 -1.03479 5.143799 -1.9857788 6.275635c-2.3954468 3.3763123 -5.9315186 0.5491333 -6.0352783 -1.0927124c-0.1038208 -1.6418457 0.1461792 -4.6124268 0.5888672 -6.834015z" fill-rule="evenodd"/>
        <path stroke="#000000" stroke-width="1.3333333333333333" stroke-miterlimit="800.0" stroke-linecap="butt"
              d="m642.927 305.08633c0.442688 -2.2215881 1.0478516 -5.2041626 2.0673218 -6.49527c1.0194702 -1.2911072 4.9174805 -0.43444824 5.8116455 0.92333984c0.89416504 1.3577576 0.6561279 2.0371704 -0.44677734 7.2230225c-0.7817383 4.225525 -1.03479 5.143799 -1.9857788 6.275635c-2.3954468 3.3763123 -5.9315186 0.5491333 -6.0352783 -1.0927124c-0.1038208 -1.6418457 0.1461792 -4.6124268 0.5888672 -6.834015z" fill-rule="evenodd"/>
        <path id="touchpadClick" fill="#ffffff" d="m490.12018 297.34705c-1.4162598 -7.89447 0.6612854 -14.517548 8.834991 -14.517548c46.34366 -4.907715 83.90634 -3.869934 126.284515 -0.28338623c12.987793 1.415802 8.061462 6.6230774 8.061462 14.800934l-10.819824 47.337708c-2.5492554 8.461334 -5.0360107 10.855591 -16.32544 13.122437l-94.47128 0c-9.873199 -3.4002075 -9.665955 -8.345612 -12.781708 -12.839905c-3.6820374 -21.159851 -3.1176453 -14.843262 -8.782715 -47.62024z" fill-rule="evenodd"/>
        <path stroke="#000000" stroke-width="1.3333333333333333" stroke-miterlimit="800.0" stroke-linecap="butt"
              d="m490.12018 297.34705c-1.4162598 -7.89447 0.6612854 -14.517548 8.834991 -14.517548c46.34366 -4.907715 83.90634 -3.869934 126.284515 -0.28338623c12.987793 1.415802 8.061462 6.6230774 8.061462 14.800934l-10.819824 47.337708c-2.5492554 8.461334 -5.0360107 10.855591 -16.32544 13.122437l-94.47128 0c-9.873199 -3.4002075 -9.665955 -8.345612 -12.781708 -12.839905c-3.6820374 -21.159851 -3.1176453 -14.843262 -8.782715 -47.62024z" fill-rule="evenodd"/>
        <path id="dpadDown" fill="#ffffff" d="m439.2412 358.62567c3.1323547 -2.9453735 5.679138 -6.0859985 9.396942 -8.835876l9.576019 9.422485c0.10803223 4.4121094 0.21594238 8.82431 0.3239746 13.23642c-7.322937 5.0049133 -13.812012 3.005066 -19.466644 0c-0.0015869141 -4.689972 0.17129517 -9.133057 0.16970825 -13.823029z" fill-rule="evenodd"/>
        <path stroke="#000000" stroke-width="1.3333333333333333" stroke-miterlimit="800.0" stroke-linecap="butt" d="m439.2412 358.62567c3.1323547 -2.9453735 5.679138 -6.0859985 9.396942 -8.835876l9.576019 9.422485c0.10803223 4.4121094 0.21594238 8.82431 0.3239746 13.23642c-7.322937 5.0049133 -13.812012 3.005066 -19.466644 0c-0.0015869141 -4.689972 0.17129517 -9.133057 0.16970825 -13.823029z" fill-rule="evenodd"/>
        <path id="dpadUp" fill="#ffffff" d="m439.8566 332.63824c3.132141 2.940033 5.6787415 6.074951 9.396271 8.819885l9.575348 -9.405457c0.10803223 -4.404114 0.21594238 -8.80835 0.3239746 -13.212463c-7.3224487 -4.99588 -13.811066 -2.9996338 -19.465302 0c-0.0015869141 4.6814575 0.17129517 9.116547 0.16970825 13.798035z" fill-rule="evenodd"/>
        <path stroke="#000000" stroke-width="1.3333333333333333" stroke-miterlimit="800.0" stroke-linecap="butt" d="m439.8566 332.63824c3.132141 2.940033 5.6787415 6.074951 9.396271 8.819885l9.575348 -9.405457c0.10803223 -4.404114 0.21594238 -8.80835 0.3239746 -13.212463c-7.3224487 -4.99588 -13.811066 -2.9996338 -19.465302 0c-0.0015869141 4.6814575 0.17129517 9.116547 0.16970825 13.798035z" fill-rule="evenodd"/>
        <path id="dpadRight" fill="#ffffff" d="m461.83527 354.6138c-2.9404297 -3.1317139 -6.0758057 -5.677948 -8.821106 -9.394989l9.406738 -9.574036c4.404724 -0.10803223 8.80954 -0.21594238 13.214264 -0.3239441c4.9965515 7.3214417 3.0000305 13.809174 0 19.462646c-4.6820984 0.0015869141 -9.117798 -0.17126465 -13.799896 -0.16967773z" fill-rule="evenodd"/>
        <path stroke="#000000" stroke-width="1.3333333333333333" stroke-miterlimit="800.0" stroke-linecap="butt" d="m461.83527 354.6138c-2.9404297 -3.1317139 -6.0758057 -5.677948 -8.821106 -9.394989l9.406738 -9.574036c4.404724 -0.10803223 8.80954 -0.21594238 13.214264 -0.3239441c4.9965515 7.3214417 3.0000305 13.809174 0 19.462646c-4.6820984 0.0015869141 -9.117798 -0.17126465 -13.799896 -0.16967773z" fill-rule="evenodd"/>
        <path id="dpadLeft" fill="#ffffff" d="m435.78845 335.72647c2.9404602 3.1317139 6.0758057 5.6779785 8.821106 9.39502l-9.406738 9.574036c-4.404724 0.10800171 -8.80954 0.21591187 -13.214264 0.32391357c-4.9965515 -7.3214417 -3.0000305 -13.809174 0 -19.462646c4.6820984 -0.0015563965 9.117798 0.17126465 13.799896 0.16967773z" fill-rule="evenodd"/>
        <path stroke="#000000" stroke-width="1.3333333333333333" stroke-miterlimit="800.0" stroke-linecap="butt" d="m435.78845 335.72647c2.9404602 3.1317139 6.0758057 5.6779785 8.821106 9.39502l-9.406738 9.574036c-4.404724 0.10800171 -8.80954 0.21591187 -13.214264 0.32391357c-4.9965515 -7.3214417 -3.0000305 -13.809174 0 -19.462646c4.6820984 -0.0015563965 9.117798 0.17126465 13.799896 0.16967773z" fill-rule="evenodd"/>
        <path fill="#3f3f3f" d="m445.75378 325.26654l3.4013672 -3.778778l3.4013367 3.778778z" fill-rule="evenodd"/>
        <path stroke="#3f3f3f" stroke-width="1.0" stroke-miterlimit="800.0" stroke-linecap="butt" d="m445.75378 325.26654l3.4013672 -3.778778l3.4013367 3.778778z" fill-rule="evenodd"/>
        <path fill="#3f3f3f" d="m428.90186 341.74112l-3.7792664 3.400879l3.7792664 3.4009094z" fill-rule="evenodd"/>
        <path stroke="#3f3f3f" stroke-width="1.0" stroke-miterlimit="800.0" stroke-linecap="butt" d="m428.90186 341.74112l-3.7792664 3.400879l3.7792664 3.4009094z" fill-rule="evenodd"/>
        <path fill="#3f3f3f" d="m445.5662 366.248l3.4013672 3.778778l3.4013367 -3.778778z" fill-rule="evenodd"/>
        <path stroke="#3f3f3f" stroke-width="1.0" stroke-miterlimit="800.0" stroke-linecap="butt" d="m445.5662 366.248l3.4013672 3.778778l3.4013367 -3.778778z" fill-rule="evenodd"/>
        <path fill="#3f3f3f" d="m469.1992 341.71948l3.7792969 3.4009094l-3.7792969 3.400879z" fill-rule="evenodd"/>
        <path stroke="#3f3f3f" stroke-width="1.0" stroke-miterlimit="800.0" stroke-linecap="butt" d="m469.1992 341.71948l3.7792969 3.4009094l-3.7792969 3.400879z" fill-rule="evenodd"/>
        <path id="circleButton" fill="#ffffff" d="m689.69617 345.96863l0 0c0 -6.469574 5.2453613 -11.714203 11.71582 -11.714203l0 0c3.1071777 0 6.087158 1.2341919 8.284302 3.4309998c2.1970825 2.1968384 3.4314575 5.1763916 3.4314575 8.283203l0 0c0 6.4695435 -5.2453613 11.714172 -11.715759 11.714172l0 0c-6.470459 0 -11.71582 -5.244629 -11.71582 -11.714172z" fill-rule="evenodd"/>
        <path stroke="#000000" stroke-width="1.3333333333333333" stroke-miterlimit="800.0" stroke-linecap="butt" d="m689.69617 345.96863l0 0c0 -6.469574 5.2453613 -11.714203 11.71582 -11.714203l0 0c3.1071777 0 6.087158 1.2341919 8.284302 3.4309998c2.1970825 2.1968384 3.4314575 5.1763916 3.4314575 8.283203l0 0c0 6.4695435 -5.2453613 11.714172 -11.715759 11.714172l0 0c-6.470459 0 -11.71582 -5.244629 -11.71582 -11.714172z" fill-rule="evenodd"/>
        <path id="squareButton" fill="#ffffff" d="m636.1612 345.96863l0 0c0 -6.469574 5.2453003 -11.714203 11.715759 -11.714203l0 0c3.1072388 0 6.087158 1.2341919 8.284302 3.4309998c2.1971436 2.1968384 3.4314575 5.1763916 3.4314575 8.283203l0 0c0 6.4695435 -5.2453003 11.714172 -11.715759 11.714172l0 0c-6.470459 0 -11.715759 -5.244629 -11.715759 -11.714172z" fill-rule="evenodd"/>
        <path stroke="#000000" stroke-width="1.3333333333333333" stroke-miterlimit="800.0" stroke-linecap="butt" d="m636.1612 345.96863l0 0c0 -6.469574 5.2453003 -11.714203 11.715759 -11.714203l0 0c3.1072388 0 6.087158 1.2341919 8.284302 3.4309998c2.1971436 2.1968384 3.4314575 5.1763916 3.4314575 8.283203l0 0c0 6.4695435 -5.2453003 11.714172 -11.715759 11.714172l0 0c-6.470459 0 -11.715759 -5.244629 -11.715759 -11.714172z" fill-rule="evenodd"/>
        <path id="crossButton" fill="#ffffff" d="m662.621 372.4248l0 0c0 -6.4695435 5.2453613 -11.714172 11.715759 -11.714172l0 0c3.1072388 0 6.087219 1.2341614 8.284363 3.4309998c2.1970825 2.1968384 3.4314575 5.1763916 3.4314575 8.283173l0 0c0 6.469574 -5.2453613 11.714172 -11.71582 11.714172l0 0c-6.470398 0 -11.715759 -5.2445984 -11.715759 -11.714172z" fill-rule="evenodd"/>
        <path stroke="#000000" stroke-width="1.3333333333333333" stroke-miterlimit="800.0" stroke-linecap="butt" d="m662.621 372.4248l0 0c0 -6.4695435 5.2453613 -11.714172 11.715759 -11.714172l0 0c3.1072388 0 6.087219 1.2341614 8.284363 3.4309998c2.1970825 2.1968384 3.4314575 5.1763916 3.4314575 8.283173l0 0c0 6.469574 -5.2453613 11.714172 -11.71582 11.714172l0 0c-6.470398 0 -11.715759 -5.2445984 -11.715759 -11.714172z" fill-rule="evenodd"/>
        <path id="triangleButton" fill="#ffffff" d="m662.621 318.8971l0 0c0 -6.4695435 5.2453613 -11.714172 11.715759 -11.714172l0 0c3.1072388 0 6.087219 1.2341614 8.284363 3.4309998c2.1970825 2.1968384 3.4314575 5.1763916 3.4314575 8.283173l0 0c0 6.469574 -5.2453613 11.714203 -11.71582 11.714203l0 0c-6.470398 0 -11.715759 -5.244629 -11.715759 -11.714203z" fill-rule="evenodd"/>
        <path stroke="#000000" stroke-width="1.3333333333333333" stroke-miterlimit="800.0" stroke-linecap="butt" d="m662.621 318.8971l0 0c0 -6.4695435 5.2453613 -11.714172 11.715759 -11.714172l0 0c3.1072388 0 6.087219 1.2341614 8.284363 3.4309998c2.1970825 2.1968384 3.4314575 5.1763916 3.4314575 8.283173l0 0c0 6.469574 -5.2453613 11.714203 -11.71582 11.714203l0 0c-6.470398 0 -11.715759 -5.244629 -11.715759 -11.714203z" fill-rule="evenodd"/>
        <path fill="#000000" fill-opacity="0.0" d="m694.0564 346.11746l0 0c0 -4.06958 3.2994995 -7.3685913 7.369629 -7.3685913l0 0c1.9545288 0 3.8290405 0.77630615 5.2111206 2.1582031c1.382019 1.3818665 2.1585083 3.2561035 2.1585083 5.210388l0 0c0 4.0695496 -3.2994995 7.3685913 -7.369629 7.3685913l0 0c-4.0701294 0 -7.369629 -3.2990417 -7.369629 -7.3685913z" fill-rule="evenodd"/>
        <path stroke="#3f3f3f" stroke-width="1.3333333333333333" stroke-miterlimit="800.0" stroke-linecap="butt" d="m694.0564 346.11746l0 0c0 -4.06958 3.2994995 -7.3685913 7.369629 -7.3685913l0 0c1.9545288 0 3.8290405 0.77630615 5.2111206 2.1582031c1.382019 1.3818665 2.1585083 3.2561035 2.1585083 5.210388l0 0c0 4.0695496 -3.2994995 7.3685913 -7.369629 7.3685913l0 0c-4.0701294 0 -7.369629 -3.2990417 -7.369629 -7.3685913z" fill-rule="evenodd"/>
        <path fill="#000000" fill-opacity="0.0" d="m667.69763 322.85022l6.89209 -11.821869l6.89209 11.821869z" fill-rule="evenodd"/>
        <path stroke="#3f3f3f" stroke-width="1.3333333333333333" stroke-miterlimit="800.0" stroke-linecap="butt" d="m667.69763 322.85022l6.89209 -11.821869l6.89209 11.821869z" fill-rule="evenodd"/>
        <path fill="#000000" fill-opacity="0.0" d="m642.1272 339.7918l11.893066 0l0 11.891449l-11.893066 0z" fill-rule="evenodd"/>
        <path stroke="#3f3f3f" stroke-width="1.3333333333333333" stroke-miterlimit="800.0" stroke-linecap="butt" d="m642.1272 339.7918l11.893066 0l0 11.891449l-11.893066 0z" fill-rule="evenodd"/>
        <path fill="#000000" fill-opacity="0.0" d="m668.65063 366.73935l5.6431885 5.6424255l5.6431885 -5.6424255l0 0l-5.6431885 5.6424255l5.6431885 5.6424255l0 0l-5.6431885 -5.6424255l-5.6431885 5.6424255l0 0l5.6431885 -5.6424255l-5.6431885 -5.6424255z" fill-rule="evenodd"/>
        <path stroke="#3f3f3f" stroke-width="1.3333333333333333" stroke-miterlimit="800.0" stroke-linecap="butt" d="m668.65063 366.73935l5.6431885 5.6424255l5.6431885 -5.6424255l0 0l-5.6431885 5.6424255l5.6431885 5.6424255l0 0l-5.6431885 -5.6424255l-5.6431885 5.6424255l0 0l5.6431885 -5.6424255l-5.6431885 -5.6424255z" fill-rule="evenodd"/>
        <path fill="#000000" fill-opacity="0.0" d="m646.55316 295.4104l4.5354614 0" fill-rule="evenodd"/>
        <path stroke="#3f3f3f" stroke-width="1.0" stroke-miterlimit="800.0" stroke-linecap="butt" d="m646.55316 295.4104l4.5354614 0" fill-rule="evenodd"/>
        <path fill="#000000" fill-opacity="0.0" d="m646.55316 293.8104l4.533325 0" fill-rule="evenodd"/>
        <path stroke="#3f3f3f" stroke-width="1.0" stroke-miterlimit="800.0" stroke-linecap="butt" d="m646.55316 293.8104l4.533325 0" fill-rule="evenodd"/>
        <path fill="#000000" fill-opacity="0.0" d="m646.55316 292.2104l4.5354614 0" fill-rule="evenodd"/>
        <path stroke="#3f3f3f" stroke-width="1.0" stroke-miterlimit="800.0" stroke-linecap="butt" d="m646.55316 292.2104l4.5354614 0" fill-rule="evenodd"/>
    </g>
</svg>
