<svg version="1.1" viewBox="325 200 475 400" fill="none" stroke="none" stroke-linecap="square" stroke-miterlimit="10" xmlns:xlink="http://www.w3.org/1999/xlink" xmlns="http://www.w3.org/2000/svg">
    <clipPath id="p_1.0">
        <path d="m0 0l1122.5197 0l0 793.7008l-1122.5197 0l0 -793.7008z" clip-rule="nonzero"/>
    </clipPath>
    <g clip-path="url(#p_1.0)">
        <path fill="#000000" fill-opacity="0.0" d="m0 0l1122.5197 0l0 793.7008l-1122.5197 0z" fill-rule="evenodd"/>
        <path fill="#000000" fill-opacity="0.0" d="m326.68765 297.63043l469.14438 0l0 198.43832l-469.14438 0z" fill-rule="evenodd"/>
        <path fill="#757070"
              d="m343.88257 305.2963c0.16000366 -4.9221497 1.7221985 -6.4862976 6.689972 -7.011688c4.9677734 -0.52542114 412.03568 -0.4800415 416.15353 -0.6400757c4.117798 -0.1600647 6.209839 0.9728699 6.209839 7.172882c0 6.2000427 3.005005 174.83725 2.7201538 178.48428c-0.28485107 3.6470642 0.5795288 6.2632446 -5.9295044 6.923279c-6.509094 0.6600342 -417.9931 0.35916138 -420.59412 -0.07098389c-2.6009827 -0.43014526 -5.9749756 -1.8094482 -6.0499268 -7.0115967c-0.07495117 -5.2021484 0.8000488 -131.58115 0.8000488 -177.8461z"
              fill-rule="evenodd"/>
        <path stroke="#000000" stroke-width="1.3333333333333333" stroke-miterlimit="800.0" stroke-linecap="butt"
              d="m343.88257 305.2963c0.16000366 -4.9221497 1.7221985 -6.4862976 6.689972 -7.011688c4.9677734 -0.52542114 412.03568 -0.4800415 416.15353 -0.6400757c4.117798 -0.1600647 6.209839 0.9728699 6.209839 7.172882c0 6.2000427 3.005005 174.83725 2.7201538 178.48428c-0.28485107 3.6470642 0.5795288 6.2632446 -5.9295044 6.923279c-6.509094 0.6600342 -417.9931 0.35916138 -420.59412 -0.07098389c-2.6009827 -0.43014526 -5.9749756 -1.8094482 -6.0499268 -7.0115967c-0.07495117 -5.2021484 0.8000488 -131.58115 0.8000488 -177.8461z"
              fill-rule="evenodd"/>
        <path id="aButton" fill="#ffffff" d="m439.20358 394.8927l0 0c0 -41.345276 33.516968 -74.86224 74.862274 -74.86224l0 0c19.854675 0 38.89618 7.8872375 52.935608 21.926636c14.039368 14.039398 21.926636 33.080902 21.926636 52.935608l0 0c0 41.345276 -33.516968 74.862274 -74.86224 74.862274l0 0c-41.345306 0 -74.862274 -33.517 -74.862274 -74.862274z" fill-rule="evenodd"/>
        <path stroke="#000000" stroke-width="1.3333333333333333" stroke-miterlimit="800.0" stroke-linecap="butt" d="m439.20358 394.8927l0 0c0 -41.345276 33.516968 -74.86224 74.862274 -74.86224l0 0c19.854675 0 38.89618 7.8872375 52.935608 21.926636c14.039368 14.039398 21.926636 33.080902 21.926636 52.935608l0 0c0 41.345276 -33.516968 74.862274 -74.86224 74.862274l0 0c-41.345306 0 -74.862274 -33.517 -74.862274 -74.862274z" fill-rule="evenodd"/>
        <path id="bButton" fill="#ffffff" d="m610.0608 394.8927l0 0c0 -41.345276 33.516968 -74.86224 74.86224 -74.86224l0 0c19.854736 0 38.89624 7.8872375 52.935608 21.926636c14.039429 14.039398 21.926636 33.080902 21.926636 52.935608l0 0c0 41.345276 -33.516968 74.862274 -74.86224 74.862274l0 0c-41.345276 0 -74.86224 -33.517 -74.86224 -74.862274z" fill-rule="evenodd"/>
        <path stroke="#000000" stroke-width="1.3333333333333333" stroke-miterlimit="800.0" stroke-linecap="butt" d="m610.0608 394.8927l0 0c0 -41.345276 33.516968 -74.86224 74.86224 -74.86224l0 0c19.854736 0 38.89624 7.8872375 52.935608 21.926636c14.039429 14.039398 21.926636 33.080902 21.926636 52.935608l0 0c0 41.345276 -33.516968 74.862274 -74.86224 74.862274l0 0c-41.345276 0 -74.86224 -33.517 -74.86224 -74.862274z" fill-rule="evenodd"/>
        <path id="xboxButton" fill="#ffffff" d="m376.9514 331.95932l0 0c0 -6.3132324 5.125122 -11.431122 11.447296 -11.431122l0 0c3.0360107 0 5.947693 1.2043457 8.094452 3.3480835c2.1467896 2.1437683 3.3528442 5.0513 3.3528442 8.083038l0 0c0 6.3132324 -5.125122 11.431122 -11.447296 11.431122l0 0c-6.322174 0 -11.447296 -5.1178894 -11.447296 -11.431122z" fill-rule="evenodd"/>
        <path stroke="#000000" stroke-width="1.3333333333333333" stroke-miterlimit="800.0" stroke-linecap="butt" d="m376.9514 331.95932l0 0c0 -6.3132324 5.125122 -11.431122 11.447296 -11.431122l0 0c3.0360107 0 5.947693 1.2043457 8.094452 3.3480835c2.1467896 2.1437683 3.3528442 5.0513 3.3528442 8.083038l0 0c0 6.3132324 -5.125122 11.431122 -11.447296 11.431122l0 0c-6.322174 0 -11.447296 -5.1178894 -11.447296 -11.431122z" fill-rule="evenodd"/>
        <path fill="#3f3f3f"
              d="m380.7445 324.172c2.6273499 -0.6586304 6.06546 -1.201294 7.541504 0.72213745c2.7184448 -1.8599854 4.8435974 -1.7572632 7.32666 -1.5200195c-1.4490051 1.365448 -3.1140747 2.2922363 -4.56308 3.6576843c2.3755188 2.7540283 6.506714 6.3302307 4.7330933 11.938171c-0.9657898 -3.7322083 -4.303711 -7.813904 -7.5865784 -9.661652c-3.388733 3.4295044 -4.3802185 3.0330505 -8.389435 10.663086c0.37786865 -6.5914307 2.6719055 -8.937134 6.224121 -12.825287c-0.62979126 -1.335968 -3.4535828 -1.8365173 -5.2862854 -2.974121z"
              fill-rule="evenodd"/>
        <path stroke="#3f3f3f" stroke-width="1.0" stroke-miterlimit="800.0" stroke-linecap="butt"
              d="m380.7445 324.172c2.6273499 -0.6586304 6.06546 -1.201294 7.541504 0.72213745c2.7184448 -1.8599854 4.8435974 -1.7572632 7.32666 -1.5200195c-1.4490051 1.365448 -3.1140747 2.2922363 -4.56308 3.6576843c2.3755188 2.7540283 6.506714 6.3302307 4.7330933 11.938171c-0.9657898 -3.7322083 -4.303711 -7.813904 -7.5865784 -9.661652c-3.388733 3.4295044 -4.3802185 3.0330505 -8.389435 10.663086c0.37786865 -6.5914307 2.6719055 -8.937134 6.224121 -12.825287c-0.62979126 -1.335968 -3.4535828 -1.8365173 -5.2862854 -2.974121z"
              fill-rule="evenodd"/>
        <path id="backButton" fill="#ffffff" d="m362.9179 361.47333l0 0c0 -4.583954 3.716034 -8.299988 8.299988 -8.299988l0 0c2.201294 0 4.312439 0.8744507 5.868988 2.4309998c1.5565491 1.5565491 2.4310303 3.667694 2.4310303 5.868988l0 0c0 4.5839844 -3.7160645 8.300018 -8.300018 8.300018l0 0c-4.583954 0 -8.299988 -3.716034 -8.299988 -8.300018z" fill-rule="evenodd"/>
        <path stroke="#000000" stroke-width="1.3333333333333333" stroke-miterlimit="800.0" stroke-linecap="butt" d="m362.9179 361.47333l0 0c0 -4.583954 3.716034 -8.299988 8.299988 -8.299988l0 0c2.201294 0 4.312439 0.8744507 5.868988 2.4309998c1.5565491 1.5565491 2.4310303 3.667694 2.4310303 5.868988l0 0c0 4.5839844 -3.7160645 8.300018 -8.300018 8.300018l0 0c-4.583954 0 -8.299988 -3.716034 -8.299988 -8.300018z" fill-rule="evenodd"/>
        <path id="backButton" fill="#ffffff" d="m370.4379 361.17334l4.1333313 0l0 3.0l-4.1333313 0z" fill-rule="evenodd"/>
        <path stroke="#3f3f3f" stroke-width="1.0" stroke-miterlimit="800.0" stroke-linecap="butt" d="m370.4379 361.17334l4.1333313 0l0 3.0l-4.1333313 0z" fill-rule="evenodd"/>
        <path id="backButton" fill="#ffffff" d="m367.5579 358.29333l4.1333313 0l0 3.0l-4.1333313 0z" fill-rule="evenodd"/>
        <path stroke="#3f3f3f" stroke-width="1.0" stroke-miterlimit="800.0" stroke-linecap="butt" d="m367.5579 358.29333l4.1333313 0l0 3.0l-4.1333313 0z" fill-rule="evenodd"/>
        <path id="startButton" fill="#ffffff" d="m398.34647 361.50534l0 0c0 -4.6016235 3.7302551 -8.332001 8.331787 -8.332001l0 0c2.2097473 0 4.3289795 0.87783813 5.8914795 2.4403992c1.5625305 1.5625305 2.4403381 3.6818237 2.4403381 5.8916016l0 0c0 4.601654 -3.7302856 8.332031 -8.331818 8.332031l0 0c-4.601532 0 -8.331787 -3.7303772 -8.331787 -8.332031z" fill-rule="evenodd"/>
        <path stroke="#000000" stroke-width="1.3333333333333333" stroke-miterlimit="800.0" stroke-linecap="butt" d="m398.34647 361.50534l0 0c0 -4.6016235 3.7302551 -8.332001 8.331787 -8.332001l0 0c2.2097473 0 4.3289795 0.87783813 5.8914795 2.4403992c1.5625305 1.5625305 2.4403381 3.6818237 2.4403381 5.8916016l0 0c0 4.601654 -3.7302856 8.332031 -8.331818 8.332031l0 0c-4.601532 0 -8.331787 -3.7303772 -8.331787 -8.332031z" fill-rule="evenodd"/>
        <path fill="#000000" fill-opacity="0.0" d="m402.98645 358.77335l7.5577087 0" fill-rule="evenodd"/>
        <path stroke="#3f3f3f" stroke-width="1.0" stroke-miterlimit="800.0" stroke-linecap="butt" d="m402.98645 358.77335l7.5577087 0" fill-rule="evenodd"/>
        <path fill="#000000" fill-opacity="0.0" d="m402.98645 361.01334l7.5577087 0" fill-rule="evenodd"/>
        <path stroke="#3f3f3f" stroke-width="1.0" stroke-miterlimit="800.0" stroke-linecap="butt" d="m402.98645 361.01334l7.5577087 0" fill-rule="evenodd"/>
        <path fill="#000000" fill-opacity="0.0" d="m402.98645 363.25333l7.5319824 0" fill-rule="evenodd"/>
        <path stroke="#3f3f3f" stroke-width="1.0" stroke-miterlimit="800.0" stroke-linecap="butt" d="m402.98645 363.25333l7.5319824 0" fill-rule="evenodd"/>
        <path fill="#ffffff" d="m398.34647 392.0767l0 0c0 -4.601654 3.7302551 -8.332031 8.331787 -8.332031l0 0c2.2097473 0 4.3289795 0.87783813 5.8914795 2.4403992c1.5625305 1.562561 2.4403381 3.6818542 2.4403381 5.891632l0 0c0 4.601654 -3.7302856 8.332031 -8.331818 8.332031l0 0c-4.601532 0 -8.331787 -3.7303772 -8.331787 -8.332031z" fill-rule="evenodd"/>
        <path stroke="#000000" stroke-width="1.3333333333333333" stroke-miterlimit="800.0" stroke-linecap="butt" d="m398.34647 392.0767l0 0c0 -4.601654 3.7302551 -8.332031 8.331787 -8.332031l0 0c2.2097473 0 4.3289795 0.87783813 5.8914795 2.4403992c1.5625305 1.562561 2.4403381 3.6818542 2.4403381 5.891632l0 0c0 4.601654 -3.7302856 8.332031 -8.331818 8.332031l0 0c-4.601532 0 -8.331787 -3.7303772 -8.331787 -8.332031z" fill-rule="evenodd"/>
        <path id="dpad" fill="#ffffff" d="m364.4778 430.75223l15.252991 0l0 -15.253326c5.890167 -2.8133545 11.405151 -2.6249695 17.107666 0l0 15.253326l15.25296 0c2.8147888 5.327301 2.0634766 11.59317 0 17.108063l-15.25296 0l0 15.253296c-4.9523926 2.064911 -12.1553955 1.500946 -17.107666 0l0 -15.253296l-15.252991 0c-2.437317 -7.3905334 -1.6888733 -10.46759 0 -17.108063z" fill-rule="evenodd"/>
        <path stroke="#000000" stroke-width="1.3333333333333333" stroke-miterlimit="800.0" stroke-linecap="butt" d="m364.4778 430.75223l15.252991 0l0 -15.253326c5.890167 -2.8133545 11.405151 -2.6249695 17.107666 0l0 15.253326l15.25296 0c2.8147888 5.327301 2.0634766 11.59317 0 17.108063l-15.25296 0l0 15.253296c-4.9523926 2.064911 -12.1553955 1.500946 -17.107666 0l0 -15.253296l-15.252991 0c-2.437317 -7.3905334 -1.6888733 -10.46759 0 -17.108063z" fill-rule="evenodd"/>
        <path fill="#000000" fill-opacity="0.0" d="m386.4379 387.87045l4.535431 0" fill-rule="evenodd"/>
        <path stroke="#3f3f3f" stroke-width="1.3333333333333333" stroke-miterlimit="800.0" stroke-linecap="butt" d="m386.4379 387.87045l4.535431 0" fill-rule="evenodd"/>
        <path fill="#000000" fill-opacity="0.0" d="m386.4379 392.19046l4.533325 0" fill-rule="evenodd"/>
        <path stroke="#3f3f3f" stroke-width="1.3333333333333333" stroke-miterlimit="800.0" stroke-linecap="butt" d="m386.4379 392.19046l4.533325 0" fill-rule="evenodd"/>
        <path fill="#000000" fill-opacity="0.0" d="m386.4379 396.67044l4.535431 0" fill-rule="evenodd"/>
        <path stroke="#3f3f3f" stroke-width="1.3333333333333333" stroke-miterlimit="800.0" stroke-linecap="butt" d="m386.4379 396.67044l4.535431 0" fill-rule="evenodd"/>
        <path fill="#757070" d="m508.68314 480.31326l0 0c0 -2.4317322 1.9717712 -4.4030457 4.4040833 -4.4030457l0 0c1.1680298 0 2.288208 0.4638672 3.1141357 1.2896118c0.82592773 0.8257446 1.289917 1.9456787 1.289917 3.1134338l0 0c0 2.4317322 -1.9718018 4.4030457 -4.4040527 4.4030457l0 0c-2.432312 0 -4.4040833 -1.9713135 -4.4040833 -4.4030457z" fill-rule="evenodd"/>
        <path stroke="#3f3f3f" stroke-width="1.0" stroke-miterlimit="800.0" stroke-linecap="butt" d="m508.68314 480.31326l0 0c0 -2.4317322 1.9717712 -4.4030457 4.4040833 -4.4030457l0 0c1.1680298 0 2.288208 0.4638672 3.1141357 1.2896118c0.82592773 0.8257446 1.289917 1.9456787 1.289917 3.1134338l0 0c0 2.4317322 -1.9718018 4.4030457 -4.4040527 4.4030457l0 0c-2.432312 0 -4.4040833 -1.9713135 -4.4040833 -4.4030457z" fill-rule="evenodd"/>
        <path fill="#000000" fill-opacity="0.0" d="m500.3579 468.67044l19.996094 0l0 27.399994l-19.996094 0z" fill-rule="evenodd"/>
        <path fill="#404040"
              d="m514.82666 481.1773q0.0625 0.171875 0.0625 0.265625q0.015625 0.09375 -0.03125 0.140625q-0.046875 0.046875 -0.171875 0.0625q-0.125 0.015625 -0.359375 0.015625q-0.234375 0 -0.359375 -0.015625q-0.125 0 -0.203125 -0.015625q-0.0625 -0.03125 -0.09375 -0.0625q-0.015625 -0.03125 -0.046875 -0.09375l-0.390625 -1.1875l-2.21875 0l-0.375 1.15625q-0.015625 0.0625 -0.046875 0.109375q-0.015625 0.03125 -0.09375 0.0625q-0.0625 0.03125 -0.1875 0.03125q-0.109375 0.015625 -0.3125 0.015625q-0.203125 0 -0.328125 -0.015625q-0.109375 -0.015625 -0.15625 -0.0625q-0.046875 -0.0625 -0.046875 -0.15625q0.015625 -0.09375 0.078125 -0.25l1.8125 -5.234375q0.03125 -0.078125 0.0625 -0.125q0.046875 -0.046875 0.125 -0.0625q0.078125 -0.03125 0.21875 -0.03125q0.140625 -0.015625 0.375 -0.015625q0.265625 0 0.421875 0.015625q0.15625 0 0.25 0.03125q0.09375 0.015625 0.125 0.078125q0.046875 0.046875 0.0625 0.125l1.828125 5.21875zm-2.703125 -4.3125l0 0l-0.84375 2.5l1.671875 0l-0.828125 -2.5z"
              fill-rule="nonzero"/>
        <path fill="#757070" d="m678.0128 479.7143l0 0c0 -2.4297485 1.9702148 -4.3994446 4.400635 -4.3994446l0 0c1.1671143 0 2.286438 0.46350098 3.1116943 1.2885742c0.8253174 0.8250427 1.2889404 1.9440613 1.2889404 3.1108704l0 0c0 2.429779 -1.9702148 4.399475 -4.400635 4.399475l0 0c-2.43042 0 -4.400635 -1.969696 -4.400635 -4.399475z" fill-rule="evenodd"/>
        <path stroke="#3f3f3f" stroke-width="1.0" stroke-miterlimit="800.0" stroke-linecap="butt" d="m678.0128 479.7143l0 0c0 -2.4297485 1.9702148 -4.3994446 4.400635 -4.3994446l0 0c1.1671143 0 2.286438 0.46350098 3.1116943 1.2885742c0.8253174 0.8250427 1.2889404 1.9440613 1.2889404 3.1108704l0 0c0 2.429779 -1.9702148 4.399475 -4.400635 4.399475l0 0c-2.43042 0 -4.400635 -1.969696 -4.400635 -4.399475z" fill-rule="evenodd"/>
        <path fill="#000000" fill-opacity="0.0" d="m669.7979 468.51044l19.980469 0l0 27.377747l-19.980469 0z" fill-rule="evenodd"/>
        <path fill="#404040"
              d="m683.70416 479.70483q0 0.3125 -0.09375 0.578125q-0.078125 0.25 -0.234375 0.453125q-0.140625 0.1875 -0.359375 0.328125q-0.203125 0.140625 -0.46875 0.234375q-0.25 0.078125 -0.546875 0.125q-0.28125 0.046875 -0.640625 0.046875l-1.5625 0q-0.15625 0 -0.265625 -0.078125q-0.09375 -0.09375 -0.09375 -0.296875l0 -5.140625q0 -0.203125 0.09375 -0.28125q0.109375 -0.09375 0.265625 -0.09375l1.484375 0q0.53125 0 0.90625 0.09375q0.375 0.078125 0.625 0.265625q0.265625 0.1875 0.40625 0.46875q0.140625 0.28125 0.140625 0.671875q0 0.203125 -0.0625 0.40625q-0.046875 0.1875 -0.15625 0.34375q-0.109375 0.140625 -0.265625 0.265625q-0.140625 0.125 -0.34375 0.1875q0.25 0.046875 0.453125 0.171875q0.21875 0.109375 0.375 0.296875q0.171875 0.171875 0.25 0.421875q0.09375 0.234375 0.09375 0.53125zm-1.546875 -2.484375q0 -0.171875 -0.0625 -0.3125q-0.046875 -0.140625 -0.15625 -0.234375q-0.109375 -0.09375 -0.28125 -0.140625q-0.15625 -0.0625 -0.4375 -0.0625l-0.609375 0l0 1.53125l0.671875 0q0.265625 0 0.421875 -0.0625q0.15625 -0.0625 0.25 -0.15625q0.109375 -0.109375 0.15625 -0.25q0.046875 -0.15625 0.046875 -0.3125zm0.3125 2.53125q0 -0.21875 -0.078125 -0.375q-0.0625 -0.15625 -0.203125 -0.265625q-0.125 -0.109375 -0.328125 -0.171875q-0.203125 -0.0625 -0.53125 -0.0625l-0.71875 0l0 1.671875l0.875 0q0.25 0 0.421875 -0.046875q0.171875 -0.046875 0.296875 -0.140625q0.125 -0.109375 0.1875 -0.265625q0.078125 -0.15625 0.078125 -0.34375z"
              fill-rule="nonzero"/>
        <path id= "rightStick" fill="#ffffff" d="m332.54132 338.21576l11.0 0l0 21.333313l-11.0 0z" fill-rule="evenodd"/>
        <path stroke="#000000" stroke-width="1.3333333333333333" stroke-miterlimit="800.0" stroke-linecap="butt" d="m332.54132 338.21576l11.0 0l0 21.333313l-11.0 0z" fill-rule="evenodd"/>
        <path id= "leftStick" fill="#ffffff" d="m774.10223 338.21576l11.047607 0l0 21.333313l-11.047607 0z" fill-rule="evenodd"/>
        <path stroke="#000000" stroke-width="1.3333333333333333" stroke-miterlimit="800.0" stroke-linecap="butt" d="m774.10223 338.21576l11.047607 0l0 21.333313l-11.047607 0z" fill-rule="evenodd"/>
        <path fill="#3f3f3f" d="m337.8088 344.08713l0.1871643 0.37545776l0.18713379 -0.37545776c-0.06323242 -3.9672852E-4 -0.09765625 0.09069824 -0.19387817 0.08203125c-0.091156006 0.0067749023 -0.1111145 -0.060180664 -0.18041992 -0.08203125z" fill-rule="evenodd"/>
        <path stroke="#3f3f3f" stroke-width="1.3333333333333333" stroke-miterlimit="800.0" stroke-linecap="butt" d="m337.8088 344.08713l0.1871643 0.37545776l0.18713379 -0.37545776c-0.06323242 -3.9672852E-4 -0.09765625 0.09069824 -0.19387817 0.08203125c-0.091156006 0.0067749023 -0.1111145 -0.060180664 -0.18041992 -0.08203125z" fill-rule="evenodd"/>
        <path fill="#000000" fill-opacity="0.0" d="m335.9985 351.43652c0.023162842 -1.29953 0.0134887695 -0.3179016 0.07571411 -2.1016235c-0.7668457 -0.087524414 -1.0955505 -0.054504395 -1.64151 -0.85928345c-0.20941162 -1.2780762 0.0848999 -2.0541687 1.0458374 -2.0684814l5.4872437 0c0.7973938 0.2086792 0.9246216 1.2799988 0.8722534 1.7814941c-0.17855835 1.219696 -1.3184509 1.2115784 -1.8700562 1.194458c-0.0053100586 1.0348816 -0.017059326 0.96258545 -0.022399902 2.0492554" fill-rule="evenodd"/>
        <path stroke="#3f3f3f" stroke-width="1.0" stroke-miterlimit="800.0" stroke-linecap="butt"
              d="m335.9985 351.43652c0.023162842 -1.29953 0.0134887695 -0.3179016 0.07571411 -2.1016235c-0.7668457 -0.087524414 -1.0955505 -0.054504395 -1.64151 -0.85928345c-0.20941162 -1.2780762 0.0848999 -2.0541687 1.0458374 -2.0684814l5.4872437 0c0.7973938 0.2086792 0.9246216 1.2799988 0.8722534 1.7814941c-0.17855835 1.219696 -1.3184509 1.2115784 -1.8700562 1.194458c-0.0053100586 1.0348816 -0.017059326 0.96258545 -0.022399902 2.0492554" fill-rule="evenodd"/>
        <path fill="#000000" fill-opacity="0.0" d="m326.68765 340.55728l26.998108 0l0 18.095856l-26.998108 0z" fill-rule="evenodd"/>
        <path fill="#404040"
              d="m338.18765 348.95914q0 0.03125 -0.015625 0.046875q0 0.015625 -0.03125 0.03125q-0.03125 0 -0.109375 0q-0.0625 0.015625 -0.171875 0.015625q-0.09375 0 -0.15625 -0.015625q-0.046875 0 -0.09375 0q-0.03125 -0.015625 -0.046875 -0.03125q0 -0.03125 -0.015625 -0.0625l-0.265625 -0.65625q-0.046875 -0.109375 -0.09375 -0.1875q-0.046875 -0.09375 -0.109375 -0.140625q-0.046875 -0.0625 -0.125 -0.09375q-0.0625 -0.03125 -0.15625 -0.03125l-0.1875 0l0 1.125q0 0.015625 -0.015625 0.046875q-0.015625 0.015625 -0.046875 0.03125q-0.03125 0 -0.09375 0q-0.0625 0.015625 -0.140625 0.015625q-0.09375 0 -0.15625 -0.015625q-0.046875 0 -0.09375 0q-0.03125 -0.015625 -0.046875 -0.03125q0 -0.03125 0 -0.046875l0 -2.671875q0 -0.109375 0.046875 -0.140625q0.046875 -0.046875 0.125 -0.046875l0.765625 0q0.109375 0 0.1875 0q0.078125 0 0.140625 0.015625q0.171875 0.015625 0.3125 0.078125q0.140625 0.0625 0.234375 0.171875q0.109375 0.09375 0.15625 0.234375q0.046875 0.125 0.046875 0.296875q0 0.15625 -0.03125 0.28125q-0.03125 0.109375 -0.109375 0.21875q-0.078125 0.09375 -0.1875 0.171875q-0.09375 0.0625 -0.234375 0.09375q0.0625 0.03125 0.125 0.078125q0.0625 0.046875 0.109375 0.125q0.046875 0.0625 0.09375 0.140625q0.046875 0.078125 0.09375 0.1875l0.25 0.578125q0.03125 0.09375 0.03125 0.140625q0.015625 0.03125 0.015625 0.046875zm-0.765625 -2.0q0 -0.140625 -0.078125 -0.234375q-0.0625 -0.109375 -0.203125 -0.140625q-0.046875 -0.015625 -0.109375 -0.015625q-0.046875 -0.015625 -0.15625 -0.015625l-0.265625 0l0 0.828125l0.296875 0q0.125 0 0.21875 -0.03125q0.109375 -0.03125 0.171875 -0.078125q0.0625 -0.0625 0.09375 -0.140625q0.03125 -0.078125 0.03125 -0.171875z"
              fill-rule="nonzero"/>
        <path fill="#3f3f3f" d="m779.6381 344.7076l0.18713379 0.37542725l0.18713379 -0.37542725c-0.06323242 -4.272461E-4 -0.09765625 0.09069824 -0.19384766 0.08203125c-0.09118652 0.0067749023 -0.11114502 -0.06021118 -0.18041992 -0.08203125z" fill-rule="evenodd"/>
        <path stroke="#3f3f3f" stroke-width="1.3333333333333333" stroke-miterlimit="800.0" stroke-linecap="butt" d="m779.6381 344.7076l0.18713379 0.37542725l0.18713379 -0.37542725c-0.06323242 -4.272461E-4 -0.09765625 0.09069824 -0.19384766 0.08203125c-0.09118652 0.0067749023 -0.11114502 -0.06021118 -0.18041992 -0.08203125z" fill-rule="evenodd"/>
        <path fill="#000000" fill-opacity="0.0" d="m777.8278 352.057c0.023132324 -1.2995605 0.0134887695 -0.3179016 0.075683594 -2.1016235c-0.7668457 -0.087524414 -1.09552 -0.054504395 -1.6415405 -0.85931396c-0.20941162 -1.2780457 0.0848999 -2.0541382 1.0458984 -2.068451l5.4872437 0c0.7973633 0.2086792 0.9246216 1.2799988 0.8722534 1.7814941c-0.17858887 1.219696 -1.3184814 1.2115784 -1.8701172 1.1944275c-0.0052490234 1.0349121 -0.017028809 0.96261597 -0.022399902 2.0492554" fill-rule="evenodd"/>
        <path stroke="#3f3f3f" stroke-width="1.0" stroke-miterlimit="800.0" stroke-linecap="butt"
              d="m777.8278 352.057c0.023132324 -1.2995605 0.0134887695 -0.3179016 0.075683594 -2.1016235c-0.7668457 -0.087524414 -1.09552 -0.054504395 -1.6415405 -0.85931396c-0.20941162 -1.2780457 0.0848999 -2.0541382 1.0458984 -2.068451l5.4872437 0c0.7973633 0.2086792 0.9246216 1.2799988 0.8722534 1.7814941c-0.17858887 1.219696 -1.3184814 1.2115784 -1.8701172 1.1944275c-0.0052490234 1.0349121 -0.017028809 0.96261597 -0.022399902 2.0492554" fill-rule="evenodd"/>
        <path fill="#000000" fill-opacity="0.0" d="m768.83405 341.33774l26.998108 0l0 18.095856l-26.998108 0z" fill-rule="evenodd"/>
        <path fill="#404040"
              d="m779.77155 349.56775q0 0.0625 -0.015625 0.109375q0 0.046875 -0.015625 0.078125q0 0.03125 -0.015625 0.046875q-0.015625 0.015625 -0.046875 0.015625l-1.34375 0q-0.078125 0 -0.125 -0.046875q-0.046875 -0.046875 -0.046875 -0.140625l0 -2.671875q0 -0.03125 0 -0.046875q0.015625 -0.015625 0.046875 -0.015625q0.046875 -0.015625 0.09375 -0.015625q0.0625 -0.015625 0.15625 -0.015625q0.078125 0 0.140625 0.015625q0.0625 0 0.09375 0.015625q0.03125 0 0.046875 0.015625q0.015625 0.015625 0.015625 0.046875l0 2.359375l0.921875 0q0.03125 0 0.046875 0.015625q0.015625 0.015625 0.015625 0.046875q0.015625 0.03125 0.015625 0.078125q0.015625 0.046875 0.015625 0.109375z"
              fill-rule="nonzero"/>
    </g>
    <g clip-path="url(#p_1.0)" transform="translate(100, -50) scale(0.80)">
    <path d="m0 0l1122.5197 0l0 793.7008l-1122.5197 0z" fill="#000000" fill-opacity="0.0" fill-rule="evenodd"/>
            <path d="m0 0l1122.5197 0l0 793.7008l-1122.5197 0l0 -793.7008z" clip-rule="nonzero"/>
        <g clip-path="url(#p_1.0)">
            <path fill="#000000" fill-opacity="0.0" d="m0 0l1122.5197 0l0 793.7008l-1122.5197 0z" fill-rule="evenodd"/>
            <path fill="#000000" fill-opacity="0.0" d="m307.44168 376.26373l507.63516 0l0 41.173218l-507.63516 0z" fill-rule="evenodd"/>
            <path fill="#757070" d="m307.44168 376.26373l507.63644 0l0 40.0l-507.63644 0z" fill-rule="evenodd"/>
            <path stroke="#000000" stroke-width="1.3333333333333333" stroke-miterlimit="800.0" stroke-linecap="butt" d="m307.44168 376.26373l507.63644 0l0 40.0l-507.63644 0z" fill-rule="evenodd"/>
            <path fill="#ffffff" d="m323.9217 398.17706l0 0c0 -3.442566 2.790741 -6.2333374 6.233307 -6.2333374l0 0c1.6531982 0 3.238678 0.6567383 4.407654 1.8257141c1.1689758 1.1689758 1.8256836 2.754425 1.8256836 4.4076233l0 0c0 3.442566 -2.790741 6.2333374 -6.2333374 6.2333374l0 0c-3.442566 0 -6.233307 -2.7907715 -6.233307 -6.2333374z" fill-rule="evenodd"/>
            <path stroke="#000000" stroke-width="1.3333333333333333" stroke-miterlimit="800.0" stroke-linecap="butt" d="m323.9217 398.17706l0 0c0 -3.442566 2.790741 -6.2333374 6.233307 -6.2333374l0 0c1.6531982 0 3.238678 0.6567383 4.407654 1.8257141c1.1689758 1.1689758 1.8256836 2.754425 1.8256836 4.4076233l0 0c0 3.442566 -2.790741 6.2333374 -6.2333374 6.2333374l0 0c-3.442566 0 -6.233307 -2.7907715 -6.233307 -6.2333374z" fill-rule="evenodd"/>
            <path id= "yButton" fill="#ffffff" d="m349.68167 396.58374l0 0c0 -2.1207886 1.7192383 -3.8400269 3.8399963 -3.8400269l0 0c1.0184326 0 1.9951477 0.40457153 2.7153015 1.1247253c0.7201538 0.7201233 1.1247253 1.6968689 1.1247253 2.7153015l0 0c0 2.120758 -1.7192383 3.8399963 -3.8400269 3.8399963l0 0c-2.120758 0 -3.8399963 -1.7192383 -3.8399963 -3.8399963z" fill-rule="evenodd"/>
            <path stroke="#000000" stroke-width="1.3333333333333333" stroke-miterlimit="800.0" stroke-linecap="butt" d="m349.68167 396.58374l0 0c0 -2.1207886 1.7192383 -3.8400269 3.8399963 -3.8400269l0 0c1.0184326 0 1.9951477 0.40457153 2.7153015 1.1247253c0.7201538 0.7201233 1.1247253 1.6968689 1.1247253 2.7153015l0 0c0 2.120758 -1.7192383 3.8399963 -3.8400269 3.8399963l0 0c-2.120758 0 -3.8399963 -1.7192383 -3.8399963 -3.8399963z" fill-rule="evenodd"/>
            <path  id= "xButton" fill="#ffffff" d="m371.60168 396.58374l0 0c0 -2.1207886 1.7192078 -3.8400269 3.8399963 -3.8400269l0 0c1.0184326 0 1.9951477 0.40457153 2.7153015 1.1247253c0.7201233 0.7201233 1.1246948 1.6968689 1.1246948 2.7153015l0 0c0 2.120758 -1.7192383 3.8399963 -3.8399963 3.8399963l0 0c-2.1207886 0 -3.8399963 -1.7192383 -3.8399963 -3.8399963z" fill-rule="evenodd"/>
            <path stroke="#000000" stroke-width="1.3333333333333333" stroke-miterlimit="800.0" stroke-linecap="butt" d="m371.60168 396.58374l0 0c0 -2.1207886 1.7192078 -3.8400269 3.8399963 -3.8400269l0 0c1.0184326 0 1.9951477 0.40457153 2.7153015 1.1247253c0.7201233 0.7201233 1.1246948 1.6968689 1.1246948 2.7153015l0 0c0 2.120758 -1.7192383 3.8399963 -3.8399963 3.8399963l0 0c-2.1207886 0 -3.8399963 -1.7192383 -3.8399963 -3.8399963z" fill-rule="evenodd"/>
            <path  id= "bButton" fill="#ffffff" d="m393.52167 396.57706l0 0c0 -2.117096 1.7162476 -3.8333435 3.8333435 -3.8333435l0 0c1.0166626 0 1.9916992 0.40386963 2.7105713 1.1227722c0.7189026 0.7189026 1.1227722 1.6939087 1.1227722 2.7105713l0 0c0 2.117096 -1.7162476 3.8333435 -3.8333435 3.8333435l0 0c-2.117096 0 -3.8333435 -1.7162476 -3.8333435 -3.8333435z" fill-rule="evenodd"/>
            <path stroke="#000000" stroke-width="1.3333333333333333" stroke-miterlimit="800.0" stroke-linecap="butt" d="m393.52167 396.57706l0 0c0 -2.117096 1.7162476 -3.8333435 3.8333435 -3.8333435l0 0c1.0166626 0 1.9916992 0.40386963 2.7105713 1.1227722c0.7189026 0.7189026 1.1227722 1.6939087 1.1227722 2.7105713l0 0c0 2.117096 -1.7162476 3.8333435 -3.8333435 3.8333435l0 0c-2.117096 0 -3.8333435 -1.7162476 -3.8333435 -3.8333435z" fill-rule="evenodd"/>
            <path  id= "aButton" fill="#ffffff" d="m415.60168 396.57706l0 0c0 -2.117096 1.7162476 -3.8333435 3.8333435 -3.8333435l0 0c1.0166626 0 1.9916687 0.40386963 2.7105713 1.1227722c0.7188721 0.7189026 1.1227417 1.6939087 1.1227417 2.7105713l0 0c0 2.117096 -1.7162476 3.8333435 -3.833313 3.8333435l0 0c-2.117096 0 -3.8333435 -1.7162476 -3.8333435 -3.8333435z" fill-rule="evenodd"/>
            <path stroke="#000000" stroke-width="1.3333333333333333" stroke-miterlimit="800.0" stroke-linecap="butt" d="m415.60168 396.57706l0 0c0 -2.117096 1.7162476 -3.8333435 3.8333435 -3.8333435l0 0c1.0166626 0 1.9916687 0.40386963 2.7105713 1.1227722c0.7188721 0.7189026 1.1227417 1.6939087 1.1227417 2.7105713l0 0c0 2.117096 -1.7162476 3.8333435 -3.833313 3.8333435l0 0c-2.117096 0 -3.8333435 -1.7162476 -3.8333435 -3.8333435z" fill-rule="evenodd"/>
            <path  id= "rightStickClick" fill="#ffffff" d="m437.3617 396.57706l0 0c0 -2.117096 1.716217 -3.8333435 3.833313 -3.8333435l0 0c1.0166626 0 1.9916992 0.40386963 2.7105713 1.1227722c0.7189026 0.7189026 1.1227722 1.6939087 1.1227722 2.7105713l0 0c0 2.117096 -1.7162476 3.8333435 -3.8333435 3.8333435l0 0c-2.117096 0 -3.833313 -1.7162476 -3.833313 -3.8333435z" fill-rule="evenodd"/>
            <path stroke="#000000" stroke-width="1.3333333333333333" stroke-miterlimit="800.0" stroke-linecap="butt" d="m437.3617 396.57706l0 0c0 -2.117096 1.716217 -3.8333435 3.833313 -3.8333435l0 0c1.0166626 0 1.9916992 0.40386963 2.7105713 1.1227722c0.7189026 0.7189026 1.1227722 1.6939087 1.1227722 2.7105713l0 0c0 2.117096 -1.7162476 3.8333435 -3.8333435 3.8333435l0 0c-2.117096 0 -3.833313 -1.7162476 -3.833313 -3.8333435z" fill-rule="evenodd"/>
            <path  id= "rightBumper" fill="#ffffff" d="m459.44168 396.57706l0 0c0 -2.117096 1.7162476 -3.8333435 3.8333435 -3.8333435l0 0c1.0166626 0 1.9916687 0.40386963 2.7105713 1.1227722c0.7188721 0.7189026 1.1227417 1.6939087 1.1227417 2.7105713l0 0c0 2.117096 -1.7162476 3.8333435 -3.833313 3.8333435l0 0c-2.117096 0 -3.8333435 -1.7162476 -3.8333435 -3.8333435z" fill-rule="evenodd"/>
            <path stroke="#000000" stroke-width="1.3333333333333333" stroke-miterlimit="800.0" stroke-linecap="butt" d="m459.44168 396.57706l0 0c0 -2.117096 1.7162476 -3.8333435 3.8333435 -3.8333435l0 0c1.0166626 0 1.9916687 0.40386963 2.7105713 1.1227722c0.7188721 0.7189026 1.1227417 1.6939087 1.1227417 2.7105713l0 0c0 2.117096 -1.7162476 3.8333435 -3.833313 3.8333435l0 0c-2.117096 0 -3.8333435 -1.7162476 -3.8333435 -3.8333435z" fill-rule="evenodd"/>
            <path  id= "rightTrigger" fill="#ffffff" d="m481.3617 396.41705l0 0c0 -2.117096 1.716217 -3.833313 3.833313 -3.833313l0 0c1.0166626 0 1.9916992 0.40386963 2.7105713 1.1227417c0.7189026 0.7189026 1.1227722 1.6939087 1.1227722 2.7105713l0 0c0 2.117096 -1.7162476 3.8333435 -3.8333435 3.8333435l0 0c-2.117096 0 -3.833313 -1.7162476 -3.833313 -3.8333435z" fill-rule="evenodd"/>
            <path stroke="#000000" stroke-width="1.3333333333333333" stroke-miterlimit="800.0" stroke-linecap="butt" d="m481.3617 396.41705l0 0c0 -2.117096 1.716217 -3.833313 3.833313 -3.833313l0 0c1.0166626 0 1.9916992 0.40386963 2.7105713 1.1227417c0.7189026 0.7189026 1.1227722 1.6939087 1.1227722 2.7105713l0 0c0 2.117096 -1.7162476 3.8333435 -3.8333435 3.8333435l0 0c-2.117096 0 -3.833313 -1.7162476 -3.833313 -3.8333435z" fill-rule="evenodd"/>
            <path  id= "leftTrigger" fill="#ffffff" d="m503.44168 396.57706l0 0c0 -2.117096 1.7162476 -3.8333435 3.8333435 -3.8333435l0 0c1.0166626 0 1.9916687 0.40386963 2.7105713 1.1227722c0.7188721 0.7189026 1.1227417 1.6939087 1.1227417 2.7105713l0 0c0 2.117096 -1.7162476 3.8333435 -3.833313 3.8333435l0 0c-2.117096 0 -3.8333435 -1.7162476 -3.8333435 -3.8333435z" fill-rule="evenodd"/>
            <path stroke="#000000" stroke-width="1.3333333333333333" stroke-miterlimit="800.0" stroke-linecap="butt" d="m503.44168 396.57706l0 0c0 -2.117096 1.7162476 -3.8333435 3.8333435 -3.8333435l0 0c1.0166626 0 1.9916687 0.40386963 2.7105713 1.1227722c0.7188721 0.7189026 1.1227417 1.6939087 1.1227417 2.7105713l0 0c0 2.117096 -1.7162476 3.8333435 -3.833313 3.8333435l0 0c-2.117096 0 -3.8333435 -1.7162476 -3.8333435 -3.8333435z" fill-rule="evenodd"/>
            <path  id= "startButton" fill="#ffffff" d="m525.3617 396.57706l0 0c0 -2.117096 1.7162476 -3.8333435 3.833313 -3.8333435l0 0c1.0166626 0 1.9916992 0.40386963 2.7105713 1.1227722c0.7188721 0.7189026 1.1227417 1.6939087 1.1227417 2.7105713l0 0c0 2.117096 -1.7161865 3.8333435 -3.833313 3.8333435l0 0c-2.1170654 0 -3.833313 -1.7162476 -3.833313 -3.8333435z" fill-rule="evenodd"/>
            <path stroke="#000000" stroke-width="1.3333333333333333" stroke-miterlimit="800.0" stroke-linecap="butt" d="m525.3617 396.57706l0 0c0 -2.117096 1.7162476 -3.8333435 3.833313 -3.8333435l0 0c1.0166626 0 1.9916992 0.40386963 2.7105713 1.1227722c0.7188721 0.7189026 1.1227417 1.6939087 1.1227417 2.7105713l0 0c0 2.117096 -1.7161865 3.8333435 -3.833313 3.8333435l0 0c-2.1170654 0 -3.833313 -1.7162476 -3.833313 -3.8333435z" fill-rule="evenodd"/>
            <path  id= "backButton" fill="#ffffff" d="m547.2817 396.57706l0 0c0 -2.117096 1.7162476 -3.8333435 3.833313 -3.8333435l0 0c1.0166626 0 1.9916992 0.40386963 2.7105713 1.1227722c0.7189331 0.7189026 1.1228027 1.6939087 1.1228027 2.7105713l0 0c0 2.117096 -1.7162476 3.8333435 -3.833374 3.8333435l0 0c-2.1170654 0 -3.833313 -1.7162476 -3.833313 -3.8333435z" fill-rule="evenodd"/>
            <path stroke="#000000" stroke-width="1.3333333333333333" stroke-miterlimit="800.0" stroke-linecap="butt" d="m547.2817 396.57706l0 0c0 -2.117096 1.7162476 -3.8333435 3.833313 -3.8333435l0 0c1.0166626 0 1.9916992 0.40386963 2.7105713 1.1227722c0.7189331 0.7189026 1.1228027 1.6939087 1.1228027 2.7105713l0 0c0 2.117096 -1.7162476 3.8333435 -3.833374 3.8333435l0 0c-2.1170654 0 -3.833313 -1.7162476 -3.833313 -3.8333435z" fill-rule="evenodd"/>
            <path  id= "" fill="#ffffff" d="m569.20166 396.57706l0 0c0 -2.117096 1.7162476 -3.8333435 3.833374 -3.8333435l0 0c1.0166626 0 1.9916382 0.40386963 2.7105713 1.1227722c0.7188721 0.7189026 1.1227417 1.6939087 1.1227417 2.7105713l0 0c0 2.117096 -1.7162476 3.8333435 -3.833313 3.8333435l0 0c-2.1171265 0 -3.833374 -1.7162476 -3.833374 -3.8333435z" fill-rule="evenodd"/>
            <path stroke="#000000" stroke-width="1.3333333333333333" stroke-miterlimit="800.0" stroke-linecap="butt" d="m569.20166 396.57706l0 0c0 -2.117096 1.7162476 -3.8333435 3.833374 -3.8333435l0 0c1.0166626 0 1.9916382 0.40386963 2.7105713 1.1227722c0.7188721 0.7189026 1.1227417 1.6939087 1.1227417 2.7105713l0 0c0 2.117096 -1.7162476 3.8333435 -3.833313 3.8333435l0 0c-2.1171265 0 -3.833374 -1.7162476 -3.833374 -3.8333435z" fill-rule="evenodd"/>
            <path  id= "" fill="#ffffff" d="m591.1217 396.57706l0 0c0 -2.117096 1.7162476 -3.8333435 3.833313 -3.8333435l0 0c1.0166626 0 1.9916992 0.40386963 2.7105713 1.1227722c0.7188721 0.7189026 1.1227417 1.6939087 1.1227417 2.7105713l0 0c0 2.117096 -1.7162476 3.8333435 -3.833313 3.8333435l0 0c-2.1170654 0 -3.833313 -1.7162476 -3.833313 -3.8333435z" fill-rule="evenodd"/>
            <path stroke="#000000" stroke-width="1.3333333333333333" stroke-miterlimit="800.0" stroke-linecap="butt" d="m591.1217 396.57706l0 0c0 -2.117096 1.7162476 -3.8333435 3.833313 -3.8333435l0 0c1.0166626 0 1.9916992 0.40386963 2.7105713 1.1227722c0.7188721 0.7189026 1.1227417 1.6939087 1.1227417 2.7105713l0 0c0 2.117096 -1.7162476 3.8333435 -3.833313 3.8333435l0 0c-2.1170654 0 -3.833313 -1.7162476 -3.833313 -3.8333435z" fill-rule="evenodd"/>
            <path  id= "xboxButton" fill="#ffffff" d="m613.20166 396.57706l0 0c0 -2.117096 1.7162476 -3.8333435 3.833374 -3.8333435l0 0c1.0166626 0 1.9916382 0.40386963 2.7105713 1.1227722c0.7188721 0.7189026 1.1227417 1.6939087 1.1227417 2.7105713l0 0c0 2.117096 -1.7162476 3.8333435 -3.833313 3.8333435l0 0c-2.1171265 0 -3.833374 -1.7162476 -3.833374 -3.8333435z" fill-rule="evenodd"/>
            <path stroke="#000000" stroke-width="1.3333333333333333" stroke-miterlimit="800.0" stroke-linecap="butt" d="m613.20166 396.57706l0 0c0 -2.117096 1.7162476 -3.8333435 3.833374 -3.8333435l0 0c1.0166626 0 1.9916382 0.40386963 2.7105713 1.1227722c0.7188721 0.7189026 1.1227417 1.6939087 1.1227417 2.7105713l0 0c0 2.117096 -1.7162476 3.8333435 -3.833313 3.8333435l0 0c-2.1171265 0 -3.833374 -1.7162476 -3.833374 -3.8333435z" fill-rule="evenodd"/>
            <path  id= "leftBumper" fill="#ffffff" d="m634.9617 396.57706l0 0c0 -2.117096 1.7162476 -3.8333435 3.833313 -3.8333435l0 0c1.0167236 0 1.9916992 0.40386963 2.7106323 1.1227722c0.7188721 0.7189026 1.1227417 1.6939087 1.1227417 2.7105713l0 0c0 2.117096 -1.7162476 3.8333435 -3.833374 3.8333435l0 0c-2.1170654 0 -3.833313 -1.7162476 -3.833313 -3.8333435z" fill-rule="evenodd"/>
            <path stroke="#000000" stroke-width="1.3333333333333333" stroke-miterlimit="800.0" stroke-linecap="butt" d="m634.9617 396.57706l0 0c0 -2.117096 1.7162476 -3.8333435 3.833313 -3.8333435l0 0c1.0167236 0 1.9916992 0.40386963 2.7106323 1.1227722c0.7188721 0.7189026 1.1227417 1.6939087 1.1227417 2.7105713l0 0c0 2.117096 -1.7162476 3.8333435 -3.833374 3.8333435l0 0c-2.1170654 0 -3.833313 -1.7162476 -3.833313 -3.8333435z" fill-rule="evenodd"/>
            <path  id= "leftStickClick" fill="#ffffff" d="m656.88165 396.57706l0 0c0 -2.117096 1.7162476 -3.8333435 3.833374 -3.8333435l0 0c1.0166626 0 1.9916992 0.40386963 2.7105713 1.1227722c0.7188721 0.7189026 1.1227417 1.6939087 1.1227417 2.7105713l0 0c0 2.117096 -1.7162476 3.8333435 -3.833313 3.8333435l0 0c-2.1171265 0 -3.833374 -1.7162476 -3.833374 -3.8333435z" fill-rule="evenodd"/>
            <path stroke="#000000" stroke-width="1.3333333333333333" stroke-miterlimit="800.0" stroke-linecap="butt" d="m656.88165 396.57706l0 0c0 -2.117096 1.7162476 -3.8333435 3.833374 -3.8333435l0 0c1.0166626 0 1.9916992 0.40386963 2.7105713 1.1227722c0.7188721 0.7189026 1.1227417 1.6939087 1.1227417 2.7105713l0 0c0 2.117096 -1.7162476 3.8333435 -3.833313 3.8333435l0 0c-2.1171265 0 -3.833374 -1.7162476 -3.833374 -3.8333435z" fill-rule="evenodd"/>
            <path  id= "leftStick" fill="#ffffff" d="m678.9617 396.57706l0 0c0 -2.117096 1.7162476 -3.8333435 3.833313 -3.8333435l0 0c1.0167236 0 1.9916992 0.40386963 2.7106323 1.1227722c0.7188721 0.7189026 1.1227417 1.6939087 1.1227417 2.7105713l0 0c0 2.117096 -1.7162476 3.8333435 -3.833374 3.8333435l0 0c-2.1170654 0 -3.833313 -1.7162476 -3.833313 -3.8333435z" fill-rule="evenodd"/>
            <path stroke="#000000" stroke-width="1.3333333333333333" stroke-miterlimit="800.0" stroke-linecap="butt" d="m678.9617 396.57706l0 0c0 -2.117096 1.7162476 -3.8333435 3.833313 -3.8333435l0 0c1.0167236 0 1.9916992 0.40386963 2.7106323 1.1227722c0.7188721 0.7189026 1.1227417 1.6939087 1.1227417 2.7105713l0 0c0 2.117096 -1.7162476 3.8333435 -3.833374 3.8333435l0 0c-2.1170654 0 -3.833313 -1.7162476 -3.833313 -3.8333435z" fill-rule="evenodd"/>
            <path  id= "leftStick" fill="#ffffff" d="m700.88165 396.57706l0 0c0 -2.117096 1.7162476 -3.8333435 3.833374 -3.8333435l0 0c1.0166626 0 1.9916992 0.40386963 2.7105713 1.1227722c0.7188721 0.7189026 1.1227417 1.6939087 1.1227417 2.7105713l0 0c0 2.117096 -1.7162476 3.8333435 -3.833313 3.8333435l0 0c-2.1171265 0 -3.833374 -1.7162476 -3.833374 -3.8333435z" fill-rule="evenodd"/>
            <path stroke="#000000" stroke-width="1.3333333333333333" stroke-miterlimit="800.0" stroke-linecap="butt" d="m700.88165 396.57706l0 0c0 -2.117096 1.7162476 -3.8333435 3.833374 -3.8333435l0 0c1.0166626 0 1.9916992 0.40386963 2.7105713 1.1227722c0.7188721 0.7189026 1.1227417 1.6939087 1.1227417 2.7105713l0 0c0 2.117096 -1.7162476 3.8333435 -3.833313 3.8333435l0 0c-2.1171265 0 -3.833374 -1.7162476 -3.833374 -3.8333435z" fill-rule="evenodd"/>
            <path  id= "leftStick" fill="#ffffff" d="m722.8017 396.57706l0 0c0 -2.117096 1.7162476 -3.8333435 3.833313 -3.8333435l0 0c1.0166626 0 1.9916992 0.40386963 2.7105713 1.1227722c0.7188721 0.7189026 1.1227417 1.6939087 1.1227417 2.7105713l0 0c0 2.117096 -1.7162476 3.8333435 -3.833313 3.8333435l0 0c-2.1170654 0 -3.833313 -1.7162476 -3.833313 -3.8333435z" fill-rule="evenodd"/>
            <path stroke="#000000" stroke-width="1.3333333333333333" stroke-miterlimit="800.0" stroke-linecap="butt" d="m722.8017 396.57706l0 0c0 -2.117096 1.7162476 -3.8333435 3.833313 -3.8333435l0 0c1.0166626 0 1.9916992 0.40386963 2.7105713 1.1227722c0.7188721 0.7189026 1.1227417 1.6939087 1.1227417 2.7105713l0 0c0 2.117096 -1.7162476 3.8333435 -3.833313 3.8333435l0 0c-2.1170654 0 -3.833313 -1.7162476 -3.833313 -3.8333435z" fill-rule="evenodd"/>
            <path  id= "leftStick" fill="#ffffff" d="m744.88165 396.57706l0 0c0 -2.117096 1.7162476 -3.8333435 3.833374 -3.8333435l0 0c1.0166626 0 1.9916992 0.40386963 2.7105713 1.1227722c0.7188721 0.7189026 1.1227417 1.6939087 1.1227417 2.7105713l0 0c0 2.117096 -1.7162476 3.8333435 -3.833313 3.8333435l0 0c-2.1171265 0 -3.833374 -1.7162476 -3.833374 -3.8333435z" fill-rule="evenodd"/>
            <path stroke="#000000" stroke-width="1.3333333333333333" stroke-miterlimit="800.0" stroke-linecap="butt" d="m744.88165 396.57706l0 0c0 -2.117096 1.7162476 -3.8333435 3.833374 -3.8333435l0 0c1.0166626 0 1.9916992 0.40386963 2.7105713 1.1227722c0.7188721 0.7189026 1.1227417 1.6939087 1.1227417 2.7105713l0 0c0 2.117096 -1.7162476 3.8333435 -3.833313 3.8333435l0 0c-2.1171265 0 -3.833374 -1.7162476 -3.833374 -3.8333435z" fill-rule="evenodd"/>
            <path fill="#757070" d="m787.1217 399.1504l0 0c0 -3.184845 2.581787 -5.7666626 5.7666626 -5.7666626l0 0c1.529419 0 2.9961548 0.60754395 4.0776367 1.6890259c1.0814819 1.0814514 1.6890259 2.5482178 1.6890259 4.0776367l0 0c0 3.184845 -2.5818481 5.7666626 -5.7666626 5.7666626l0 0c-3.1848755 0 -5.7666626 -2.5818176 -5.7666626 -5.7666626z" fill-rule="evenodd"/>
            <path stroke="#3f3f3f" stroke-width="1.3333333333333333" stroke-miterlimit="800.0" stroke-linecap="butt" d="m787.1217 399.1504l0 0c0 -3.184845 2.581787 -5.7666626 5.7666626 -5.7666626l0 0c1.529419 0 2.9961548 0.60754395 4.0776367 1.6890259c1.0814819 1.0814514 1.6890259 2.5482178 1.6890259 4.0776367l0 0c0 3.184845 -2.5818481 5.7666626 -5.7666626 5.7666626l0 0c-3.1848755 0 -5.7666626 -2.5818176 -5.7666626 -5.7666626z" fill-rule="evenodd"/>
            <path fill="#757070" d="m762.32166 394.7136c0 -0.6236267 1.7645264 -2.1298523 2.3919067 -2.1298523l11.981506 0c0.6274414 0 2.486145 1.256073 2.486145 1.8796692l0 2.515625c0 0.6235962 -1.9848022 2.3800354 -2.6121826 2.3800354l-11.477356 0c-0.6273804 0 -2.644165 -1.3811951 -2.644165 -2.0047913l-0.12585449 -2.640686z" fill-rule="evenodd"/>
            <path stroke="#3f3f3f" stroke-width="1.3333333333333333" stroke-miterlimit="800.0" stroke-linecap="butt" d="m762.32166 394.7136c0 -0.6236267 1.7645264 -2.1298523 2.3919067 -2.1298523l11.981506 0c0.6274414 0 2.486145 1.256073 2.486145 1.8796692l0 2.515625c0 0.6235962 -1.9848022 2.3800354 -2.6121826 2.3800354l-11.477356 0c-0.6273804 0 -2.644165 -1.3811951 -2.644165 -2.0047913l-0.12585449 -2.640686z" fill-rule="evenodd"/>
            <path fill="#000000" fill-opacity="0.0" d="m327.2265 381.86374c0.91851807 1.3504028 1.4393005 2.814911 -0.10482788 4.733307" fill-rule="evenodd"/>
            <path stroke="#3f3f3f" stroke-width="1.0" stroke-miterlimit="800.0" stroke-linecap="butt" d="m327.2265 381.86374c0.91851807 1.3504028 1.4393005 2.814911 -0.10482788 4.733307" fill-rule="evenodd"/>
            <path fill="#000000" fill-opacity="0.0" d="m328.9412 381.86374c0.9185486 1.3504028 1.439331 2.814911 -0.10479736 4.733307" fill-rule="evenodd"/>
            <path stroke="#3f3f3f" stroke-width="1.0" stroke-miterlimit="800.0" stroke-linecap="butt" d="m328.9412 381.86374c0.9185486 1.3504028 1.439331 2.814911 -0.10479736 4.733307" fill-rule="evenodd"/>
            <path fill="#000000" fill-opacity="0.0" d="m330.97742 381.86374c0.9185486 1.3504028 1.439331 2.814911 -0.10479736 4.733307" fill-rule="evenodd"/>
            <path stroke="#3f3f3f" stroke-width="1.0" stroke-miterlimit="800.0" stroke-linecap="butt" d="m330.97742 381.86374c0.9185486 1.3504028 1.439331 2.814911 -0.10479736 4.733307" fill-rule="evenodd"/>
            <path fill="#4472c4" d="m550.30054 406.80167l3.3590088 0l0 2.4219666l-3.3590088 0z" fill-rule="evenodd"/>
            <path stroke="#3f3f3f" stroke-width="1.0" stroke-miterlimit="800.0" stroke-linecap="butt" d="m550.30054 406.80167l3.3590088 0l0 2.4219666l-3.3590088 0z" fill-rule="evenodd"/>
            <path fill="#4472c4" d="m547.9217 404.42374l3.3590088 0l0 2.4219666l-3.3590088 0z" fill-rule="evenodd"/>
            <path stroke="#3f3f3f" stroke-width="1.0" stroke-miterlimit="800.0" stroke-linecap="butt" d="m547.9217 404.42374l3.3590088 0l0 2.4219666l-3.3590088 0z" fill-rule="evenodd"/>
            <path fill="#757070" d="m613.44165 406.79706l0 0c0 -1.8409424 1.4924316 -3.3333435 3.333374 -3.3333435l0 0c0.8840332 0 1.7318726 0.3511963 2.3569946 0.97631836c0.6251221 0.6251221 0.97631836 1.4729614 0.97631836 2.3570251l0 0c0 1.8409424 -1.4923706 3.3333435 -3.333313 3.3333435l0 0c-1.8409424 0 -3.333374 -1.4924011 -3.333374 -3.3333435z" fill-rule="evenodd"/>
            <path stroke="#000000" stroke-width="1.0" stroke-miterlimit="800.0" stroke-linecap="butt" d="m613.44165 406.79706l0 0c0 -1.8409424 1.4924316 -3.3333435 3.333374 -3.3333435l0 0c0.8840332 0 1.7318726 0.3511963 2.3569946 0.97631836c0.6251221 0.6251221 0.97631836 1.4729614 0.97631836 2.3570251l0 0c0 1.8409424 -1.4923706 3.3333435 -3.333313 3.3333435l0 0c-1.8409424 0 -3.333374 -1.4924011 -3.333374 -3.3333435z" fill-rule="evenodd"/>
            <path fill="#3f3f3f"
                  d="m614.81964 404.65866c0.67266846 -0.14627075 1.5557861 -0.25509644 1.954773 0.25604248c0.6851196 -0.45620728 1.2350464 -0.41012573 1.8786621 -0.32595825c-0.36175537 0.3399353 -0.78338623 0.5643921 -1.1451416 0.9043274c0.63897705 0.7342224 1.7390137 1.6972961 1.3323975 3.1317139c-0.28381348 -0.9743347 -1.1835327 -2.0608826 -2.048584 -2.5690002c-0.84381104 0.8560486 -1.1035767 0.7444153 -2.0690918 2.681427c0.036987305 -1.7016907 0.6080322 -2.287445 1.4898682 -3.2606506c-0.17492676 -0.3513794 -0.9089966 -0.5067749 -1.3928833 -0.8179016z"
                  fill-rule="evenodd"/>
            <path stroke="#3f3f3f" stroke-width="1.0" stroke-miterlimit="800.0" stroke-linecap="butt"
                  d="m614.81964 404.65866c0.67266846 -0.14627075 1.5557861 -0.25509644 1.954773 0.25604248c0.6851196 -0.45620728 1.2350464 -0.41012573 1.8786621 -0.32595825c-0.36175537 0.3399353 -0.78338623 0.5643921 -1.1451416 0.9043274c0.63897705 0.7342224 1.7390137 1.6972961 1.3323975 3.1317139c-0.28381348 -0.9743347 -1.1835327 -2.0608826 -2.048584 -2.5690002c-0.84381104 0.8560486 -1.1035767 0.7444153 -2.0690918 2.681427c0.036987305 -1.7016907 0.6080322 -2.287445 1.4898682 -3.2606506c-0.17492676 -0.3513794 -0.9089966 -0.5067749 -1.3928833 -0.8179016z"
                  fill-rule="evenodd"/>
            <path fill="#000000" fill-opacity="0.0" d="m525.52167 404.58374l6.425232 0" fill-rule="evenodd"/>
            <path stroke="#3f3f3f" stroke-width="1.0" stroke-miterlimit="800.0" stroke-linecap="butt" d="m525.52167 404.58374l6.425232 0" fill-rule="evenodd"/>
            <path fill="#000000" fill-opacity="0.0" d="m525.52167 406.5908l6.425232 0" fill-rule="evenodd"/>
            <path stroke="#3f3f3f" stroke-width="1.0" stroke-miterlimit="800.0" stroke-linecap="butt" d="m525.52167 406.5908l6.425232 0" fill-rule="evenodd"/>
            <path fill="#000000" fill-opacity="0.0" d="m525.52167 408.7412l6.368347 0" fill-rule="evenodd"/>
            <path stroke="#3f3f3f" stroke-width="1.0" stroke-miterlimit="800.0" stroke-linecap="butt" d="m525.52167 408.7412l6.368347 0" fill-rule="evenodd"/>
            <path fill="#757070" d="m415.245 406.68802l0 0c0 -1.8543396 1.4998169 -3.357544 3.349945 -3.357544l0 0c0.88845825 0 1.7405396 0.35372925 2.3687744 0.98339844c0.62823486 0.6296692 0.98117065 1.4836731 0.98117065 2.3741455l0 0c0 1.8543396 -1.4998169 3.357544 -3.349945 3.357544l0 0c-1.8501282 0 -3.349945 -1.5032043 -3.349945 -3.357544z" fill-rule="evenodd"/>
            <path stroke="#3f3f3f" stroke-width="1.0" stroke-miterlimit="800.0" stroke-linecap="butt" d="m415.245 406.68802l0 0c0 -1.8543396 1.4998169 -3.357544 3.349945 -3.357544l0 0c0.88845825 0 1.7405396 0.35372925 2.3687744 0.98339844c0.62823486 0.6296692 0.98117065 1.4836731 0.98117065 2.3741455l0 0c0 1.8543396 -1.4998169 3.357544 -3.349945 3.357544l0 0c-1.8501282 0 -3.349945 -1.5032043 -3.349945 -3.357544z" fill-rule="evenodd"/>
            <path fill="#000000" fill-opacity="0.0" d="m406.80167 397.22372l19.93335 0l0 18.173431l-19.93335 0z" fill-rule="evenodd"/>
            <path fill="#404040"
                  d="m419.3173 406.70248q0.03125 0.09375 0.046875 0.15625q0.015625 0.0625 -0.03125 0.09375q-0.03125 0.03125 -0.109375 0.03125q-0.078125 0.015625 -0.21875 0.015625q-0.15625 0 -0.234375 0q-0.078125 0 -0.125 -0.015625q-0.046875 -0.015625 -0.0625 -0.03125q-0.015625 -0.03125 -0.03125 -0.078125l-0.25 -0.75l-1.4375 0l-0.234375 0.734375q-0.015625 0.046875 -0.03125 0.078125q-0.015625 0.015625 -0.0625 0.03125q-0.046875 0.015625 -0.125 0.015625q-0.0625 0.015625 -0.203125 0.015625q-0.125 0 -0.203125 -0.015625q-0.078125 0 -0.109375 -0.03125q-0.03125 -0.03125 -0.03125 -0.09375q0.015625 -0.0625 0.0625 -0.171875l1.171875 -3.359375q0.015625 -0.046875 0.03125 -0.078125q0.03125 -0.03125 0.078125 -0.046875q0.046875 -0.015625 0.140625 -0.015625q0.09375 -0.015625 0.234375 -0.015625q0.171875 0 0.28125 0.015625q0.109375 0 0.15625 0.015625q0.0625 0.015625 0.078125 0.046875q0.03125 0.03125 0.046875 0.09375l1.171875 3.359375zm-1.734375 -2.78125l0 0l-0.546875 1.609375l1.078125 0l-0.53125 -1.609375z"
                  fill-rule="nonzero"/>
            <path fill="#757070" d="m393.18704 406.82874l0 0c0 -1.8391113 1.487915 -3.3299866 3.3233337 -3.3299866l0 0c0.8814087 0 1.7267456 0.35083008 2.3499756 0.9753113c0.6232605 0.6245117 0.9733887 1.4714966 0.9733887 2.3546753l0 0c0 1.8390808 -1.487915 3.3299866 -3.3233643 3.3299866l0 0c-1.8354187 0 -3.3233337 -1.4909058 -3.3233337 -3.3299866z" fill-rule="evenodd"/>
            <path stroke="#3f3f3f" stroke-width="1.0" stroke-miterlimit="800.0" stroke-linecap="butt" d="m393.18704 406.82874l0 0c0 -1.8391113 1.487915 -3.3299866 3.3233337 -3.3299866l0 0c0.8814087 0 1.7267456 0.35083008 2.3499756 0.9753113c0.6232605 0.6245117 0.9733887 1.4714966 0.9733887 2.3546753l0 0c0 1.8390808 -1.487915 3.3299866 -3.3233643 3.3299866l0 0c-1.8354187 0 -3.3233337 -1.4909058 -3.3233337 -3.3299866z" fill-rule="evenodd"/>
            <path fill="#000000" fill-opacity="0.0" d="m384.88168 397.70374l19.93332 0l0 18.168396l-19.93332 0z" fill-rule="evenodd"/>
            <path fill="#404040"
                  d="m397.03793 406.3231q0 0.203125 -0.0625 0.375q-0.046875 0.15625 -0.15625 0.28125q-0.09375 0.125 -0.234375 0.21875q-0.125 0.09375 -0.296875 0.15625q-0.15625 0.046875 -0.34375 0.078125q-0.1875 0.03125 -0.40625 0.03125l-1.015625 0q-0.09375 0 -0.171875 -0.046875q-0.0625 -0.0625 -0.0625 -0.203125l0 -3.296875q0 -0.125 0.0625 -0.1875q0.078125 -0.0625 0.171875 -0.0625l0.953125 0q0.34375 0 0.578125 0.0625q0.25 0.0625 0.40625 0.1875q0.171875 0.109375 0.265625 0.296875q0.09375 0.171875 0.09375 0.421875q0 0.140625 -0.046875 0.265625q-0.03125 0.109375 -0.09375 0.21875q-0.0625 0.09375 -0.171875 0.171875q-0.09375 0.078125 -0.21875 0.125q0.15625 0.03125 0.296875 0.109375q0.140625 0.0625 0.234375 0.1875q0.109375 0.109375 0.15625 0.265625q0.0625 0.15625 0.0625 0.34375zm-1.0 -1.59375q0 -0.109375 -0.03125 -0.203125q-0.03125 -0.09375 -0.109375 -0.15625q-0.0625 -0.0625 -0.171875 -0.09375q-0.109375 -0.03125 -0.28125 -0.03125l-0.390625 0l0 0.984375l0.421875 0q0.171875 0 0.265625 -0.03125q0.109375 -0.046875 0.171875 -0.109375q0.0625 -0.078125 0.09375 -0.15625q0.03125 -0.09375 0.03125 -0.203125zm0.203125 1.625q0 -0.140625 -0.046875 -0.234375q-0.046875 -0.109375 -0.140625 -0.171875q-0.078125 -0.078125 -0.203125 -0.109375q-0.125 -0.046875 -0.34375 -0.046875l-0.453125 0l0 1.078125l0.546875 0q0.171875 0 0.28125 -0.03125q0.109375 -0.03125 0.1875 -0.09375q0.078125 -0.0625 0.125 -0.15625q0.046875 -0.109375 0.046875 -0.234375z"
                  fill-rule="nonzero"/>
            <path fill="#757070" d="m370.9819 406.80923l0 0c0 -1.8477173 1.4998169 -3.345581 3.349945 -3.345581l0 0c0.88845825 0 1.740509 0.35247803 2.368744 0.9798889c0.62823486 0.6274414 0.98117065 1.4783936 0.98117065 2.3656921l0 0c0 1.8476868 -1.4998169 3.3455505 -3.3499146 3.3455505l0 0c-1.8501282 0 -3.349945 -1.4978638 -3.349945 -3.3455505z" fill-rule="evenodd"/>
            <path stroke="#3f3f3f" stroke-width="1.0" stroke-miterlimit="800.0" stroke-linecap="butt" d="m370.9819 406.80923l0 0c0 -1.8477173 1.4998169 -3.345581 3.349945 -3.345581l0 0c0.88845825 0 1.740509 0.35247803 2.368744 0.9798889c0.62823486 0.6274414 0.98117065 1.4783936 0.98117065 2.3656921l0 0c0 1.8476868 -1.4998169 3.3455505 -3.3499146 3.3455505l0 0c-1.8501282 0 -3.349945 -1.4978638 -3.349945 -3.3455505z" fill-rule="evenodd"/>
            <path fill="#000000" fill-opacity="0.0" d="m362.6417 397.70374l19.93332 0l0 18.108551l-19.93332 0z" fill-rule="evenodd"/>
            <path fill="#404040"
                  d="m374.75107 407.16684q0.0625 0.109375 0.078125 0.171875q0.015625 0.0625 -0.03125 0.09375q-0.03125 0.03125 -0.125 0.03125q-0.09375 0.015625 -0.25 0.015625q-0.140625 0 -0.21875 -0.015625q-0.078125 0 -0.125 0q-0.046875 -0.015625 -0.0625 -0.03125q-0.015625 -0.03125 -0.03125 -0.078125l-0.71875 -1.359375l-0.703125 1.359375q-0.015625 0.046875 -0.046875 0.078125q-0.015625 0.015625 -0.0625 0.03125q-0.046875 0 -0.125 0q-0.078125 0.015625 -0.21875 0.015625q-0.140625 0 -0.234375 -0.015625q-0.078125 0 -0.109375 -0.03125q-0.03125 -0.03125 -0.015625 -0.09375q0.015625 -0.0625 0.078125 -0.171875l0.90625 -1.65625l-0.84375 -1.546875q-0.046875 -0.109375 -0.078125 -0.171875q-0.015625 -0.0625 0.015625 -0.09375q0.046875 -0.03125 0.125 -0.03125q0.09375 -0.015625 0.265625 -0.015625q0.140625 0 0.21875 0.015625q0.078125 0 0.125 0.015625q0.046875 0.015625 0.0625 0.046875q0.03125 0.015625 0.046875 0.046875l0.65625 1.25l0.65625 -1.25q0.015625 -0.03125 0.03125 -0.046875q0.015625 -0.03125 0.0625 -0.046875q0.046875 -0.015625 0.109375 -0.015625q0.078125 -0.015625 0.21875 -0.015625q0.140625 0 0.21875 0.015625q0.09375 0 0.125 0.03125q0.03125 0.03125 0.015625 0.09375q-0.015625 0.0625 -0.0625 0.171875l-0.84375 1.546875l0.890625 1.65625z"
                  fill-rule="nonzero"/>
            <path fill="#757070" d="m349.06165 406.79358l0 0c0 -1.8511963 1.4998169 -3.3518677 3.349945 -3.3518677l0 0c0.88845825 0 1.740509 0.3531189 2.368744 0.98172c0.62823486 0.6286011 0.9812012 1.4811707 0.9812012 2.3701477l0 0c0 1.8511658 -1.4998474 3.3518677 -3.349945 3.3518677l0 0c-1.8501282 0 -3.349945 -1.5007019 -3.349945 -3.3518677z" fill-rule="evenodd"/>
            <path stroke="#3f3f3f" stroke-width="1.0" stroke-miterlimit="800.0" stroke-linecap="butt" d="m349.06165 406.79358l0 0c0 -1.8511963 1.4998169 -3.3518677 3.349945 -3.3518677l0 0c0.88845825 0 1.740509 0.3531189 2.368744 0.98172c0.62823486 0.6286011 0.9812012 1.4811707 0.9812012 2.3701477l0 0c0 1.8511658 -1.4998474 3.3518677 -3.349945 3.3518677l0 0c-1.8501282 0 -3.349945 -1.5007019 -3.349945 -3.3518677z" fill-rule="evenodd"/>
            <path fill="#000000" fill-opacity="0.0" d="m340.88168 397.86374l19.93332 0l0 18.14267l-19.93332 0z" fill-rule="evenodd"/>
            <path fill="#404040"
                  d="m351.8348 406.18622l0 1.328125q0 0.03125 -0.03125 0.0625q-0.015625 0.015625 -0.0625 0.03125q-0.046875 0.015625 -0.125 0.015625q-0.0625 0.015625 -0.171875 0.015625q-0.125 0 -0.203125 -0.015625q-0.0625 0 -0.109375 -0.015625q-0.046875 -0.015625 -0.0625 -0.03125q-0.015625 -0.03125 -0.015625 -0.0625l0 -1.328125l-1.03125 -2.0625q-0.0625 -0.109375 -0.078125 -0.171875q-0.015625 -0.0625 0.015625 -0.09375q0.03125 -0.03125 0.125 -0.03125q0.09375 -0.015625 0.25 -0.015625q0.140625 0 0.21875 0.015625q0.078125 0 0.125 0.015625q0.046875 0.015625 0.0625 0.046875q0.03125 0.015625 0.046875 0.0625l0.421875 0.9375q0.0625 0.125 0.125 0.28125q0.0625 0.140625 0.125 0.3125l0 0q0.0625 -0.15625 0.109375 -0.296875q0.0625 -0.15625 0.125 -0.296875l0.421875 -0.921875q0 -0.046875 0.015625 -0.078125q0.03125 -0.03125 0.078125 -0.046875q0.046875 -0.015625 0.125 -0.015625q0.078125 -0.015625 0.203125 -0.015625q0.15625 0 0.25 0.015625q0.09375 0 0.125 0.03125q0.046875 0.03125 0.015625 0.09375q-0.015625 0.0625 -0.0625 0.171875l-1.03125 2.0625z"
                  fill-rule="nonzero"/>
            <path fill="#757070" d="m466.94876 404.0895l-4.827667 0c-4.617981 1.7688599 -3.994995 2.0230103 -4.1368103 5.3049927c5.614685 -0.11755371 7.688507 0.043914795 8.961731 -0.24310303c9.460449E-4 -1.6873169 0.0018005371 -3.3745422 0.002746582 -5.0618896z" fill-rule="evenodd"/>
            <path stroke="#3f3f3f" stroke-width="1.0" stroke-miterlimit="800.0" stroke-linecap="butt" d="m466.94876 404.0895l-4.827667 0c-4.617981 1.7688599 -3.994995 2.0230103 -4.1368103 5.3049927c5.614685 -0.11755371 7.688507 0.043914795 8.961731 -0.24310303c9.460449E-4 -1.6873169 0.0018005371 -3.3745422 0.002746582 -5.0618896z" fill-rule="evenodd"/>
            <path fill="#000000" fill-opacity="0.0" d="m450.6417 398.18372l27.0 0l0 18.132935l-27.0 0z" fill-rule="evenodd"/>
            <path fill="#404040"
                  d="m462.50107 407.21q0 0.03125 -0.015625 0.0625q0 0.015625 -0.046875 0.03125q-0.03125 0 -0.109375 0q-0.078125 0.015625 -0.203125 0.015625q-0.109375 0 -0.171875 -0.015625q-0.0625 0 -0.109375 0q-0.03125 -0.015625 -0.046875 -0.03125q-0.015625 -0.03125 -0.03125 -0.0625l-0.296875 -0.75q-0.0625 -0.140625 -0.109375 -0.234375q-0.046875 -0.09375 -0.109375 -0.15625q-0.0625 -0.078125 -0.15625 -0.109375q-0.078125 -0.03125 -0.1875 -0.03125l-0.21875 0l0 1.28125q0 0.03125 -0.015625 0.046875q-0.015625 0.015625 -0.0625 0.03125q-0.03125 0.015625 -0.09375 0.015625q-0.0625 0.015625 -0.171875 0.015625q-0.09375 0 -0.171875 -0.015625q-0.0625 0 -0.109375 -0.015625q-0.03125 -0.015625 -0.046875 -0.03125q-0.015625 -0.015625 -0.015625 -0.046875l0 -3.0625q0 -0.109375 0.0625 -0.15625q0.0625 -0.046875 0.140625 -0.046875l0.875 0q0.140625 0 0.21875 0q0.09375 0 0.15625 0.015625q0.203125 0.03125 0.359375 0.109375q0.171875 0.0625 0.28125 0.171875q0.125 0.109375 0.171875 0.265625q0.0625 0.15625 0.0625 0.359375q0 0.15625 -0.046875 0.296875q-0.03125 0.140625 -0.125 0.25q-0.078125 0.109375 -0.203125 0.203125q-0.125 0.078125 -0.28125 0.125q0.078125 0.03125 0.140625 0.09375q0.078125 0.046875 0.125 0.125q0.0625 0.0625 0.109375 0.15625q0.0625 0.09375 0.109375 0.21875l0.28125 0.671875q0.046875 0.09375 0.046875 0.140625q0.015625 0.046875 0.015625 0.0625zm-0.875 -2.28125q0 -0.171875 -0.078125 -0.28125q-0.078125 -0.109375 -0.25 -0.15625q-0.046875 -0.015625 -0.125 -0.015625q-0.0625 -0.015625 -0.171875 -0.015625l-0.3125 0l0 0.953125l0.359375 0q0.140625 0 0.25 -0.03125q0.109375 -0.03125 0.171875 -0.09375q0.078125 -0.078125 0.109375 -0.15625q0.046875 -0.09375 0.046875 -0.203125zm3.8121643 1.359375q0 0.1875 -0.046875 0.34375q-0.046875 0.140625 -0.140625 0.25q-0.078125 0.109375 -0.203125 0.1875q-0.109375 0.078125 -0.265625 0.140625q-0.140625 0.046875 -0.3125 0.078125q-0.15625 0.015625 -0.359375 0.015625l-0.90625 0q-0.078125 0 -0.140625 -0.046875q-0.0625 -0.046875 -0.0625 -0.171875l0 -2.9375q0 -0.109375 0.0625 -0.15625q0.0625 -0.046875 0.140625 -0.046875l0.859375 0q0.296875 0 0.515625 0.046875q0.21875 0.046875 0.359375 0.15625q0.15625 0.109375 0.234375 0.265625q0.078125 0.15625 0.078125 0.375q0 0.125 -0.03125 0.234375q-0.03125 0.109375 -0.09375 0.203125q-0.0625 0.078125 -0.15625 0.15625q-0.078125 0.0625 -0.1875 0.109375q0.140625 0.015625 0.25 0.09375q0.125 0.0625 0.21875 0.171875q0.09375 0.09375 0.140625 0.234375q0.046875 0.125 0.046875 0.296875zm-0.875 -1.40625q0 -0.109375 -0.03125 -0.1875q-0.03125 -0.078125 -0.09375 -0.125q-0.0625 -0.0625 -0.15625 -0.09375q-0.09375 -0.03125 -0.25 -0.03125l-0.359375 0l0 0.875l0.390625 0q0.140625 0 0.234375 -0.03125q0.09375 -0.03125 0.140625 -0.09375q0.0625 -0.0625 0.09375 -0.140625q0.03125 -0.09375 0.03125 -0.171875zm0.171875 1.4375q0 -0.125 -0.046875 -0.203125q-0.03125 -0.09375 -0.109375 -0.15625q-0.078125 -0.0625 -0.203125 -0.09375q-0.109375 -0.046875 -0.296875 -0.046875l-0.40625 0l0 0.96875l0.5 0q0.140625 0 0.234375 -0.03125q0.109375 -0.03125 0.171875 -0.09375q0.078125 -0.0625 0.109375 -0.140625q0.046875 -0.09375 0.046875 -0.203125z"
                  fill-rule="nonzero"/>
            <path fill="#757070" d="m634.13544 404.25604l4.834778 0c4.624878 1.768158 4.0009155 2.0222168 4.1429443 5.302887c-5.622986 -0.117492676 -7.699829 0.043914795 -8.974976 -0.24298096c-9.765625E-4 -1.686676 -0.0018310547 -3.37323 -0.002746582 -5.059906z" fill-rule="evenodd"/>
            <path stroke="#3f3f3f" stroke-width="1.0" stroke-miterlimit="800.0" stroke-linecap="butt" d="m634.13544 404.25604l4.834778 0c4.624878 1.768158 4.0009155 2.0222168 4.1429443 5.302887c-5.622986 -0.117492676 -7.699829 0.043914795 -8.974976 -0.24298096c-9.765625E-4 -1.686676 -0.0018310547 -3.37323 -0.002746582 -5.059906z" fill-rule="evenodd"/>
            <path fill="#000000" fill-opacity="0.0" d="m624.7217 398.18372l27.0 0l0 18.125793l-27.0 0z" fill-rule="evenodd"/>
            <path fill="#404040"
                  d="m635.9404 407.0225q0 0.078125 -0.015625 0.140625q0 0.046875 -0.015625 0.078125q-0.015625 0.03125 -0.03125 0.046875q-0.015625 0.015625 -0.046875 0.015625l-1.546875 0q-0.078125 0 -0.140625 -0.046875q-0.0625 -0.046875 -0.0625 -0.171875l0 -3.046875q0 -0.03125 0.015625 -0.046875q0.03125 -0.03125 0.0625 -0.03125q0.046875 -0.015625 0.109375 -0.015625q0.0625 -0.015625 0.15625 -0.015625q0.109375 0 0.171875 0.015625q0.0625 0 0.09375 0.015625q0.046875 0 0.0625 0.03125q0.015625 0.015625 0.015625 0.046875l0 2.703125l1.0625 0q0.03125 0 0.046875 0.015625q0.015625 0.015625 0.03125 0.046875q0.015625 0.03125 0.015625 0.09375q0.015625 0.046875 0.015625 0.125zm2.8311157 -0.734375q0 0.1875 -0.046875 0.34375q-0.046875 0.140625 -0.140625 0.25q-0.078125 0.109375 -0.203125 0.1875q-0.109375 0.078125 -0.265625 0.140625q-0.140625 0.046875 -0.3125 0.078125q-0.15625 0.015625 -0.359375 0.015625l-0.90625 0q-0.078125 0 -0.140625 -0.046875q-0.0625 -0.046875 -0.0625 -0.171875l0 -2.9375q0 -0.109375 0.0625 -0.15625q0.0625 -0.046875 0.140625 -0.046875l0.859375 0q0.296875 0 0.515625 0.046875q0.21875 0.046875 0.359375 0.15625q0.15625 0.109375 0.234375 0.265625q0.078125 0.15625 0.078125 0.375q0 0.125 -0.03125 0.234375q-0.03125 0.109375 -0.09375 0.203125q-0.0625 0.078125 -0.15625 0.15625q-0.078125 0.0625 -0.1875 0.109375q0.140625 0.015625 0.25 0.09375q0.125 0.0625 0.21875 0.171875q0.09375 0.09375 0.140625 0.234375q0.046875 0.125 0.046875 0.296875zm-0.875 -1.40625q0 -0.109375 -0.03125 -0.1875q-0.03125 -0.078125 -0.09375 -0.125q-0.0625 -0.0625 -0.15625 -0.09375q-0.09375 -0.03125 -0.25 -0.03125l-0.359375 0l0 0.875l0.390625 0q0.140625 0 0.234375 -0.03125q0.09375 -0.03125 0.140625 -0.09375q0.0625 -0.0625 0.09375 -0.140625q0.03125 -0.09375 0.03125 -0.171875zm0.171875 1.4375q0 -0.125 -0.046875 -0.203125q-0.03125 -0.09375 -0.109375 -0.15625q-0.078125 -0.0625 -0.203125 -0.09375q-0.109375 -0.046875 -0.296875 -0.046875l-0.40625 0l0 0.96875l0.5 0q0.140625 0 0.234375 -0.03125q0.109375 -0.03125 0.171875 -0.09375q0.078125 -0.0625 0.109375 -0.140625q0.046875 -0.09375 0.046875 -0.203125z"
                  fill-rule="nonzero"/>
            <path fill="#3f3f3f" d="m702.31195 405.76617l1.4691162 0l0 -1.4696045c0.5673828 -0.27105713 1.0985718 -0.25289917 1.6478271 0l0 1.4696045l1.4691772 0c0.27111816 0.5132446 0.19873047 1.1169434 0 1.6482544l-1.4691772 0l0 1.4696045c-0.47698975 0.19894409 -1.1707764 0.14459229 -1.6478271 0l0 -1.4696045l-1.4691162 0c-0.23480225 -0.71203613 -0.16271973 -1.0084839 0 -1.6482544z" fill-rule="evenodd"/>
            <path stroke="#3f3f3f" stroke-width="1.0" stroke-miterlimit="800.0" stroke-linecap="butt" d="m702.31195 405.76617l1.4691162 0l0 -1.4696045c0.5673828 -0.27105713 1.0985718 -0.25289917 1.6478271 0l0 1.4696045l1.4691772 0c0.27111816 0.5132446 0.19873047 1.1169434 0 1.6482544l-1.4691772 0l0 1.4696045c-0.47698975 0.19894409 -1.1707764 0.14459229 -1.6478271 0l0 -1.4696045l-1.4691162 0c-0.23480225 -0.71203613 -0.16271973 -1.0084839 0 -1.6482544z" fill-rule="evenodd"/>
            <path fill="#3f3f3f" d="m704.3948 402.96167l0.18890381 -0.3779297l0.18896484 0.3779297c-0.06384277 4.272461E-4 -0.09863281 -0.091308594 -0.19573975 -0.08255005c-0.092041016 -0.0068359375 -0.11218262 0.060577393 -0.1821289 0.08255005z" fill-rule="evenodd"/>
            <path stroke="#3f3f3f" stroke-width="1.3333333333333333" stroke-miterlimit="800.0" stroke-linecap="butt" d="m704.3948 402.96167l0.18890381 -0.3779297l0.18896484 0.3779297c-0.06384277 4.272461E-4 -0.09863281 -0.091308594 -0.19573975 -0.08255005c-0.092041016 -0.0068359375 -0.11218262 0.060577393 -0.1821289 0.08255005z" fill-rule="evenodd"/>
            <path fill="#3f3f3f" d="m747.8094 408.75485l0 -1.4551086l-1.4627686 0c-0.2697754 -0.56192017 -0.25170898 -1.0880432 0 -1.6320801l1.4627686 0l0 -1.4551086c0.51086426 -0.26852417 1.1116943 -0.1968689 1.640564 0l0 1.4551086l1.4627686 0c0.19799805 0.47247314 0.1439209 1.1596375 0 1.6320801l-1.4627686 0l0 1.4551086c-0.70874023 0.23251343 -1.0037842 0.16113281 -1.640564 0z" fill-rule="evenodd"/>
            <path stroke="#3f3f3f" stroke-width="1.0" stroke-miterlimit="800.0" stroke-linecap="butt" d="m747.8094 408.75485l0 -1.4551086l-1.4627686 0c-0.2697754 -0.56192017 -0.25170898 -1.0880432 0 -1.6320801l1.4627686 0l0 -1.4551086c0.51086426 -0.26852417 1.1116943 -0.1968689 1.640564 0l0 1.4551086l1.4627686 0c0.19799805 0.47247314 0.1439209 1.1596375 0 1.6320801l-1.4627686 0l0 1.4551086c-0.70874023 0.23251343 -1.0037842 0.16113281 -1.640564 0z" fill-rule="evenodd"/>
            <path fill="#3f3f3f" d="m745.01794 406.6919l-0.3762207 -0.18710327l0.3762207 -0.18710327c3.6621094E-4 0.063201904 -0.09088135 0.09762573 -0.082214355 0.19381714c-0.0067749023 0.091156006 0.060302734 0.1111145 0.082214355 0.1803894z" fill-rule="evenodd"/>
            <path stroke="#3f3f3f" stroke-width="1.3333333333333333" stroke-miterlimit="800.0" stroke-linecap="butt" d="m745.01794 406.6919l-0.3762207 -0.18710327l0.3762207 -0.18710327c3.6621094E-4 0.063201904 -0.09088135 0.09762573 -0.082214355 0.19381714c-0.0067749023 0.091156006 0.060302734 0.1111145 0.082214355 0.1803894z" fill-rule="evenodd"/>
            <path fill="#3f3f3f" d="m683.5377 408.91183l0 -1.4691467l1.4696045 0c0.27105713 -0.5673218 0.25286865 -1.0985413 0 -1.6477966l-1.4696045 0l0 -1.4691467c-0.5132446 -0.27111816 -1.1169434 -0.19876099 -1.6482544 0l0 1.4691467l-1.4696045 0c-0.19891357 0.47702026 -0.14459229 1.1708069 0 1.6477966l1.4696045 0l0 1.4691467c0.71203613 0.23477173 1.0084839 0.16268921 1.6482544 0z" fill-rule="evenodd"/>
            <path stroke="#3f3f3f" stroke-width="1.0" stroke-miterlimit="800.0" stroke-linecap="butt" d="m683.5377 408.91183l0 -1.4691467l1.4696045 0c0.27105713 -0.5673218 0.25286865 -1.0985413 0 -1.6477966l-1.4696045 0l0 -1.4691467c-0.5132446 -0.27111816 -1.1169434 -0.19876099 -1.6482544 0l0 1.4691467l-1.4696045 0c-0.19891357 0.47702026 -0.14459229 1.1708069 0 1.6477966l1.4696045 0l0 1.4691467c0.71203613 0.23477173 1.0084839 0.16268921 1.6482544 0z" fill-rule="evenodd"/>
            <path fill="#3f3f3f" d="m686.3422 406.829l0.3779297 -0.18893433l-0.3779297 -0.18890381c-4.272461E-4 0.06384277 0.091308594 0.09857178 0.08258057 0.19570923c0.0067749023 0.0920105 -0.06060791 0.11218262 -0.08258057 0.1821289z" fill-rule="evenodd"/>
            <path stroke="#3f3f3f" stroke-width="1.3333333333333333" stroke-miterlimit="800.0" stroke-linecap="butt" d="m686.3422 406.829l0.3779297 -0.18893433l-0.3779297 -0.18890381c-4.272461E-4 0.06384277 0.091308594 0.09857178 0.08258057 0.19570923c0.0067749023 0.0920105 -0.06060791 0.11218262 -0.08258057 0.1821289z" fill-rule="evenodd"/>
            <path fill="#3f3f3f" d="m724.55194 407.35123l1.4691772 0l0 1.469574c0.5673218 0.27105713 1.0985107 0.25289917 1.6477661 0l0 -1.469574l1.4691772 0c0.27111816 -0.51327515 0.19873047 -1.1169739 0 -1.6482849l-1.4691772 0l0 -1.4696045c-0.47698975 -0.19894409 -1.1707764 -0.14459229 -1.6477661 0l0 1.4696045l-1.4691772 0c-0.23480225 0.71203613 -0.16265869 1.0084839 0 1.6482849z" fill-rule="evenodd"/>
            <path stroke="#3f3f3f" stroke-width="1.0" stroke-miterlimit="800.0" stroke-linecap="butt" d="m724.55194 407.35123l1.4691772 0l0 1.469574c0.5673218 0.27105713 1.0985107 0.25289917 1.6477661 0l0 -1.469574l1.4691772 0c0.27111816 -0.51327515 0.19873047 -1.1169739 0 -1.6482849l-1.4691772 0l0 -1.4696045c-0.47698975 -0.19894409 -1.1707764 -0.14459229 -1.6477661 0l0 1.4696045l-1.4691772 0c-0.23480225 0.71203613 -0.16265869 1.0084839 0 1.6482849z" fill-rule="evenodd"/>
            <path fill="#3f3f3f" d="m726.63477 410.1557l0.18896484 0.3779602l0.18890381 -0.3779602c-0.06384277 -4.272461E-4 -0.09863281 0.091308594 -0.19573975 0.08258057c-0.092041016 0.00680542 -0.11218262 -0.06060791 -0.1821289 -0.08258057z" fill-rule="evenodd"/>
            <path stroke="#3f3f3f" stroke-width="1.3333333333333333" stroke-miterlimit="800.0" stroke-linecap="butt" d="m726.63477 410.1557l0.18896484 0.3779602l0.18890381 -0.3779602c-0.06384277 -4.272461E-4 -0.09863281 0.091308594 -0.19573975 0.08258057c-0.092041016 0.00680542 -0.11218262 -0.06060791 -0.1821289 -0.08258057z" fill-rule="evenodd"/>
            <path fill="#757070" d="m487.94437 403.79727l0 6.720001c-1.7649536 -0.011932373 -4.215332 -0.6203003 -5.217163 -1.8728638c-1.1582031 -1.2180786 -1.5351562 -2.9848938 -1.5007324 -4.8471375l6.7178955 0z" fill-rule="evenodd"/>
            <path stroke="#3f3f3f" stroke-width="1.0" stroke-miterlimit="800.0" stroke-linecap="butt" d="m487.94437 403.79727l0 6.720001c-1.7649536 -0.011932373 -4.215332 -0.6203003 -5.217163 -1.8728638c-1.1582031 -1.2180786 -1.5351562 -2.9848938 -1.5007324 -4.8471375l6.7178955 0z" fill-rule="evenodd"/>
            <path fill="#000000" fill-opacity="0.0" d="m472.08167 397.38373l27.0 0l0 18.133331l-27.0 0z" fill-rule="evenodd"/>
            <path fill="#404040"
                  d="m483.94104 406.40997q0 0.03125 -0.015625 0.0625q0 0.015625 -0.046875 0.03125q-0.03125 0 -0.109375 0q-0.078125 0.015625 -0.203125 0.015625q-0.109375 0 -0.171875 -0.015625q-0.0625 0 -0.109375 0q-0.03125 -0.015625 -0.046875 -0.03125q-0.015625 -0.03125 -0.03125 -0.0625l-0.296875 -0.75q-0.0625 -0.140625 -0.109375 -0.234375q-0.046875 -0.09375 -0.109375 -0.15625q-0.0625 -0.078125 -0.15625 -0.109375q-0.078125 -0.03125 -0.1875 -0.03125l-0.21875 0l0 1.28125q0 0.03125 -0.015625 0.046875q-0.015625 0.015625 -0.0625 0.03125q-0.03125 0.015625 -0.09375 0.015625q-0.0625 0.015625 -0.171875 0.015625q-0.09375 0 -0.171875 -0.015625q-0.0625 0 -0.109375 -0.015625q-0.03125 -0.015625 -0.046875 -0.03125q-0.015625 -0.015625 -0.015625 -0.046875l0 -3.0625q0 -0.109375 0.0625 -0.15625q0.0625 -0.046875 0.140625 -0.046875l0.875 0q0.140625 0 0.21875 0q0.09375 0 0.15625 0.015625q0.203125 0.03125 0.359375 0.109375q0.171875 0.0625 0.28125 0.171875q0.125 0.109375 0.171875 0.265625q0.0625 0.15625 0.0625 0.359375q0 0.15625 -0.046875 0.296875q-0.03125 0.140625 -0.125 0.25q-0.078125 0.109375 -0.203125 0.203125q-0.125 0.078125 -0.28125 0.125q0.078125 0.03125 0.140625 0.09375q0.078125 0.046875 0.125 0.125q0.0625 0.0625 0.109375 0.15625q0.0625 0.09375 0.109375 0.21875l0.28125 0.671875q0.046875 0.09375 0.046875 0.140625q0.015625 0.046875 0.015625 0.0625zm-0.875 -2.28125q0 -0.171875 -0.078125 -0.28125q-0.078125 -0.109375 -0.25 -0.15625q-0.046875 -0.015625 -0.125 -0.015625q-0.0625 -0.015625 -0.171875 -0.015625l-0.3125 0l0 0.953125l0.359375 0q0.140625 0 0.25 -0.03125q0.109375 -0.03125 0.171875 -0.09375q0.078125 -0.078125 0.109375 -0.15625q0.046875 -0.09375 0.046875 -0.203125zm3.5726013 -0.703125q0 0.0625 -0.015625 0.125q0 0.046875 -0.015625 0.078125q-0.015625 0.03125 -0.03125 0.046875q-0.015625 0.015625 -0.046875 0.015625l-0.84375 0l0 2.71875q0 0.03125 -0.015625 0.046875q-0.015625 0.015625 -0.0625 0.03125q-0.03125 0.015625 -0.09375 0.015625q-0.0625 0.015625 -0.171875 0.015625q-0.09375 0 -0.15625 -0.015625q-0.0625 0 -0.109375 -0.015625q-0.03125 -0.015625 -0.0625 -0.03125q-0.015625 -0.015625 -0.015625 -0.046875l0 -2.71875l-0.84375 0q-0.015625 0 -0.046875 -0.015625q-0.015625 -0.015625 -0.03125 -0.046875q0 -0.03125 -0.015625 -0.078125q0 -0.0625 0 -0.125q0 -0.078125 0 -0.125q0.015625 -0.0625 0.015625 -0.09375q0.015625 -0.046875 0.03125 -0.046875q0.03125 -0.015625 0.046875 -0.015625l2.375 0q0.03125 0 0.046875 0.015625q0.015625 0 0.03125 0.046875q0.015625 0.03125 0.015625 0.09375q0.015625 0.046875 0.015625 0.125z"
                  fill-rule="nonzero"/>
            <path fill="#757070" d="m503.44168 403.62372l0 6.720001c1.7649231 -0.011932373 4.2153015 -0.6203003 5.2171326 -1.8728333c1.1582031 -1.2181091 1.5351868 -2.9848938 1.5007324 -4.847168l-6.717865 0z" fill-rule="evenodd"/>
            <path stroke="#3f3f3f" stroke-width="1.0" stroke-miterlimit="800.0" stroke-linecap="butt" d="m503.44168 403.62372l0 6.720001c1.7649231 -0.011932373 4.2153015 -0.6203003 5.2171326 -1.8728333c1.1582031 -1.2181091 1.5351868 -2.9848938 1.5007324 -4.847168l-6.717865 0z" fill-rule="evenodd"/>
            <path fill="#000000" fill-opacity="0.0" d="m493.84167 397.22372l27.0 0l0 18.133331l-27.0 0z" fill-rule="evenodd"/>
            <path fill="#404040"
                  d="m505.06042 406.06247q0 0.078125 -0.015625 0.140625q0 0.046875 -0.015625 0.078125q-0.015625 0.03125 -0.03125 0.046875q-0.015625 0.015625 -0.046875 0.015625l-1.546875 0q-0.078125 0 -0.140625 -0.046875q-0.0625 -0.046875 -0.0625 -0.171875l0 -3.046875q0 -0.03125 0.015625 -0.046875q0.03125 -0.03125 0.0625 -0.03125q0.046875 -0.015625 0.109375 -0.015625q0.0625 -0.015625 0.15625 -0.015625q0.109375 0 0.171875 0.015625q0.0625 0 0.09375 0.015625q0.046875 0 0.0625 0.03125q0.015625 0.015625 0.015625 0.046875l0 2.703125l1.0625 0q0.03125 0 0.046875 0.015625q0.015625 0.015625 0.03125 0.046875q0.015625 0.03125 0.015625 0.09375q0.015625 0.046875 0.015625 0.125zm2.2530212 -2.796875q0 0.0625 -0.015625 0.125q0 0.046875 -0.015625 0.078125q-0.015625 0.03125 -0.03125 0.046875q-0.015625 0.015625 -0.046875 0.015625l-0.84375 0l0 2.71875q0 0.03125 -0.015625 0.046875q-0.015625 0.015625 -0.0625 0.03125q-0.03125 0.015625 -0.09375 0.015625q-0.0625 0.015625 -0.171875 0.015625q-0.09375 0 -0.15625 -0.015625q-0.0625 0 -0.109375 -0.015625q-0.03125 -0.015625 -0.0625 -0.03125q-0.015625 -0.015625 -0.015625 -0.046875l0 -2.71875l-0.84375 0q-0.015625 0 -0.046875 -0.015625q-0.015625 -0.015625 -0.03125 -0.046875q0 -0.03125 -0.015625 -0.078125q0 -0.0625 0 -0.125q0 -0.078125 0 -0.125q0.015625 -0.0625 0.015625 -0.09375q0.015625 -0.046875 0.03125 -0.046875q0.03125 -0.015625 0.046875 -0.015625l2.375 0q0.03125 0 0.046875 0.015625q0.015625 0 0.03125 0.046875q0.015625 0.03125 0.015625 0.09375q0.015625 0.046875 0.015625 0.125z"
                  fill-rule="nonzero"/>
            <path fill="#757070" d="m438.6848 410.09564c0.023162842 -1.3008728 0.0134887695 -0.3182373 0.07571411 -2.1037598c-0.7668762 -0.08761597 -1.0956116 -0.054534912 -1.6416321 -0.86016846c-0.20944214 -1.2793274 0.0848999 -2.0562134 1.045929 -2.0705566l5.4876404 0c0.7974243 0.20889282 0.9246826 1.281311 0.87228394 1.7832947c-0.17855835 1.2209473 -1.3185425 1.2128296 -1.8701782 1.1956482c-0.0053100586 1.0359497 -0.017059326 0.9635925 -0.022399902 2.0513306" fill-rule="evenodd"/>
            <path stroke="#3f3f3f" stroke-width="1.0" stroke-miterlimit="800.0" stroke-linecap="butt"
                  d="m438.6848 410.09564c0.023162842 -1.3008728 0.0134887695 -0.3182373 0.07571411 -2.1037598c-0.7668762 -0.08761597 -1.0956116 -0.054534912 -1.6416321 -0.86016846c-0.20944214 -1.2793274 0.0848999 -2.0562134 1.045929 -2.0705566l5.4876404 0c0.7974243 0.20889282 0.9246826 1.281311 0.87228394 1.7832947c-0.17855835 1.2209473 -1.3185425 1.2128296 -1.8701782 1.1956482c-0.0053100586 1.0359497 -0.017059326 0.9635925 -0.022399902 2.0513306" fill-rule="evenodd"/>
            <path fill="#000000" fill-opacity="0.0" d="m429.3617 398.98373l27.0 0l0 18.113495l-27.0 0z" fill-rule="evenodd"/>
            <path fill="#404040"
                  d="m440.8617 407.3856q0 0.03125 -0.015625 0.046875q0 0.015625 -0.03125 0.03125q-0.03125 0 -0.109375 0q-0.0625 0.015625 -0.171875 0.015625q-0.09375 0 -0.15625 -0.015625q-0.046875 0 -0.09375 0q-0.03125 -0.015625 -0.046875 -0.03125q0 -0.03125 -0.015625 -0.0625l-0.265625 -0.65625q-0.046875 -0.109375 -0.09375 -0.1875q-0.046875 -0.09375 -0.109375 -0.140625q-0.046875 -0.0625 -0.125 -0.09375q-0.0625 -0.03125 -0.15625 -0.03125l-0.1875 0l0 1.125q0 0.015625 -0.015625 0.046875q-0.015625 0.015625 -0.046875 0.03125q-0.03125 0 -0.09375 0q-0.0625 0.015625 -0.140625 0.015625q-0.09375 0 -0.15625 -0.015625q-0.046875 0 -0.09375 0q-0.03125 -0.015625 -0.046875 -0.03125q0 -0.03125 0 -0.046875l0 -2.671875q0 -0.109375 0.046875 -0.140625q0.046875 -0.046875 0.125 -0.046875l0.765625 0q0.109375 0 0.1875 0q0.078125 0 0.140625 0.015625q0.171875 0.015625 0.3125 0.078125q0.140625 0.0625 0.234375 0.171875q0.109375 0.09375 0.15625 0.234375q0.046875 0.125 0.046875 0.296875q0 0.15625 -0.03125 0.28125q-0.03125 0.109375 -0.109375 0.21875q-0.078125 0.09375 -0.1875 0.171875q-0.09375 0.0625 -0.234375 0.09375q0.0625 0.03125 0.125 0.078125q0.0625 0.046875 0.109375 0.125q0.046875 0.0625 0.09375 0.140625q0.046875 0.078125 0.09375 0.1875l0.25 0.578125q0.03125 0.09375 0.03125 0.140625q0.015625 0.03125 0.015625 0.046875zm-0.765625 -2.0q0 -0.140625 -0.078125 -0.234375q-0.0625 -0.109375 -0.203125 -0.140625q-0.046875 -0.015625 -0.109375 -0.015625q-0.046875 -0.015625 -0.15625 -0.015625l-0.265625 0l0 0.828125l0.296875 0q0.125 0 0.21875 -0.03125q0.109375 -0.03125 0.171875 -0.078125q0.0625 -0.0625 0.09375 -0.140625q0.03125 -0.078125 0.03125 -0.171875z"
                  fill-rule="nonzero"/>
            <path fill="#3f3f3f" d="m440.33502 402.42404l0.18713379 0.37576294l0.18713379 -0.37576294c-0.06323242 -3.9672852E-4 -0.09765625 0.090789795 -0.19387817 0.082092285c-0.091156006 0.0067749023 -0.1111145 -0.0602417 -0.1803894 -0.082092285z" fill-rule="evenodd"/>
            <path stroke="#3f3f3f" stroke-width="1.3333333333333333" stroke-miterlimit="800.0" stroke-linecap="butt" d="m440.33502 402.42404l0.18713379 0.37576294l0.18713379 -0.37576294c-0.06323242 -3.9672852E-4 -0.09765625 0.090789795 -0.19387817 0.082092285c-0.091156006 0.0067749023 -0.1111145 -0.0602417 -0.1803894 -0.082092285z" fill-rule="evenodd"/>
            <path fill="#757070" d="m658.65314 410.0904c0.023132324 -1.3023071 0.0134887695 -0.318573 0.075683594 -2.1060486c-0.76690674 -0.08773804 -1.095581 -0.054626465 -1.6416016 -0.8611145c-0.20947266 -1.2807617 0.0848999 -2.0584717 1.0458984 -2.0728455l5.48761 0c0.79748535 0.20913696 0.9246826 1.2827148 0.87231445 1.7852478c-0.17858887 1.22229 -1.3185425 1.2141418 -1.8701782 1.1969604c-0.0053100586 1.0370789 -0.017028809 0.9646301 -0.022399902 2.0535889" fill-rule="evenodd"/>
            <path stroke="#3f3f3f" stroke-width="1.0" stroke-miterlimit="800.0" stroke-linecap="butt"
                  d="m658.65314 410.0904c0.023132324 -1.3023071 0.0134887695 -0.318573 0.075683594 -2.1060486c-0.76690674 -0.08773804 -1.095581 -0.054626465 -1.6416016 -0.8611145c-0.20947266 -1.2807617 0.0848999 -2.0584717 1.0458984 -2.0728455l5.48761 0c0.79748535 0.20913696 0.9246826 1.2827148 0.87231445 1.7852478c-0.17858887 1.22229 -1.3185425 1.2141418 -1.8701782 1.1969604c-0.0053100586 1.0370789 -0.017028809 0.9646301 -0.022399902 2.0535889" fill-rule="evenodd"/>
            <path fill="#000000" fill-opacity="0.0" d="m649.52167 399.30374l27.0 0l0 18.133331l-27.0 0z" fill-rule="evenodd"/>
            <path fill="#404040"
                  d="m660.45917 407.53372q0 0.0625 -0.015625 0.109375q0 0.046875 -0.015625 0.078125q0 0.03125 -0.015625 0.046875q-0.015625 0.015625 -0.046875 0.015625l-1.34375 0q-0.078125 0 -0.125 -0.046875q-0.046875 -0.046875 -0.046875 -0.140625l0 -2.671875q0 -0.03125 0 -0.046875q0.015625 -0.015625 0.046875 -0.015625q0.046875 -0.015625 0.09375 -0.015625q0.0625 -0.015625 0.15625 -0.015625q0.078125 0 0.140625 0.015625q0.0625 0 0.09375 0.015625q0.03125 0 0.046875 0.015625q0.015625 0.015625 0.015625 0.046875l0 2.359375l0.921875 0q0.03125 0 0.046875 0.015625q0.015625 0.015625 0.015625 0.046875q0.015625 0.03125 0.015625 0.078125q0.015625 0.046875 0.015625 0.109375z"
                  fill-rule="nonzero"/>
            <path fill="#3f3f3f" d="m660.3033 402.5704l0.18713379 0.37615967l0.18719482 -0.37615967c-0.06329346 -4.272461E-4 -0.097717285 0.09085083 -0.19390869 0.08215332c-0.09112549 0.00680542 -0.111083984 -0.060302734 -0.18041992 -0.08215332z" fill-rule="evenodd"/>
            <path stroke="#3f3f3f" stroke-width="1.3333333333333333" stroke-miterlimit="800.0" stroke-linecap="butt" d="m660.3033 402.5704l0.18713379 0.37615967l0.18719482 -0.37615967c-0.06329346 -4.272461E-4 -0.097717285 0.09085083 -0.19390869 0.08215332c-0.09112549 0.00680542 -0.111083984 -0.060302734 -0.18041992 -0.08215332z" fill-rule="evenodd"/>
            <path fill="#757070" d="m591.25824 406.75705l0 0c0 -1.8556519 1.5043335 -3.3599854 3.3600464 -3.3599854l0 0c0.8911133 0 1.7457275 0.3540039 2.3758545 0.98413086c0.63012695 0.63009644 0.98413086 1.4847412 0.98413086 2.3758545l0 0c0 1.8556824 -1.5043335 3.3600159 -3.3599854 3.3600159l0 0c-1.8557129 0 -3.3600464 -1.5043335 -3.3600464 -3.3600159z" fill-rule="evenodd"/>
            <path stroke="#3f3f3f" stroke-width="1.0" stroke-miterlimit="800.0" stroke-linecap="butt" d="m591.25824 406.75705l0 0c0 -1.8556519 1.5043335 -3.3599854 3.3600464 -3.3599854l0 0c0.8911133 0 1.7457275 0.3540039 2.3758545 0.98413086c0.63012695 0.63009644 0.98413086 1.4847412 0.98413086 2.3758545l0 0c0 1.8556824 -1.5043335 3.3600159 -3.3599854 3.3600159l0 0c-1.8557129 0 -3.3600464 -1.5043335 -3.3600464 -3.3600159z" fill-rule="evenodd"/>
            <path fill="#000000" fill-opacity="0.0" d="m582.32166 398.50372l30.080017 0l0 18.06668l-30.080017 0z" fill-rule="evenodd"/>
            <path fill="#404040"
                  d="m593.7435 406.76498q0.03125 0.078125 0.046875 0.125q0.015625 0.046875 -0.015625 0.078125q-0.03125 0.015625 -0.109375 0.015625q-0.0625 0.015625 -0.1875 0.015625q-0.109375 0 -0.171875 -0.015625q-0.0625 0 -0.09375 0q-0.03125 -0.015625 -0.046875 -0.03125q-0.015625 -0.015625 -0.03125 -0.046875l-0.546875 -1.0625l-0.546875 1.0625q-0.015625 0.03125 -0.03125 0.046875q-0.015625 0.015625 -0.0625 0.03125q-0.03125 0 -0.09375 0q-0.0625 0.015625 -0.15625 0.015625q-0.125 0 -0.1875 -0.015625q-0.0625 0 -0.09375 -0.015625q-0.015625 -0.03125 0 -0.078125q0.015625 -0.046875 0.046875 -0.125l0.703125 -1.296875l-0.640625 -1.203125q-0.046875 -0.078125 -0.0625 -0.125q-0.015625 -0.046875 0 -0.0625q0.03125 -0.03125 0.09375 -0.03125q0.078125 -0.015625 0.21875 -0.015625q0.109375 0 0.171875 0q0.0625 0 0.09375 0.015625q0.03125 0.015625 0.046875 0.03125q0.015625 0.015625 0.03125 0.046875l0.515625 0.96875l0.5 -0.96875q0.015625 -0.03125 0.03125 -0.046875q0.015625 -0.015625 0.046875 -0.03125q0.03125 -0.015625 0.09375 -0.015625q0.0625 0 0.15625 0q0.109375 0 0.171875 0.015625q0.078125 0 0.09375 0.03125q0.03125 0.015625 0.015625 0.0625q-0.015625 0.046875 -0.046875 0.125l-0.65625 1.203125l0.703125 1.296875zm2.2833252 -0.015625q0 0.078125 -0.015625 0.125q0 0.03125 -0.015625 0.0625q0 0.03125 -0.015625 0.046875q-0.015625 0 -0.03125 0l-1.625 0q-0.03125 0 -0.046875 0q-0.015625 -0.015625 -0.03125 -0.046875q0 -0.03125 -0.015625 -0.0625q0 -0.046875 0 -0.125q0 -0.0625 0 -0.09375q0.015625 -0.046875 0.015625 -0.078125q0.015625 -0.03125 0.03125 -0.046875q0.015625 -0.015625 0.046875 -0.015625l0.546875 0l0 -1.90625l-0.484375 0.265625q-0.046875 0.015625 -0.078125 0.03125q-0.03125 0 -0.0625 -0.015625q-0.015625 -0.015625 -0.015625 -0.0625q0 -0.0625 0 -0.140625q0 -0.0625 0 -0.09375q0 -0.03125 0 -0.046875q0.015625 -0.03125 0.03125 -0.046875q0.015625 -0.015625 0.046875 -0.046875l0.625 -0.40625q0.015625 0 0.03125 0q0.015625 -0.015625 0.046875 -0.015625q0.03125 0 0.0625 0q0.046875 -0.015625 0.125 -0.015625q0.078125 0 0.125 0.015625q0.0625 0 0.09375 0.015625q0.03125 0 0.03125 0.015625q0.015625 0.015625 0.015625 0.03125l0 2.421875l0.484375 0q0.015625 0 0.03125 0.015625q0.015625 0.015625 0.03125 0.046875q0.015625 0.03125 0.015625 0.078125q0 0.03125 0 0.09375z"
                  fill-rule="nonzero"/>
            <path fill="#757070" d="m569.53204 406.98373l0 0c0 -1.8556824 1.5043335 -3.3600159 3.3600464 -3.3600159l0 0c0.8911133 0 1.7457275 0.3540039 2.3758545 0.98413086c0.63012695 0.63012695 0.98413086 1.4847412 0.98413086 2.375885l0 0c0 1.8556824 -1.5043335 3.3599854 -3.3599854 3.3599854l0 0c-1.8557129 0 -3.3600464 -1.504303 -3.3600464 -3.3599854z" fill-rule="evenodd"/>
            <path stroke="#3f3f3f" stroke-width="1.0" stroke-miterlimit="800.0" stroke-linecap="butt" d="m569.53204 406.98373l0 0c0 -1.8556824 1.5043335 -3.3600159 3.3600464 -3.3600159l0 0c0.8911133 0 1.7457275 0.3540039 2.3758545 0.98413086c0.63012695 0.63012695 0.98413086 1.4847412 0.98413086 2.375885l0 0c0 1.8556824 -1.5043335 3.3599854 -3.3599854 3.3599854l0 0c-1.8557129 0 -3.3600464 -1.504303 -3.3600464 -3.3599854z" fill-rule="evenodd"/>
            <path fill="#000000" fill-opacity="0.0" d="m560.4017 398.66373l30.080017 0l0 18.06668l-30.080017 0z" fill-rule="evenodd"/>
            <path fill="#404040"
                  d="m571.82355 406.925q0.03125 0.078125 0.046875 0.125q0.015625 0.046875 -0.015625 0.078125q-0.03125 0.015625 -0.109375 0.015625q-0.0625 0.015625 -0.1875 0.015625q-0.109375 0 -0.171875 -0.015625q-0.0625 0 -0.09375 0q-0.03125 -0.015625 -0.046875 -0.03125q-0.015625 -0.015625 -0.03125 -0.046875l-0.546875 -1.0625l-0.546875 1.0625q-0.015625 0.03125 -0.03125 0.046875q-0.015625 0.015625 -0.0625 0.03125q-0.03125 0 -0.09375 0q-0.0625 0.015625 -0.15625 0.015625q-0.125 0 -0.1875 -0.015625q-0.0625 0 -0.09375 -0.015625q-0.015625 -0.03125 0 -0.078125q0.015625 -0.046875 0.046875 -0.125l0.703125 -1.296875l-0.640625 -1.203125q-0.046875 -0.078125 -0.0625 -0.125q-0.015625 -0.046875 0 -0.0625q0.03125 -0.03125 0.09375 -0.03125q0.078125 -0.015625 0.21875 -0.015625q0.109375 0 0.171875 0q0.0625 0 0.09375 0.015625q0.03125 0.015625 0.046875 0.03125q0.015625 0.015625 0.03125 0.046875l0.515625 0.96875l0.5 -0.96875q0.015625 -0.03125 0.03125 -0.046875q0.015625 -0.015625 0.046875 -0.03125q0.03125 -0.015625 0.09375 -0.015625q0.0625 0 0.15625 0q0.109375 0 0.171875 0.015625q0.078125 0 0.09375 0.03125q0.03125 0.015625 0.015625 0.0625q-0.015625 0.046875 -0.046875 0.125l-0.65625 1.203125l0.703125 1.296875zm2.3145752 -0.03125q0 0.078125 -0.015625 0.125q0 0.046875 -0.015625 0.078125q0 0.015625 -0.015625 0.03125q-0.015625 0.015625 -0.046875 0.015625l-1.6875 0q-0.046875 0 -0.09375 0q-0.03125 -0.015625 -0.0625 -0.046875q-0.015625 -0.03125 -0.03125 -0.078125q0 -0.046875 0 -0.125q0 -0.078125 0 -0.125q0.015625 -0.0625 0.03125 -0.09375q0.015625 -0.046875 0.046875 -0.078125q0.03125 -0.046875 0.078125 -0.09375l0.5 -0.546875q0.15625 -0.15625 0.25 -0.28125q0.09375 -0.140625 0.140625 -0.25q0.0625 -0.109375 0.078125 -0.1875q0.015625 -0.09375 0.015625 -0.1875q0 -0.078125 -0.03125 -0.140625q-0.015625 -0.0625 -0.0625 -0.109375q-0.046875 -0.0625 -0.125 -0.078125q-0.0625 -0.03125 -0.15625 -0.03125q-0.140625 0 -0.25 0.03125q-0.09375 0.03125 -0.171875 0.078125q-0.078125 0.046875 -0.140625 0.078125q-0.046875 0.03125 -0.078125 0.03125q-0.015625 0 -0.03125 -0.015625q-0.015625 -0.015625 -0.03125 -0.046875q0 -0.03125 -0.015625 -0.078125q0 -0.0625 0 -0.125q0 -0.0625 0 -0.09375q0.015625 -0.03125 0.015625 -0.0625q0.015625 -0.03125 0.015625 -0.046875q0.015625 -0.015625 0.046875 -0.046875q0.03125 -0.03125 0.09375 -0.0625q0.078125 -0.046875 0.1875 -0.078125q0.125 -0.046875 0.25 -0.078125q0.140625 -0.03125 0.28125 -0.03125q0.234375 0 0.40625 0.0625q0.171875 0.0625 0.28125 0.171875q0.109375 0.09375 0.171875 0.234375q0.0625 0.140625 0.0625 0.3125q0 0.140625 -0.03125 0.28125q-0.03125 0.140625 -0.125 0.296875q-0.078125 0.15625 -0.234375 0.359375q-0.15625 0.1875 -0.421875 0.4375l-0.34375 0.359375l1.171875 0q0.015625 0 0.03125 0.015625q0.015625 0.015625 0.03125 0.046875q0.015625 0.015625 0.015625 0.0625q0.015625 0.046875 0.015625 0.109375z"
                  fill-rule="nonzero"/>
        </g>
    </g>
</svg>
